<?xml version="1.0" standalone="yes"?>
<!DOCTYPE svg PUBLIC "-//W3C//DTD SVG 1.1//EN" "http://www.w3.org/Graphics/SVG/1.1/DTD/svg11.dtd">
<svg xmlns="http://www.w3.org/2000/svg" version="1.1" id="seen-svg" width="300" height="300"><g><path style="fill:#16133A;fill-opacity:1;" d="M132.79695523062688 205.97227766409418L131.7225516179549 200.51776216986525L149.62595380141428 202.0807336245137"></path>
<path style="fill-opacity:1;fill:#16133A;" d="M116.06429676278333 206.65877182918575L114.52327666386452 195.93426664117928L131.7225516179549 200.51776216986525L132.79695523062688 205.97227766409418"></path>
<path style="fill:#16133A;fill-opacity:1;" d="M100.22365286765731 203.78480606196996L98.76747295709166 188.37726070210212L114.52327666386452 195.93426664117928L116.06429676278333 206.65877182918575"></path>
<path style="fill:#16133A;fill-opacity:1;" d="M86.25504713159023 197.05214310540055L85.27999458090657 177.96254679767225L98.76747295709166 188.37726070210212L100.22365286765731 203.78480606196996"></path>
<path style="fill:#3C3288;fill-opacity:1;" d="M73.21473374277706 116.0975492449667L83.95913971970712 100.52173893370025L79.8135705931149 115.31311519688576L68.03490237023885 133.08469964612974"></path>
<path style="fill:#211C50;fill-opacity:1;" d="M75.33230842016398 186.3184051672036L74.98892209568872 164.93120873766554L85.27999458090657 177.96254679767225L86.25504713159023 197.05214310540055"></path>
<path d="M68.03490237023885 133.08469964612974L79.8135705931149 115.31311519688576L80.48840570618361 130.94498986862908L68.90454808459647 149.72717994955116" style="fill:#352C79;fill-opacity:1;"></path>
<path style="fill:#2C2567;fill-opacity:1;" d="M68.76280009306699 171.74352334712407L68.90454808459647 149.72717994955116L74.98892209568872 164.93120873766554L75.33230842016398 186.3184051672036"></path>
<path d="M68.90454808459647 149.72717994955116L80.48840570618361 130.94498986862908L85.33720730319838 146.46064019775937L74.98892209568872 164.93120873766554" style="fill:#2A2465;fill-opacity:1;"></path>
<path d="M67.8165569345217 153.9627352988982L68.03490237023885 133.08469964612974L68.90454808459647 149.72717994955116L68.76280009306699 171.74352334712407" style="fill:#352C7B;fill-opacity:1;"></path>
<path style="fill:#1F1B4E;fill-opacity:1;" d="M74.98892209568872 164.93120873766554L85.33720730319838 146.46064019775937L93.67393650508532 161.13785444531808L85.27999458090657 177.96254679767225"></path>
<path style="fill:#15133A;fill-opacity:1;" d="M85.27999458090657 177.96254679767225L93.67393650508532 161.13785444531808L104.84691019704363 174.43460116527362L98.76747295709166 188.37726070210212"></path>
<path style="fill:#16133A;fill-opacity:1;" d="M98.76747295709166 188.37726070210212L104.84691019704363 174.43460116527362L118.26099388765928 185.92726196188565L114.52327666386452 195.93426664117928"></path>
<path style="fill:#16133A;fill-opacity:1;" d="M114.52327666386452 195.93426664117928L118.26099388765928 185.92726196188565L133.36625908003964 195.2556550714303L131.7225516179549 200.51776216986525"></path>
<path style="fill:#15133A;fill-opacity:1;" d="M131.7225516179549 200.51776216986525L133.36625908003964 195.2556550714303L149.62595380141428 202.0807336245137"></path>
<path style="fill:#15133A;fill-opacity:1;" d="M136.55552650783764 210.75575160510346L132.79695523062688 205.97227766409418L149.62595380141428 202.08073362451373"></path>
<path style="fill:#15133A;fill-opacity:1;" d="M123.1681624990943 216.37132010744227L116.06429676278333 206.65877182918575L132.79695523062688 205.97227766409418L136.55552650783764 210.75575160510346"></path>
<path style="fill:#413797;fill-opacity:1;" d="M108.16125358533732 78.49174030144533L119.21365330776976 71.76102735704013L108.80483972957232 78.37790970072534L93.38784527412747 87.78065445504299"></path>
<path style="fill-opacity:1;fill:#15133A;" d="M110.11822143080838 218.1705927630763L100.22365286765731 203.78480606196996L116.06429676278333 206.65877182918575L123.1681624990943 216.37132010744227"></path>
<path style="fill:#3D348E;fill-opacity:1;" d="M93.38784527412747 87.78065445504299L108.80483972957232 78.37790970072534L102.28299662665003 88.95739425594954L83.95913971970712 100.52173893370025"></path>
<path style="fill:#15133A;fill-opacity:1;" d="M98.29485127238272 215.36324496758886L86.25504713159023 197.05214310540055L100.22365286765731 203.78480606196996L110.11822143080838 218.1705927630763"></path>
<path style="fill:#362E7F;fill-opacity:1;" d="M83.95913971970712 100.52173893370025L102.28299662665003 88.95739425594954L99.43037526962237 102.21700329165448L79.8135705931149 115.31311519688576"></path>
<path style="fill:#1D194A;fill-opacity:1;" d="M88.83866103551291 207.27392293028987L75.33230842016398 186.3184051672036L86.25504713159023 197.05214310540055L98.29485127238272 215.36324496758886"></path>
<path style="fill:#2F286F;fill-opacity:1;" d="M79.8135705931149 115.31311519688576L99.43037526962237 102.21700329165448L99.85949210582747 117.07738025448313L80.48840570618361 130.94498986862908"></path>
<path style="fill:#26205B;fill-opacity:1;" d="M80.48840570618361 130.94498986862908L99.85949210582747 117.07738025448313L103.14050247923282 132.68529625984232L85.33720730319838 146.46064019775937"></path>
<path style="fill:#1B1745;fill-opacity:1;" d="M85.33720730319838 146.46064019775937L103.14050247923282 132.68529625984232L108.86812152237977 148.3775455013551L93.67393650508532 161.13785444531808"></path>
<path style="fill:#16133A;fill-opacity:1;" d="M93.67393650508532 161.13785444531808L108.86812152237977 148.3775455013551L116.68525919415164 163.62265161208052L104.84691019704363 174.43460116527362"></path>
<path style="fill:#15133A;fill-opacity:1;" d="M104.84691019704363 174.43460116527362L116.68525919415164 163.62265161208052L126.27912157404486 177.95945417258085L118.26099388765928 185.92726196188565"></path>
<path d="M118.26099388765928 185.92726196188565L126.27912157404486 177.95945417258085L137.35979282496896 190.94019808130398L133.36625908003964 195.2556550714303" style="fill:#15133A;fill-opacity:1;"></path>
<path style="fill:#15133A;fill-opacity:1;" d="M133.36625908003964 195.2556550714303L137.35979282496896 190.94019808130398L149.62595380141428 202.0807336245137"></path>
<path style="fill:#14133A;fill-opacity:1;" d="M142.487860097713 214.04131282221974L136.55552650783764 210.75575160510346L149.6259538014143 202.08073362451373"></path>
<path style="fill-opacity:1;fill:#14133A;" d="M135.03600833736272 223.21439004144432L123.1681624990943 216.37132010744227L136.55552650783764 210.75575160510346L142.487860097713 214.04131282221974"></path>
<path style="fill:#493DAA;fill-opacity:1;" d="M119.21365330776976 71.76102735704013L133.893092231277 67.56424674390003L128.51022011009874 72.63018549809765L108.80483972957232 78.37790970072534"></path>
<path style="fill:#14133A;fill-opacity:1;" d="M127.63188124066038 228.56104432805708L110.11822143080838 218.1705927630763L123.1681624990943 216.37132010744227L135.03600833736272 223.21439004144432"></path>
<path style="fill:#453AA3;fill-opacity:1;" d="M108.80483972957232 78.37790970072534L128.51022011009874 72.63018549809765L125.15879960290656 81.97261775437387L102.28299662665003 88.95739425594954"></path>
<path style="fill:#14133A;fill-opacity:1;" d="M120.80448531168497 228.89067640732907L98.29485127238272 215.36324496758886L110.11822143080838 218.1705927630763L127.63188124066038 228.56104432805708"></path>
<path style="fill:#403699;fill-opacity:1;" d="M102.28299662665003 88.95739425594954L125.15879960290656 81.97261775437387L123.67463456818666 94.34395904307658L99.43037526962237 102.21700329165448"></path>
<path style="fill:#372F88;fill-opacity:1;" d="M99.43037526962237 102.21700329165448L123.67463456818666 94.34395904307658L123.84204799693768 108.72550825393009L99.85949210582747 117.07738025448313"></path>
<path d="M99.85949210582747 117.07738025448313L123.84204799693768 108.72550825393009L125.44918789351205 124.32764119651796L103.14050247923282 132.68529625984232" style="fill:#2D2772;fill-opacity:1;"></path>
<path style="fill:#231F5E;fill-opacity:1;" d="M103.14050247923282 132.68529625984232L125.44918789351205 124.32764119651796L128.3123987439492 140.5415985475851L108.86812152237977 148.3775455013551"></path>
<path style="fill:#201D57;fill-opacity:1;" d="M108.86812152237977 148.3775455013551L128.3123987439492 140.5415985475851L132.28123455929568 156.8757192209945L116.68525919415164 163.62265161208052"></path>
<path style="fill:#1D1A4E;fill-opacity:1;" d="M116.68525919415164 163.62265161208052L132.28123455929568 156.8757192209945L137.23197353527573 172.89010049750564L126.27912157404486 177.95945417258085"></path>
<path style="fill:#191644;fill-opacity:1;" d="M126.27912157404486 177.95945417258085L137.23197353527573 172.89010049750564L143.05344984152617 188.13328553114172L137.35979282496896 190.94019808130398"></path>
<path style="fill:#15133A;fill-opacity:1;" d="M137.35979282496896 190.94019808130398L143.05344984152617 188.13328553114172L149.62595380141428 202.0807336245137"></path>
<path style="fill:#13133A;fill-opacity:1;" d="M149.64106607761278 215.22301297479243L142.487860097713 214.04131282221974L149.6259538014143 202.08073362451373"></path>
<path style="fill:#13133A;fill-opacity:1;" d="M149.68126589148218 225.70848138096278L135.03600833736272 223.21439004144432L142.487860097713 214.04131282221974L149.64106607761278 215.22301297479243"></path>
<path style="fill:#4B40B4;fill-opacity:1;" d="M133.893092231277 67.56424674390003L150.3528411350269 66.19012277712265L150.24112171818703 70.76476329128634L128.51022011009874 72.63018549809765"></path>
<path d="M149.74924889343387 232.39955916508455L127.63188124066038 228.56104432805708L135.03600833736272 223.21439004144432L149.68126589148218 225.70848138096278" style="fill:#13133A;fill-opacity:1;"></path>
<path style="fill:#493EB1;fill-opacity:1;" d="M128.51022011009874 72.63018549809765L150.24112171818703 70.76476329128634L150.1286130934658 79.71387485515251L125.15879960290656 81.97261775437387"></path>
<path d="M149.84637916224074 233.95267648605756L120.80448531168497 228.89067640732907L127.63188124066038 228.56104432805708L149.74924889343387 232.39955916508455" style="fill:#13133A;fill-opacity:1;"></path>
<path style="fill:#433AA9;fill-opacity:1;" d="M125.15879960290656 81.97261775437387L150.1286130934658 79.71387485515251L150.021391626614 91.79638748658934L123.67463456818666 94.34395904307658"></path>
<path style="fill:#3C349A;fill-opacity:1;" d="M123.67463456818666 94.34395904307658L150.021391626614 91.79638748658934L149.9232566454473 106.01226873154417L123.84204799693768 108.72550825393009"></path>
<path style="fill:#342D89;fill-opacity:1;" d="M123.84204799693768 108.72550825393009L149.9232566454473 106.01226873154417L149.83654524157558 121.59449075836073L125.44918789351205 124.32764119651796"></path>
<path d="M125.44918789351205 124.32764119651796L149.83654524157558 121.59449075836073L149.7628135660991 137.95645557906596L128.3123987439492 140.5415985475851" style="fill:#312B82;fill-opacity:1;"></path>
<path style="fill-opacity:1;fill:#2C2776;" d="M128.3123987439492 140.5415985475851L149.7628135660991 137.95645557906596L149.70334360288103 154.62615751920222L132.28123455929568 156.8757192209945"></path>
<path style="fill:#262266;fill-opacity:1;" d="M132.28123455929568 156.8757192209945L149.70334360288103 154.62615751920222L149.65950176565335 171.17925984592483L137.23197353527573 172.89010049750564"></path>
<path style="fill:#1F1B53;fill-opacity:1;" d="M137.23197353527573 172.89010049750564L149.65950176565335 171.17925984592483L149.63298311141662 187.17318750054096L143.05344984152617 188.13328553114172"></path>
<path style="fill:#17143E;fill-opacity:1;" d="M143.05344984152617 188.13328553114172L149.63298311141662 187.17318750054096L149.6259538014143 202.0807336245137"></path>
<path style="fill:#14133A;fill-opacity:1;" d="M156.7920949048816 214.07594525223422L149.64106607761278 215.22301297479243L149.6259538014143 202.08073362451373"></path>
<path style="fill-opacity:1;fill:#14133A;" d="M164.31824779529222 223.28132496073692L149.68126589148218 225.70848138096278L149.64106607761278 215.22301297479243L156.7920949048816 214.07594525223422"></path>
<path style="fill:#4B40B8;fill-opacity:1;" d="M150.3528411350269 66.19012277712265L166.8179104551033 67.71493305383161L171.97323959625302 72.82584563659493L150.24112171818703 70.76476329128634"></path>
<path style="fill:#14133A;fill-opacity:1;" d="M171.84775229297233 228.65862520933206L149.74924889343387 232.39955916508455L149.68126589148218 225.70848138096278L164.31824779529222 223.28132496073692"></path>
<path style="fill:#483EB5;fill-opacity:1;" d="M150.24112171818703 70.76476329128634L171.97323959625302 72.82584563659493L175.0946266759364 82.19054043783045L150.1286130934658 79.71387485515251"></path>
<path style="fill:#14133A;fill-opacity:1;" d="M178.85476680891554 229.01849427325482L149.84637916224074 233.95267648605756L149.74924889343387 232.39955916508455L171.84775229297233 228.65862520933206"></path>
<path style="fill:#433AAE;fill-opacity:1;" d="M150.1286130934658 79.71387485515251L175.0946266759364 82.19054043783045L176.36023957767782 94.56428524175905L150.021391626614 91.79638748658934"></path>
<path style="fill:#3E37A5;fill-opacity:1;" d="M150.021391626614 91.79638748658934L176.36023957767782 94.56428524175905L175.99427383434076 108.9325671218975L149.9232566454473 106.01226873154417"></path>
<path d="M149.9232566454473 106.01226873154417L175.99427383434076 108.9325671218975L174.21346829075918 124.51005707754717L149.83654524157558 121.59449075836073" style="fill:#3D36A3;fill-opacity:1;"></path>
<path style="fill:#3A339A;fill-opacity:1;" d="M149.83654524157558 121.59449075836073L174.21346829075918 124.51005707754717L171.20431831608133 140.69181926850456L149.7628135660991 137.95645557906596"></path>
<path style="fill:#352E8B;fill-opacity:1;" d="M149.7628135660991 137.95645557906596L171.20431831608133 140.69181926850456L167.11924170703162 156.98936471665996L149.70334360288103 154.62615751920222"></path>
<path style="fill:#2D2776;fill-opacity:1;" d="M149.70334360288103 154.62615751920222L167.11924170703162 156.98936471665996L162.08387960224752 172.9653182313305L149.65950176565335 171.17925984592483"></path>
<path d="M149.65950176565335 171.17925984592483L162.08387960224752 172.9653182313305L156.21180588923525 188.17016205958325L149.63298311141662 187.17318750054096" style="fill:#241F5D;fill-opacity:1;"></path>
<path style="fill:#191541;fill-opacity:1;" d="M149.63298311141662 187.17318750054096L156.21180588923525 188.17016205958325L149.6259538014143 202.0807336245137"></path>
<path style="fill:#14133A;fill-opacity:1;" d="M162.71901103665348 210.82035654102523L156.7920949048816 214.07594525223422L149.6259538014143 202.08073362451373"></path>
<path style="fill-opacity:1;fill:#14133A;" d="M176.16629152648747 216.49778186981953L164.31824779529222 223.28132496073692L156.7920949048816 214.07594525223422L162.71901103665348 210.82035654102523"></path>
<path style="fill:#4C40BB;fill-opacity:1;" d="M166.8179104551033 67.71493305383161L181.51586452246394 72.04225548799518L191.68688539212158 78.74390788021076L171.97323959625302 72.82584563659493"></path>
<path style="fill:#14133A;fill-opacity:1;" d="M189.31741931564255 218.3574414585027L171.84775229297233 228.65862520933206L164.31824779529222 223.28132496073692L176.16629152648747 216.49778186981953"></path>
<path style="fill:#443BAE;fill-opacity:1;" d="M171.97323959625302 72.82584563659493L191.68688539212158 78.74390788021076L197.964916162063 89.36498313800978L175.0946266759364 82.19054043783045"></path>
<path style="fill:#14133A;fill-opacity:1;" d="M201.28767867977683 215.61043921139608L178.85476680891554 229.01849427325482L171.84775229297233 228.65862520933206L189.31741931564255 218.3574414585027"></path>
<path style="fill-opacity:1;fill:#4038A9;" d="M175.0946266759364 82.19054043783045L197.964916162063 89.36498313800978L200.5871559254181 102.62816480493888L176.36023957767782 94.56428524175905"></path>
<path style="fill:#423AAF;fill-opacity:1;" d="M176.36023957767782 94.56428524175905L200.5871559254181 102.62816480493888L199.9525583152136 117.46233982647396L175.99427383434076 108.9325671218975"></path>
<path d="M175.99427383434076 108.9325671218975L199.9525583152136 117.46233982647396L196.4966186453111 133.0229268878559L174.21346829075918 124.51005707754717" style="fill:#4139AD;fill-opacity:1;"></path>
<path style="fill:#3E36A3;fill-opacity:1;" d="M174.21346829075918 124.51005707754717L196.4966186453111 133.0229268878559L190.62668751388918 148.6543815618003L171.20431831608133 140.69181926850456"></path>
<path style="fill:#383193;fill-opacity:1;" d="M171.20431831608133 140.69181926850456L190.62668751388918 148.6543815618003L182.70009380031732 163.83139628988056L167.11924170703162 156.98936471665996"></path>
<path style="fill:#2F297C;fill-opacity:1;" d="M167.11924170703162 156.98936471665996L182.70009380031732 163.83139628988056L173.02926196385746 178.097439457911L162.08387960224752 172.9653182313305"></path>
<path style="fill:#252061;fill-opacity:1;" d="M162.08387960224752 172.9653182313305L173.02926196385746 178.097439457911L161.90392976198933 191.007963675626L156.21180588923525 188.17016205958325"></path>
<path style="fill:#191643;fill-opacity:1;" d="M156.21180588923525 188.17016205958325L161.90392976198933 191.007963675626L149.6259538014143 202.0807336245137"></path>
<path style="fill:#14133A;fill-opacity:1;" d="M166.4715232224356 206.05779572148612L162.71901103665348 210.82035654102523L149.6259538014143 202.0807336245137"></path>
<path style="fill:#13133A;fill-opacity:1;" d="M183.24987075753464 206.82867190877178L176.16629152648747 216.49778186981953L162.71901103665348 210.82035654102523L166.4715232224356 206.05779572148612"></path>
<path style="fill:#5B4EE5;fill-opacity:1;" d="M181.51586452246394 72.04225548799518L192.60652422261643 78.86449656017518L207.1320958741762 88.26709122835905L191.68688539212158 78.74390788021076"></path>
<path style="fill:#13133A;fill-opacity:1;" d="M199.1691527048069 204.0391461357857L189.31741931564255 218.3574414585027L176.16629152648747 216.49778186981953L183.24987075753464 206.82867190877178"></path>
<path style="fill:#3F36A1;fill-opacity:1;" d="M191.68688539212158 78.74390788021076L207.1320958741762 88.26709122835905L216.29874477194997 101.06282322997595L197.964916162063 89.36498313800978"></path>
<path style="fill:#13133A;fill-opacity:1;" d="M213.25504078732712 197.39110618110394L201.28767867977683 215.61043921139608L189.31741931564255 218.3574414585027L199.1691527048069 204.0391461357857"></path>
<path style="fill:#3E36A2;fill-opacity:1;" d="M197.964916162063 89.36498313800978L216.29874477194997 101.06282322997595L220.19623765986574 115.85651241382706L200.5871559254181 102.62816480493888"></path>
<path style="fill:#14143C;fill-opacity:1;" d="M224.33987575991682 186.73956245605942L210.93952444374722 207.58146538418995L201.28767867977683 215.61043921139608L213.25504078732712 197.39110618110394"></path>
<path style="fill:#4037A7;fill-opacity:1;" d="M200.5871559254181 102.62816480493888L220.19623765986574 115.85651241382706L219.30414798808255 131.45041481540758L199.9525583152136 117.46233982647396"></path>
<path style="fill:#3F37A5;fill-opacity:1;" d="M199.9525583152136 117.46233982647396L219.30414798808255 131.45041481540758L214.27629790394002 146.900714485964L196.4966186453111 133.0229268878559"></path>
<path style="fill-opacity:1;fill:#3C349C;" d="M196.4966186453111 133.0229268878559L214.27629790394002 146.900714485964L205.79982155178237 161.4963844515505L190.62668751388918 148.6543815618003"></path>
<path style="fill:#362F8D;fill-opacity:1;" d="M190.62668751388918 148.6543815618003L205.79982155178237 161.4963844515505L194.52412470183978 174.7038546810387L182.70009380031732 163.83139628988056"></path>
<path style="fill:#2F2878;fill-opacity:1;" d="M182.70009380031732 163.83139628988056L194.52412470183978 174.7038546810387L181.04084248184708 186.10517731323674L173.02926196385746 178.097439457911"></path>
<path style="fill:#241F5E;fill-opacity:1;" d="M173.02926196385746 178.097439457911L181.04084248184708 186.10517731323674L165.89660131182077 195.34339890049984L161.90392976198933 191.007963675626"></path>
<path style="fill-opacity:1;fill:#191642;" d="M161.90392976198933 191.007963675626L165.89660131182077 195.34339890049984L149.6259538014143 202.0807336245137"></path>
<path style="fill:#13133A;fill-opacity:1;" d="M167.54168863988062 200.61160047510563L166.4715232224356 206.05779572148612L149.6259538014143 202.0807336245137"></path>
<path style="fill:#171746;fill-opacity:1;" d="M184.77923128337352 196.1230134157927L183.24987075753464 206.82867190877178L166.4715232224356 206.05779572148612L167.54168863988062 200.61160047510563"></path>
<path style="fill:#1B1B52;fill-opacity:1;" d="M200.60289123316684 188.6621048748786L199.1691527048069 204.0391461357857L183.24987075753464 206.82867190877178L184.77923128337352 196.1230134157927"></path>
<path style="fill:#1E1F5C;fill-opacity:1;" d="M214.19328991388377 178.34280528270358L213.25504078732712 197.39110618110394L199.1691527048069 204.0391461357857L200.60289123316684 188.6621048748786"></path>
<path style="fill-opacity:1;fill:#393195;" d="M216.29874477194997 101.06282322997595L227.09368074775432 116.69135545100076L232.00591041910852 133.6764461943609L220.19623765986574 115.85651241382706"></path>
<path style="fill:#212164;fill-opacity:1;" d="M224.62840389438077 165.40121226360907L224.33987575991682 186.73956245605942L213.25504078732712 197.39110618110394L214.19328991388377 178.34280528270358"></path>
<path style="fill:#373090;fill-opacity:1;" d="M220.19623765986574 115.85651241382706L232.00591041910852 133.6764461943609L230.90228183506701 150.27217019068706L219.30414798808255 131.45041481540758"></path>
<path d="M230.90228183506701 150.2721701906871L231.11990381567443 172.2371620844987L224.33987575991682 186.73956245605942L224.62840389438077 165.40121226360907" style="fill:#23246B;fill-opacity:1;"></path>
<path style="fill:#362F8D;fill-opacity:1;" d="M219.30414798808255 131.45041481540758L230.90228183506701 150.27217019068706L224.62840389438077 165.40121226360907L214.27629790394002 146.900714485964"></path>
<path style="fill:#28287A;fill-opacity:1;" d="M232.00591041910852 133.67644619436092L232.32122223480457 154.50590536996086L231.11990381567443 172.2371620844987L230.90228183506701 150.2721701906871"></path>
<path style="fill-opacity:1;fill:#332C86;" d="M214.27629790394002 146.900714485964L224.62840389438077 165.40121226360907L214.19328991388377 178.34280528270358L205.79982155178237 161.4963844515505"></path>
<path style="fill:#2E2879;fill-opacity:1;" d="M205.79982155178237 161.4963844515505L214.19328991388377 178.34280528270358L200.60289123316684 188.66210487487857L194.52412470183978 174.7038546810387"></path>
<path style="fill:#282369;fill-opacity:1;" d="M194.52412470183978 174.7038546810387L200.60289123316684 188.66210487487857L184.77923128337352 196.12301341579268L181.04084248184708 186.10517731323674"></path>
<path style="fill:#201C54;fill-opacity:1;" d="M181.04084248184708 186.10517731323674L184.77923128337352 196.12301341579268L167.54168863988062 200.61160047510563L165.89660131182077 195.34339890049984"></path>
<path style="fill:#18153F;fill-opacity:1;" d="M165.89660131182077 195.34339890049984L167.54168863988062 200.61160047510563L149.6259538014143 202.0807336245137"></path>
<path style="fill:#393798;fill-opacity:1;" d="M150.53446295029735 75.58346361530722L174.46262298950253 83.44419433472771L175.77766774743196 78.7520850099719"></path>
<path style="fill:#413FB5;fill-opacity:1;" d="M175.77766774743196 78.7520850099719L174.46262298950253 83.44419433472771L196.7692055209917 97.05916459530819L198.22629355956428 87.5579473196602"></path>
<path style="fill-opacity:1;fill:#4F4EE6;" d="M198.22629355956428 87.5579473196602L196.7692055209917 97.05916459530819L214.88883793177348 114.88539584201052L215.7382721084104 100.75677596974185"></path>
<path style="fill:#4A4ADD;fill-opacity:1;" d="M215.7382721084104 100.75677596974185L214.88883793177348 114.88539584201052L226.99406176539622 134.7752780881938L227.09368074775432 116.69135545100079"></path>
<path style="fill:#3636A4;fill-opacity:1;" d="M227.09368074775432 116.69135545100079L226.99406176539622 134.7752780881938L232.32122223480457 154.50590536996086L232.00591041910852 133.67644619436092"></path>
<path style="fill-opacity:1;fill:#5247D6;" d="M207.1320958741762 88.26709122835905L215.7382721084104 100.75677596974185L227.09368074775432 116.69135545100076L216.29874477194997 101.06282322997595"></path>
<path style="fill:#8371FF;fill-opacity:1;" d="M192.60652422261643 78.86449656017518L198.22629355956428 87.5579473196602L215.7382721084104 100.75677596974185L207.1320958741762 88.26709122835905"></path>
<path style="fill:#6C5BFF;fill-opacity:1;" d="M173.27656162032213 74.26676861310371L175.77766774743196 78.75208500997192L198.22629355956428 87.5579473196602L192.60652422261643 78.86449656017518"></path>
<path style="fill:#483AA4;fill-opacity:1;" d="M150.53446295029735 75.58346361530722L175.77766774743196 78.75208500997192L173.27656162032213 74.26676861310371"></path>
<path style="fill:#36338E;fill-opacity:1;" d="M150.53446295029735 75.58346361530722L169.26816180646495 87.59260824636331L174.46262298950253 83.44419433472771"></path>
<path style="fill-opacity:1;fill:#2F2D7E;" d="M174.46262298950253 83.44419433472771L169.26816180646495 87.59260824636331L187.4713678572689 105.83304405612272L196.7692055209917 97.05916459530819"></path>
<path style="fill:#27256A;fill-opacity:1;" d="M196.7692055209917 97.05916459530819L187.4713678572689 105.83304405612272L202.81296564253174 128.40437553628843L214.88883793177348 114.88539584201052"></path>
<path style="fill:#1C1C52;fill-opacity:1;" d="M214.88883793177348 114.88539584201052L202.81296564253174 128.40437553628843L213.3482303102923 152.4987825757593L226.99406176539622 134.7752780881938"></path>
<path style="fill:#171643;fill-opacity:1;" d="M226.99406176539622 134.7752780881938L213.3482303102923 152.4987825757593L218.04798268495767 175.1439030003097L232.32122223480457 154.50590536996086"></path>
<path d="M232.32122223480457 154.50590536996086L218.04798268495767 175.1439030003097L216.95394402491405 193.9624433850431L231.11990381567443 172.2371620844987" style="fill:#161541;fill-opacity:1;"></path>
<path style="fill:#15143E;fill-opacity:1;" d="M231.11990381567443 172.2371620844987L216.95394402491405 193.9624433850431L210.93952444374722 207.58146538418995L224.33987575991682 186.73956245605942"></path>
<path style="fill:#6F5EFF;fill-opacity:1;" d="M167.5676950227251 70.61135635418378L173.27656162032213 74.26676861310371L192.60652422261643 78.86449656017518L181.51586452246394 72.04225548799518"></path>
<path style="fill:#4A3DAD;fill-opacity:1;" d="M150.53446295029735 75.58346361530722L173.27656162032213 74.26676861310371L167.5676950227251 70.61135635418378"></path>
<path style="fill:#363188;fill-opacity:1;" d="M150.53446295029735 75.58346361530722L160.84865292042116 90.44600988909208L169.26816180646495 87.59260824636331"></path>
<path style="fill:#2E2B78;fill-opacity:1;" d="M169.26816180646495 87.59260824636331L160.84865292042116 90.44600988909208L171.14627798417132 112.08964403831803L187.4713678572689 105.83304405612272"></path>
<path d="M187.4713678572689 105.83304405612272L171.14627798417132 112.08964403831803L180.0387663711777 138.34353758988183L202.81296564253174 128.40437553628843" style="fill:#272567;fill-opacity:1;"></path>
<path d="M202.81296564253174 128.40437553628843L180.0387663711777 138.34353758988183L186.24778017098907 165.80838989837318L213.3482303102923 152.4987825757593" style="fill:#1E1D54;fill-opacity:1;"></path>
<path style="fill-opacity:1;fill:#15153F;" d="M213.3482303102923 152.4987825757593L186.24778017098907 165.80838989837318L189.0143249104152 190.79660351891667L218.04798268495767 175.1439030003097"></path>
<path style="fill:#13133A;fill-opacity:1;" d="M218.04798268495767 175.1439030003097L189.0143249104152 190.79660351891667L188.29057934668077 210.41849916277056L216.95394402491405 193.9624433850431"></path>
<path style="fill:#14133A;fill-opacity:1;" d="M216.95394402491405 193.9624433850431L188.29057934668077 210.41849916277056L184.6227404615804 223.19802135935322L210.93952444374722 207.58146538418995"></path>
<path style="fill:#14133A;fill-opacity:1;" d="M210.93952444374722 207.58146538418995L184.6227404615804 223.19802135935322L178.85476680891554 229.01849427325482L201.28767867977683 215.61043921139608"></path>
<path style="fill-opacity:1;fill:#6152EB;" d="M159.59191095685475 68.22855030111964L167.5676950227251 70.61135635418378L181.51586452246394 72.04225548799518L166.8179104551033 67.71493305383161"></path>
<path style="fill:#4C3EAF;fill-opacity:1;" d="M150.53446295029735 75.58346361530722L167.5676950227251 70.61135635418378L159.59191095685475 68.22855030111964"></path>
<path style="fill:#373289;fill-opacity:1;" d="M150.53446295029735 75.58346361530722L150.5781972052265 91.43748205938348L160.84865292042116 90.44600988909208"></path>
<path style="fill:#37328A;fill-opacity:1;" d="M160.84865292042116 90.44600988909208L150.5781972052265 91.43748205938348L150.57364505858345 114.31882303771204L171.14627798417132 112.08964403831803"></path>
<path style="fill:#2F2A76;fill-opacity:1;" d="M171.14627798417132 112.08964403831803L150.57364505858345 114.31882303771204L150.51530745174756 141.96412595260168L180.0387663711777 138.34353758988183"></path>
<path style="fill:#272464;fill-opacity:1;" d="M180.0387663711777 138.34353758988183L150.51530745174756 141.96412595260168L150.40837504792617 170.73593733508125L186.24778017098907 165.80838989837318"></path>
<path style="fill:#1F1C52;fill-opacity:1;" d="M186.24778017098907 165.80838989837318L150.40837504792617 170.73593733508125L150.26839264295484 196.6418339443211L189.0143249104152 190.79660351891667"></path>
<path style="fill:#16153F;fill-opacity:1;" d="M189.0143249104152 190.79660351891667L150.26839264295484 196.6418339443211L150.1161415322246 216.56996606911395L188.29057934668077 210.41849916277056"></path>
<path style="fill:#14133A;fill-opacity:1;" d="M188.29057934668077 210.41849916277056L150.1161415322246 216.56996606911395L149.97096361178808 229.00393545429625L184.6227404615804 223.19802135935322"></path>
<path style="fill:#14133A;fill-opacity:1;" d="M184.6227404615804 223.19802135935322L149.97096361178808 229.00393545429625L149.84637916224074 233.95267648605756L178.85476680891554 229.01849427325482"></path>
<path d="M150.4546884700756 67.37712672574789L159.59191095685475 68.22855030111964L166.8179104551033 67.71493305383161L150.3528411350269 66.19012277712265" style="fill:#5448CE;fill-opacity:1;"></path>
<path style="fill:#493DAC;fill-opacity:1;" d="M150.53446295029735 75.58346361530722L159.59191095685475 68.22855030111964L150.4546884700756 67.37712672574789"></path>
<path style="fill:#38348E;fill-opacity:1;" d="M150.53446295029735 75.58346361530722L140.2940050916014 90.35882556390138L150.5781972052265 91.43748205938348"></path>
<path style="fill-opacity:1;fill:#4F49CF;" d="M150.5781972052265 91.43748205938348L140.2940050916014 90.35882556390138L129.96733538009406 111.9280783025934L150.57364505858345 114.31882303771204"></path>
<path style="fill:#4B46C6;fill-opacity:1;" d="M150.57364505858345 114.31882303771204L129.96733538009406 111.9280783025934L120.937447263179 138.13447557134657L150.51530745174756 141.96412595260168"></path>
<path style="fill:#2F2C7B;fill-opacity:1;" d="M150.51530745174756 141.96412595260168L120.937447263179 138.13447557134657L114.50009771483974 165.5835948835995L150.40837504792617 170.73593733508125"></path>
<path style="fill-opacity:1;fill:#262466;" d="M150.40837504792617 170.73593733508125L114.50009771483974 165.5835948835995L111.45013033043026 190.58212420235316L150.26839264295484 196.6418339443211"></path>
<path style="fill:#1F1D54;fill-opacity:1;" d="M150.26839264295484 196.6418339443211L111.45013033043026 190.58212420235316L111.87692957699659 210.22928917658584L150.1161415322246 216.56996606911395"></path>
<path style="fill:#161540;fill-opacity:1;" d="M150.1161415322246 216.56996606911395L111.87692957699659 210.22928917658584L115.2690518520647 223.0393564572379L149.97096361178808 229.00393545429625"></path>
<path style="fill:#14133A;fill-opacity:1;" d="M149.97096361178808 229.00393545429625L115.2690518520647 223.0393564572379L120.80448531168497 228.89067640732907L149.84637916224074 233.95267648605756"></path>
<path style="fill:#4F43BC;fill-opacity:1;" d="M141.32332220319424 68.14508789036196L150.4546884700756 67.37712672574789L150.3528411350269 66.19012277712265L133.893092231277 67.56424674390003"></path>
<path style="fill:#463BA6;fill-opacity:1;" d="M150.53446295029735 75.58346361530722L150.4546884700756 67.37712672574789L141.32332220319424 68.14508789036196"></path>
<path style="fill:#393592;fill-opacity:1;" d="M150.53446295029735 75.58346361530722L131.83762314037028 87.43225091087416L140.2940050916014 90.35882556390138"></path>
<path style="fill-opacity:1;fill:#6763FF;" d="M140.2940050916014 90.35882556390138L131.83762314037028 87.43225091087416L113.55648401344752 105.53615718677366L129.96733538009406 111.9280783025934"></path>
<path style="fill:#8C86FF;fill-opacity:1;" d="M129.96733538009406 111.9280783025934L113.55648401344752 105.53615718677366L98.0309111020034 128.01825683554313L120.937447263179 138.13447557134657"></path>
<path style="fill:#443FB2;fill-opacity:1;" d="M120.937447263179 138.13447557134657L98.0309111020034 128.01825683554313L87.23805964153027 152.07877209124354L114.50009771483974 165.5835948835995"></path>
<path d="M114.50009771483974 165.5835948835995L87.23805964153027 152.07877209124354L82.25081348693811 174.7369147742645L111.45013033043026 190.58212420235316" style="fill-opacity:1;fill:#2F2B79;"></path>
<path style="fill:#282567;fill-opacity:1;" d="M111.45013033043026 190.58212420235316L82.25081348693811 174.7369147742645L83.06687266384618 193.59831458225494L111.87692957699659 210.22928917658584"></path>
<path style="fill:#1F1D53;fill-opacity:1;" d="M111.87692957699659 210.22928917658584L83.06687266384618 193.59831458225494L88.83866103551291 207.27392293028987L115.2690518520647 223.0393564572379"></path>
<path style="fill:#15143E;fill-opacity:1;" d="M115.2690518520647 223.0393564572379L88.83866103551291 207.27392293028987L98.29485127238272 215.36324496758886L120.80448531168497 228.89067640732907"></path>
<path style="fill:#493DAB;fill-opacity:1;" d="M133.36547992267404 70.45628083219255L141.32332220319424 68.14508789036196L133.893092231277 67.56424674390003L119.21365330776976 71.76102735704013"></path>
<path style="fill:#44399E;fill-opacity:1;" d="M150.53446295029735 75.58346361530722L141.32332220319424 68.14508789036196L133.36547992267404 70.45628083219255"></path>
<path style="fill:#3D3592;fill-opacity:1;" d="M150.53446295029735 75.58346361530722L126.5937735198383 83.23617776988495L131.83762314037028 87.43225091087416"></path>
<path style="fill-opacity:1;fill:#5A4FDF;" d="M131.83762314037028 87.43225091087416L126.5937735198383 83.23617776988495L104.15482017098 96.67514750438899L113.55648401344752 105.53615718677366"></path>
<path style="fill:#655AFD;fill-opacity:1;" d="M113.55648401344752 105.53615718677366L104.15482017098 96.67514750438899L85.80864627715907 114.38394050938658L98.0309111020034 128.01825683554313"></path>
<path style="fill-opacity:1;fill:#423A9F;" d="M98.0309111020034 128.01825683554313L85.80864627715907 114.38394050938658L73.42635038148642 134.22360340246212L87.23805964153027 152.07877209124354"></path>
<path style="fill:#383085;fill-opacity:1;" d="M87.23805964153027 152.07877209124354L73.42635038148642 134.22360340246212L67.8165569345217 153.9627352988982L82.25081348693811 174.7369147742645"></path>
<path style="fill:#312A75;fill-opacity:1;" d="M82.25081348693811 174.7369147742645L67.8165569345217 153.9627352988982L68.76280009306699 171.74352334712407L83.06687266384618 193.59831458225494"></path>
<path d="M83.06687266384618 193.59831458225494L68.76280009306699 171.74352334712407L75.33230842016398 186.3184051672036L88.83866103551291 207.27392293028987" style="fill-opacity:1;fill:#282261;"></path>
<path style="fill:#42389A;fill-opacity:1;" d="M127.6872014987346 74.0624996566853L133.36547992267404 70.45628083219255L119.21365330776976 71.76102735704013L108.16125358533732 78.49174030144533"></path>
<path style="fill:#413797;fill-opacity:1;" d="M150.53446295029735 75.58346361530722L133.36547992267404 70.45628083219255L127.6872014987346 74.0624996566853"></path>
<path style="fill:#3F3591;fill-opacity:1;" d="M150.53446295029735 75.58346361530722L125.2285374860897 78.52892388662198L126.5937735198383 83.23617776988495"></path>
<path style="fill:#473BA2;fill-opacity:1;" d="M126.5937735198383 83.23617776988495L125.2285374860897 78.52892388662198L102.60627019466821 87.14807501565511L104.15482017098 96.67514750438899"></path>
<path style="fill:#463A9D;fill-opacity:1;" d="M104.15482017098 96.67514750438899L102.60627019466821 87.14807501565511L84.84679678829224 100.22102662279678L85.80864627715907 114.38394050938658"></path>
<path style="fill:#423795;fill-opacity:1;" d="M85.80864627715907 114.38394050938658L84.84679678829224 100.22102662279678L73.21473374277706 116.0975492449667L73.42635038148642 134.22360340246212"></path>
<path style="fill:#3D338A;fill-opacity:1;" d="M73.42635038148642 134.22360340246212L73.21473374277706 116.0975492449667L68.03490237023885 133.08469964612974L67.8165569345217 153.9627352988982"></path>
<path style="fill-opacity:1;fill:#423693;" d="M84.84679678829224 100.22102662279678L93.38784527412747 87.78065445504299L83.95913971970712 100.52173893370025L73.21473374277706 116.0975492449667"></path>
<path style="fill-opacity:1;fill:#443898;" d="M102.60627019466821 87.14807501565511L108.16125358533732 78.49174030144533L93.38784527412747 87.78065445504299L84.84679678829224 100.22102662279678"></path>
<path style="fill:#433796;fill-opacity:1;" d="M125.2285374860897 78.52892388662198L127.6872014987346 74.0624996566853L108.16125358533732 78.49174030144533L102.60627019466821 87.14807501565511"></path>
<path style="fill:#403591;fill-opacity:1;" d="M150.53446295029735 75.58346361530722L127.6872014987346 74.0624996566853L125.2285374860897 78.52892388662198"></path>
</g>
</svg>
