<?xml version="1.0" standalone="yes"?>
<!DOCTYPE svg PUBLIC "-//W3C//DTD SVG 1.1//EN" "http://www.w3.org/Graphics/SVG/1.1/DTD/svg11.dtd">
<svg xmlns="http://www.w3.org/2000/svg" version="1.1" id="seen-svg" width="300" height="300"><g><path style="fill:#2C7B25;fill-opacity:1;" d="M90 150L80.23255813953487 150L81.0865136644873 131.5395653590169"></path>
<path style="fill:#2B7B25;fill-opacity:1;" d="M90 150L97.36842105263159 150L96.8717715950664 164.2319049610335"></path>
<path style="fill:#2B7B25;fill-opacity:1;" d="M90 150L96.8717715950664 164.2319049610335L95.40466265599575 177.0233132799788"></path>
<path style="fill:#2C7B25;fill-opacity:1;" d="M90 150L95.40466265599575 177.0233132799788L93.05107728971713 186.82976086341827"></path>
<path style="fill:#2B7B25;fill-opacity:1;" d="M90 150L93.05107728971713 186.82976086341827L90 192"></path>
<path style="fill:#2C7B25;fill-opacity:1;" d="M90 150L90 192L86.60348876741598 190.99951741228438"></path>
<path style="fill:#2B7B25;fill-opacity:1;" d="M90 150L86.60348876741598 190.99951741228438L83.40769848316805 182.96150758415976"></path>
<path style="fill-opacity:1;fill:#2C7B25;" d="M90 150L83.40769848316805 182.96150758415976L81.0865136644873 168.4604346409831"></path>
<path style="fill:#2C7B25;fill-opacity:1;" d="M90 150L81.0865136644873 168.4604346409831L80.23255813953487 150"></path>
<path style="fill:#2C7B25;fill-opacity:1;" d="M90 150L81.0865136644873 131.5395653590169L83.40769848316805 117.03849241584024"></path>
<path style="fill:#2D7B25;fill-opacity:1;" d="M90 150L83.40769848316805 117.03849241584024L86.60348876741598 109.00048258771562"></path>
<path style="fill:#2C7B25;fill-opacity:1;" d="M90 150L86.60348876741598 109.00048258771562L90 108"></path>
<path style="fill:#2C7B25;fill-opacity:1;" d="M90 150L90 108L93.05107728971713 113.17023913658173"></path>
<path style="fill:#2B7B25;fill-opacity:1;" d="M90 150L93.05107728971713 113.17023913658173L95.40466265599575 122.9766867200212"></path>
<path style="fill:#2C7B25;fill-opacity:1;" d="M90 150L95.40466265599575 122.9766867200212L96.8717715950664 135.76809503896646"></path>
<path style="fill:#2B7B25;fill-opacity:1;" d="M90 150L96.8717715950664 135.76809503896646L97.36842105263159 150"></path>
<path style="fill-opacity:1;fill:#2C7F2A;" d="M210 150L219.7674418604651 150L218.9134863355127 168.4604346409831"></path>
<path style="fill:#2A7F2A;fill-opacity:1;" d="M210 150L203.1282284049336 164.2319049610335L202.6315789473684 150"></path>
<path style="fill:#2A7F2A;fill-opacity:1;" d="M210 150L204.59533734400424 177.0233132799788L203.1282284049336 164.2319049610335"></path>
<path style="fill:#2B7F2A;fill-opacity:1;" d="M210 150L206.9489227102829 186.82976086341827L204.59533734400424 177.0233132799788"></path>
<path style="fill:#2B7F2A;fill-opacity:1;" d="M210 150L210 192L206.9489227102829 186.82976086341827"></path>
<path style="fill-opacity:1;fill:#2A7F2A;" d="M210 150L213.39651123258403 190.99951741228438L210 192"></path>
<path style="fill:#2B7F2A;fill-opacity:1;" d="M210 150L216.59230151683195 182.96150758415976L213.39651123258403 190.99951741228438"></path>
<path style="fill:#2B7F2A;fill-opacity:1;" d="M210 150L218.9134863355127 168.4604346409831L216.59230151683195 182.96150758415976"></path>
<path style="fill:#2C7F2A;fill-opacity:1;" d="M210 150L218.9134863355127 131.5395653590169L219.7674418604651 150"></path>
<path style="fill-opacity:1;fill:#2C7F2A;" d="M210 150L216.59230151683195 117.03849241584024L218.9134863355127 131.5395653590169"></path>
<path style="fill:#2B7F2A;fill-opacity:1;" d="M210 150L213.39651123258403 109.00048258771562L216.59230151683195 117.03849241584024"></path>
<path style="fill:#2B7F2A;fill-opacity:1;" d="M210 150L210 108L213.39651123258403 109.00048258771562"></path>
<path style="fill-opacity:1;fill:#2B7F2A;" d="M210 150L206.9489227102829 113.17023913658173L210 108"></path>
<path d="M210 150L204.59533734400424 122.9766867200212L206.9489227102829 113.17023913658173" style="fill:#2B7F2A;fill-opacity:1;"></path>
<path style="fill:#2B7F2A;fill-opacity:1;" d="M210 150L203.1282284049336 135.76809503896646L204.59533734400424 122.9766867200212"></path>
<path style="fill-opacity:1;fill:#2A7F2A;" d="M210 150L202.6315789473684 150L203.1282284049336 135.76809503896646"></path>
<path d="M93.05107728971713 113.17023913658173L90 108L210 108L206.9489227102829 113.17023913658173" style="fill:#42BC3C;fill-opacity:1;"></path>
<path d="M90 192L93.05107728971713 186.82976086341827L206.9489227102829 186.82976086341827L210 192" style="fill:#133A13;fill-opacity:1;"></path>
<path style="fill:#3AAA37;fill-opacity:1;" d="M95.40466265599575 122.9766867200212L93.05107728971713 113.17023913658173L206.9489227102829 113.17023913658173L204.59533734400424 122.9766867200212"></path>
<path style="fill:#133A13;fill-opacity:1;" d="M93.05107728971713 186.82976086341827L95.40466265599575 177.0233132799788L204.59533734400424 177.0233132799788L206.9489227102829 186.82976086341827"></path>
<path style="fill:#339832;fill-opacity:1;" d="M96.8717715950664 135.76809503896646L95.40466265599575 122.9766867200212L204.59533734400424 122.9766867200212L203.1282284049336 135.76809503896646"></path>
<path style="fill:#1A4D19;fill-opacity:1;" d="M95.40466265599575 177.0233132799788L96.8717715950664 164.2319049610335L203.1282284049336 164.2319049610335L204.59533734400424 177.0233132799788"></path>
<path style="fill:#2E892D;fill-opacity:1;" d="M97.36842105263159 150L96.8717715950664 135.76809503896646L203.1282284049336 135.76809503896646L202.6315789473684 150"></path>
<path style="fill:#256F25;fill-opacity:1;" d="M96.8717715950664 164.2319049610335L97.36842105263159 150L202.6315789473684 150L203.1282284049336 164.2319049610335"></path>
<path style="fill:#133A13;fill-opacity:1;" d="M86.60348876741598 190.99951741228438L90 192L210 192L213.39651123258403 190.99951741228438"></path>
<path style="fill:#47C93F;fill-opacity:1;" d="M90 108L86.60348876741598 109.00048258771562L213.39651123258403 109.00048258771562L210 108"></path>
<path style="fill:#143A13;fill-opacity:1;" d="M83.40769848316805 182.96150758415976L86.60348876741598 190.99951741228438L213.39651123258403 190.99951741228438L216.59230151683195 182.96150758415976"></path>
<path style="fill:#41B437;fill-opacity:1;" d="M86.60348876741598 109.00048258771562L83.40769848316805 117.03849241584024L216.59230151683195 117.03849241584024L213.39651123258403 109.00048258771562"></path>
<path style="fill:#1A4C18;fill-opacity:1;" d="M81.0865136644873 168.4604346409831L83.40769848316805 182.96150758415976L216.59230151683195 182.96150758415976L218.9134863355127 168.4604346409831"></path>
<path d="M83.40769848316805 117.03849241584024L81.0865136644873 131.5395653590169L218.9134863355127 131.5395653590169L216.59230151683195 117.03849241584024" style="fill:#3CA633;fill-opacity:1;"></path>
<path style="fill:#276D21;fill-opacity:1;" d="M80.23255813953487 150L81.0865136644873 168.4604346409831L218.9134863355127 168.4604346409831L219.7674418604651 150"></path>
<path style="fill:#38982F;fill-opacity:1;" d="M81.0865136644873 131.5395653590169L80.23255813953487 150L219.7674418604651 150L218.9134863355127 131.5395653590169"></path>
</g>
</svg>
