<?xml version="1.0" standalone="yes"?>
<!DOCTYPE svg PUBLIC "-//W3C//DTD SVG 1.1//EN" "http://www.w3.org/Graphics/SVG/1.1/DTD/svg11.dtd">
<svg xmlns="http://www.w3.org/2000/svg" version="1.1" id="seen-svg" width="300" height="300"><g><path style="fill:#133A13;fill-opacity:1;" d="M150.1652909769638 198.7269231452806L150.1147401254718 177.81606020822548L163.4340765156598 179.21563713918985"></path>
<path style="fill:#133A13;fill-opacity:1;" d="M150.1652909769638 198.7269231452806L150.2288113616511 225.00276259608955L133.78261416848963 222.81707757752287"></path>
<path style="fill:#133A13;fill-opacity:1;" d="M150.1652909769638 198.7269231452806L133.78261416848963 222.81707757752287L120.64481053948735 216.7227188922153"></path>
<path style="fill:#133A13;fill-opacity:1;" d="M150.1652909769638 198.7269231452806L120.64481053948735 216.7227188922153L113.05098232386499 208.15648686628145"></path>
<path style="fill:#133A13;fill-opacity:1;" d="M150.1652909769638 198.7269231452806L113.05098232386499 208.15648686628145L111.71771188909517 198.8435965941743"></path>
<path style="fill:#133A13;fill-opacity:1;" d="M150.1652909769638 198.7269231452806L111.71771188909517 198.8435965941743L116.10452293888716 190.2902543283046"></path>
<path style="fill:#133A13;fill-opacity:1;" d="M150.1652909769638 198.7269231452806L116.10452293888716 190.2902543283046L124.96435784998525 183.56198779611884"></path>
<path style="fill:#133A14;fill-opacity:1;" d="M150.1652909769638 198.7269231452806L124.96435784998525 183.56198779611884L136.8029871427346 179.2973573388383"></path>
<path style="fill:#133A14;fill-opacity:1;" d="M150.1652909769638 198.7269231452806L136.8029871427346 179.2973573388383L150.1147401254718 177.81606020822548"></path>
<path d="M150.1652909769638 198.7269231452806L163.4340765156598 179.21563713918985L175.29474197681472 183.40791543523602" style="fill:#133A14;fill-opacity:1;"></path>
<path style="fill:#133A14;fill-opacity:1;" d="M150.1652909769638 198.7269231452806L175.29474197681472 183.40791543523602L184.1888129106698 190.082629886703"></path>
<path style="fill:#133A14;fill-opacity:1;" d="M150.1652909769638 198.7269231452806L184.1888129106698 190.082629886703L188.61803189635907 198.61023403223584"></path>
<path style="fill:#133A14;fill-opacity:1;" d="M150.1652909769638 198.7269231452806L188.61803189635907 198.61023403223584L187.3294644301531 207.93228877093827"></path>
<path style="fill:#133A14;fill-opacity:1;" d="M150.1652909769638 198.7269231452806L187.3294644301531 207.93228877093827L179.77540171094165 216.54512903074388"></path>
<path style="fill:#133A14;fill-opacity:1;" d="M150.1652909769638 198.7269231452806L179.77540171094165 216.54512903074388L166.66514692256362 222.71867193867593"></path>
<path style="fill:#133A14;fill-opacity:1;" d="M150.1652909769638 198.7269231452806L166.66514692256362 222.71867193867593L150.2288113616511 225.00276259608955"></path>
<path style="fill:#35A137;fill-opacity:1;" d="M163.4340765156598 179.21563713918985L150.1147401254718 177.81606020822548L149.78532479124615 79.63096936601151L165.50697119581878 80.37272860806155"></path>
<path style="fill:#2C862D;fill-opacity:1;" d="M150.1147401254718 177.81606020822548L136.8029871427346 179.2973573388383L134.06667148142793 80.47463098783437L149.78532479124615 79.63096936601151"></path>
<path d="M175.29474197681472 183.40791543523602L163.4340765156598 179.21563713918985L165.50697119581878 80.37272860806155L179.62366744987588 82.66704551597807" style="fill:#39AB3A;fill-opacity:1;"></path>
<path style="fill:#246D24;fill-opacity:1;" d="M136.8029871427346 179.2973573388383L124.96435784998525 183.56198779611884L119.95850792233371 82.8601848602515L134.06667148142793 80.47463098783437"></path>
<path style="fill:#37A539;fill-opacity:1;" d="M184.1888129106698 190.082629886703L175.29474197681472 183.40791543523602L179.62366744987588 82.66704551597807L190.41971111327013 86.38076067131666"></path>
<path style="fill:#21601E;fill-opacity:1;" d="M124.96435784998525 183.56198779611884L116.10452293888716 190.2902543283046L109.17519152877347 86.64322192999538L119.95850792233371 82.8601848602515"></path>
<path style="fill:#2F8E31;fill-opacity:1;" d="M188.61803189635907 198.61023403223584L184.1888129106698 190.082629886703L190.41971111327013 86.38076067131666L196.0762890928927 91.21219529799384"></path>
<path style="fill:#287424;fill-opacity:1;" d="M116.10452293888716 190.2902543283046L111.71771188909517 198.8435965941743L103.53335906530057 91.51037275567205L109.17519152877347 86.64322192999538"></path>
<path style="fill:#22621E;fill-opacity:1;" d="M133.78261416848963 222.81707757752287L150.2288113616511 225.00276259608955L149.8218447974742 106.8104373296671L129.5511660229035 105.5290821294651"></path>
<path style="fill:#184819;fill-opacity:1;" d="M150.2288113616511 225.00276259608955L166.66514692256362 222.71867193867593L170.09034048630593 105.39946117714095L149.82184479747423 106.8104373296671"></path>
<path style="fill:#2A7524;fill-opacity:1;" d="M120.64481053948735 216.7227188922153L133.78261416848963 222.81707757752287L129.5511660229035 105.5290821294651L113.59393557600347 101.91685597261866"></path>
<path style="fill:#133A14;fill-opacity:1;" d="M166.66514692256362 222.71867193867593L179.77540171094165 216.54512903074388L186.04087282197412 101.68474902442823L170.09034048630593 105.39946117714095"></path>
<path style="fill:#2D7F27;fill-opacity:1;" d="M113.05098232386499 208.15648686628145L120.64481053948735 216.7227188922153L113.59393557600347 101.91685597261866L104.7005672511878 96.891388077953"></path>
<path style="fill:#164217;fill-opacity:1;" d="M179.77540171094165 216.54512903074388L187.3294644301531 207.93228877093827L194.92318245755803 96.60153497209927L186.04087282197412 101.68474902442823"></path>
<path style="fill:#2D7F26;fill-opacity:1;" d="M111.71771188909517 198.8435965941743L113.05098232386499 208.15648686628145L104.7005672511878 96.891388077953L103.53335906530057 91.51037275567205"></path>
<path style="fill:#267428;fill-opacity:1;" d="M187.3294644301531 207.93228877093827L188.61803189635907 198.61023403223584L196.0762890928927 91.21219529799384L194.92318245755803 96.60153497209927"></path>
<path style="fill:#45C63E;fill-opacity:1;" d="M149.80108638028295 91.36129606986562L149.78532479124615 79.63096936601151L134.06667148142793 80.47463098783437"></path>
<path style="fill:#47C63D;fill-opacity:1;" d="M149.80108638028295 91.36129606986562L129.5511660229035 105.5290821294651L149.8218447974742 106.8104373296671"></path>
<path style="fill:#47C63D;fill-opacity:1;" d="M149.80108638028295 91.36129606986562L113.59393557600347 101.91685597261866L129.5511660229035 105.5290821294651"></path>
<path style="fill:#46C63D;fill-opacity:1;" d="M149.80108638028295 91.36129606986562L104.7005672511878 96.891388077953L113.59393557600347 101.91685597261866"></path>
<path style="fill:#45C63D;fill-opacity:1;" d="M149.80108638028295 91.36129606986562L103.53335906530057 91.51037275567205L104.7005672511878 96.891388077953"></path>
<path style="fill:#45C63F;fill-opacity:1;" d="M149.80108638028295 91.36129606986562L109.17519152877347 86.64322192999538L103.53335906530057 91.51037275567205"></path>
<path style="fill:#45C63F;fill-opacity:1;" d="M149.80108638028295 91.36129606986562L119.95850792233371 82.8601848602515L109.17519152877347 86.64322192999538"></path>
<path style="fill:#45C63E;fill-opacity:1;" d="M149.80108638028295 91.36129606986562L134.06667148142793 80.47463098783437L119.95850792233371 82.8601848602515"></path>
<path style="fill:#45C640;fill-opacity:1;" d="M149.80108638028295 91.36129606986562L165.50697119581878 80.37272860806155L149.78532479124615 79.63096936601151"></path>
<path d="M149.80108638028295 91.36129606986562L179.62366744987588 82.66704551597807L165.50697119581878 80.37272860806155" style="fill:#45C640;fill-opacity:1;"></path>
<path style="fill:#45C640;fill-opacity:1;" d="M149.80108638028295 91.36129606986562L190.41971111327013 86.38076067131666L179.62366744987588 82.66704551597807"></path>
<path style="fill:#45C640;fill-opacity:1;" d="M149.80108638028295 91.36129606986562L196.0762890928927 91.21219529799384L190.41971111327013 86.38076067131666"></path>
<path style="fill:#45C641;fill-opacity:1;" d="M149.80108638028295 91.36129606986562L194.92318245755803 96.60153497209927L196.0762890928927 91.21219529799384"></path>
<path style="fill:#45C640;fill-opacity:1;" d="M149.80108638028295 91.36129606986562L186.04087282197412 101.68474902442823L194.92318245755803 96.60153497209927"></path>
<path style="fill-opacity:1;fill:#45C641;" d="M149.80108638028295 91.36129606986562L170.09034048630593 105.39946117714095L186.04087282197412 101.68474902442823"></path>
<path d="M149.80108638028295 91.36129606986562L149.82184479747423 106.8104373296671L170.09034048630593 105.39946117714095" style="fill:#45C641;fill-opacity:1;"></path>
</g>
</svg>
