<?xml version="1.0" standalone="yes"?>
<!DOCTYPE svg PUBLIC "-//W3C//DTD SVG 1.1//EN" "http://www.w3.org/Graphics/SVG/1.1/DTD/svg11.dtd">
<svg xmlns="http://www.w3.org/2000/svg" version="1.1" id="seen-svg" width="300" height="300"><g><path style="fill:#349A33;fill-opacity:1;" d="M150 112.99916360958714L113.22214598760924 112.99916360958716L114.86072396502365 101.40136552940973"></path>
<path style="fill:#339A33;fill-opacity:1;" d="M150 112.99916360958714L186.77785401239078 112.99916360958714L182.89159831946407 123.85511054098512"></path>
<path style="fill-opacity:1;fill:#339A33;" d="M150 112.99916360958714L182.89159831946407 123.85511054098512L174.50960132284757 132.5288228691293"></path>
<path style="fill:#339A33;fill-opacity:1;" d="M150 112.99916360958714L174.50960132284757 132.5288228691293L163.03459199837278 138.07362113777415"></path>
<path style="fill:#339A33;fill-opacity:1;" d="M150 112.99916360958714L163.03459199837278 138.07362113777415L150 139.9753726095169"></path>
<path style="fill:#349A33;fill-opacity:1;" d="M150 112.99916360958714L150 139.9753726095169L136.96540800162722 138.07362113777415"></path>
<path d="M150 112.99916360958714L136.96540800162722 138.07362113777415L125.49039867715243 132.5288228691293" style="fill:#349A33;fill-opacity:1;"></path>
<path style="fill:#349A33;fill-opacity:1;" d="M150 112.99916360958714L125.49039867715243 132.5288228691293L117.10840168053593 123.85511054098512"></path>
<path style="fill:#349A33;fill-opacity:1;" d="M150 112.99916360958714L117.10840168053593 123.85511054098512L113.22214598760924 112.99916360958716"></path>
<path d="M150 112.99916360958714L114.86072396502365 101.40136552940973L122.30329418244467 90.9299663140601" style="fill:#349A33;fill-opacity:1;"></path>
<path style="fill:#349A33;fill-opacity:1;" d="M150 112.99916360958714L122.30329418244467 90.9299663140601L134.70580777898985 83.57794556750945"></path>
<path style="fill:#349A33;fill-opacity:1;" d="M150 112.99916360958714L134.70580777898985 83.57794556750945L150 80.92480722284563"></path>
<path d="M150 112.99916360958714L150 80.92480722284563L165.29419222101012 83.57794556750945" style="fill:#339A33;fill-opacity:1;"></path>
<path style="fill:#339A33;fill-opacity:1;" d="M150 112.99916360958714L165.29419222101012 83.57794556750945L177.6967058175553 90.9299663140601"></path>
<path d="M150 112.99916360958714L177.6967058175553 90.9299663140601L185.13927603497635 101.4013655294097" style="fill-opacity:1;fill:#339A33;"></path>
<path style="fill:#339A33;fill-opacity:1;" d="M150 112.99916360958714L185.13927603497635 101.4013655294097L186.77785401239078 112.99916360958713"></path>
<path style="fill:#328B2A;fill-opacity:1;" d="M114.86072396502365 101.40136552940973L113.22214598760924 112.99916360958716L101.04943082540433 199.24735414514913L102.69538157163339 187.60151780093474"></path>
<path style="fill:#256820;fill-opacity:1;" d="M113.22214598760924 112.99916360958716L117.10840168053593 123.85511054098512L106.68051679907128 209.91209743312027L101.04943082540433 199.24735414514913"></path>
<path d="M117.10840168053593 123.85511054098512L125.49039867715243 132.5288228691293L117.9878365640642 218.27380790252585L106.68051679907128 209.91209743312027" style="fill:#153D14;fill-opacity:1;"></path>
<path style="fill:#143A13;fill-opacity:1;" d="M125.49039867715243 132.5288228691293L136.96540800162722 138.07362113777415L133.06527684978846 223.54681349808598L117.9878365640642 218.27380790252585"></path>
<path style="fill:#143A13;fill-opacity:1;" d="M136.96540800162722 138.07362113777415L150 139.9753726095169L150 225.34255040662225L133.06527684978846 223.54681349808598"></path>
<path style="fill:#184717;fill-opacity:1;" d="M150 139.9753726095169L163.03459199837278 138.07362113777415L166.93472315021154 223.54681349808598L150 225.34255040662225"></path>
<path d="M163.03459199837278 138.07362113777415L174.50960132284757 132.5288228691293L182.0121634359358 218.27380790252585L166.93472315021154 223.54681349808598" style="fill:#1F5F1F;fill-opacity:1;"></path>
<path style="fill:#267226;fill-opacity:1;" d="M174.50960132284757 132.5288228691293L182.89159831946407 123.85511054098512L193.31948320092872 209.91209743312027L182.0121634359358 218.27380790252585"></path>
<path style="fill:#2D872D;fill-opacity:1;" d="M186.77785401239078 112.99916360958713L185.13927603497635 101.4013655294097L197.3046184283666 187.60151780093472L198.95056917459567 199.2473541451491"></path>
<path style="fill-opacity:1;fill:#297C29;" d="M182.89159831946407 123.85511054098512L186.77785401239078 112.99916360958714L198.95056917459567 199.24735414514913L193.31948320092872 209.91209743312027"></path>
<path d="M185.13927603497635 101.4013655294097L177.6967058175553 90.9299663140601L187.67448128819973 176.85549745300136L197.3046184283666 187.60151780093472" style="fill:#50F150;fill-opacity:1;"></path>
<path d="M177.6967058175553 90.9299663140601L165.29419222101012 83.57794556750945L170.95749148049177 169.1756660606959L187.67448128819973 176.85549745300136" style="fill:#5AFF56;fill-opacity:1;"></path>
<path style="fill:#38A031;fill-opacity:1;" d="M165.29419222101012 83.57794556750945L150 80.92480722284563L150 166.37631918311547L170.95749148049177 169.1756660606959"></path>
<path style="fill:#3CA833;fill-opacity:1;" d="M150 80.92480722284563L134.70580777898985 83.57794556750945L129.0425085195082 169.1756660606959L150 166.37631918311547"></path>
<path style="fill-opacity:1;fill:#3EAC34;" d="M134.70580777898985 83.57794556750945L122.30329418244467 90.9299663140601L112.32551871180026 176.85549745300136L129.0425085195082 169.1756660606959"></path>
<path style="fill:#3AA331;fill-opacity:1;" d="M122.30329418244467 90.9299663140601L114.86072396502365 101.40136552940973L102.69538157163339 187.60151780093474L112.32551871180026 176.85549745300136"></path>
<path style="fill:#143A13;fill-opacity:1;" d="M150 199.24735414514913L101.04943082540433 199.24735414514913L106.68051679907128 209.91209743312027"></path>
<path d="M150 199.24735414514913L193.31948320092872 209.91209743312027L198.95056917459567 199.24735414514913" style="fill:#133A13;fill-opacity:1;"></path>
<path d="M150 199.24735414514913L182.0121634359358 218.27380790252585L193.31948320092872 209.91209743312027" style="fill-opacity:1;fill:#133A13;"></path>
<path style="fill-opacity:1;fill:#133A13;" d="M150 199.24735414514913L166.93472315021154 223.54681349808598L182.0121634359358 218.27380790252585"></path>
<path style="fill-opacity:1;fill:#143A13;" d="M150 199.24735414514913L150 225.34255040662225L166.93472315021154 223.54681349808598"></path>
<path style="fill:#143A13;fill-opacity:1;" d="M150 199.24735414514913L133.06527684978846 223.54681349808598L150 225.34255040662225"></path>
<path d="M150 199.24735414514913L117.9878365640642 218.27380790252585L133.06527684978846 223.54681349808598" style="fill:#143A13;fill-opacity:1;"></path>
<path style="fill:#143A13;fill-opacity:1;" d="M150 199.24735414514913L106.68051679907128 209.91209743312027L117.9878365640642 218.27380790252585"></path>
<path style="fill:#143A13;fill-opacity:1;" d="M150 199.24735414514913L102.69538157163339 187.60151780093474L101.04943082540433 199.24735414514913"></path>
<path d="M150 199.24735414514913L112.32551871180026 176.85549745300136L102.69538157163339 187.60151780093474" style="fill:#133A13;fill-opacity:1;"></path>
<path style="fill:#143A13;fill-opacity:1;" d="M150 199.24735414514913L129.0425085195082 169.1756660606959L112.32551871180026 176.85549745300136"></path>
<path style="fill:#133A13;fill-opacity:1;" d="M150 199.24735414514913L150 166.37631918311547L129.0425085195082 169.1756660606959"></path>
<path style="fill:#133A13;fill-opacity:1;" d="M150 199.24735414514913L170.95749148049177 169.1756660606959L150 166.37631918311547"></path>
<path style="fill:#133A13;fill-opacity:1;" d="M150 199.24735414514913L187.67448128819973 176.85549745300136L170.95749148049177 169.1756660606959"></path>
<path d="M150 199.24735414514913L197.3046184283666 187.60151780093472L187.67448128819973 176.85549745300136" style="fill:#133A13;fill-opacity:1;"></path>
<path style="fill:#133A13;fill-opacity:1;" d="M150 199.24735414514913L198.95056917459567 199.2473541451491L197.3046184283666 187.60151780093472"></path>
</g>
</svg>
