<?xml version="1.0" standalone="yes"?>
<!DOCTYPE svg PUBLIC "-//W3C//DTD SVG 1.1//EN" "http://www.w3.org/Graphics/SVG/1.1/DTD/svg11.dtd">
<svg height="300" xmlns="http://www.w3.org/2000/svg" version="1.1" id="seen-svg" width="300"><g><path style="fill:#27274E;fill-opacity:1;" d="M104.93093715666137 180.4082545070376L110.99663388280916 178.19674796922445L129.65035579739515 177.38684686507295L154.66263742146796 183.63953538214588"></path>
<path style="fill:#27274E;fill-opacity:1;" d="M217.78271516260315 209.8554598441446L217.94185398507804 209.9283335790299L217.91366838403752 209.97965077872567"></path>
<path style="fill:#27274E;fill-opacity:1;" d="M169.83933016793856 296.9489920622208L170.13796176511931 296.9643304258543L170.07100795553544 297.0862324570322"></path>
<path style="fill:#27274E;fill-opacity:1;" d="M114.76606136124796 162.73801404997735L114.81981395458672 162.70611533495565L114.94308679596887 162.76256512025464"></path>
<path style="fill:#27274E;fill-opacity:1;" d="M29.25567290445612 213.6705870540897L29.097431652803394 213.57684871137872L29.21001389499449 213.51003837466575"></path>
<path style="fill:#27274E;fill-opacity:1;" d="M106.55420419551469 167.61122435032382L114.76606136124796 162.73801404997735L114.94308679596887 162.76256512025464L133.44092654063317 171.23319880058298"></path>
<path style="fill:#27274E;fill-opacity:1;" d="M98.79998906064839 172.21285347071517L106.55420419551469 167.61122435032382L125.4287974526757 170.1538657946382"></path>
<path style="fill:#27274E;fill-opacity:1;" d="M34.84345924033201 216.98065838553777L29.25567290445612 213.6705870540897L29.21001389499449 213.51003837466575L56.58750246106396 197.26325563293574"></path>
<path style="fill:#27284E;fill-opacity:1;" d="M49.10805023048937 225.43066181322806L34.84345924033201 216.98065838553777L56.58750246106396 197.26325563293574L56.96579199419868 197.03876506859936"></path>
<path style="fill-opacity:1;fill:#27274E;" d="M53.26549580617001 227.89343339841946L49.10805023048937 225.43066181322806L50.529878416146246 220.29325716826844"></path>
<path d="M108.09458598043477 171.49417840909757L125.4287974526757 170.1538657946382L133.44092654063317 171.23319880058298L149.28233319486077 178.4873838622621" style="fill:#27284E;fill-opacity:1;"></path>
<path d="M86.95775405187298 179.2404600716557L98.79998906064839 172.21285347071517L108.09458598043477 171.49417840909757L140.12259934219156 176.9321664721353" style="fill:#27274E;fill-opacity:1;"></path>
<path style="fill:#27274E;fill-opacity:1;" d="M56.701924016030475 197.9921830626808L56.96579199419868 197.03876506859936L86.95775405187298 179.2404600716557L110.99663388280916 178.19674796922445"></path>
<path style="fill:#27274E;fill-opacity:1;" d="M52.411431661669354 225.52064616811097L50.529878416146246 220.29325716826844L56.701924016030475 197.9921830626808L86.76098343884269 187.03288037491177"></path>
<path style="fill-opacity:1;fill:#27274E;" d="M69.05592312534343 237.2473058693355L53.26549580617001 227.89343339841946L52.411431661669354 225.52064616811097L71.11433408725921 204.56453783578866"></path>
<path style="fill-opacity:1;fill:#27274E;" d="M74.25416290402393 240.32661911274465L69.05592312534343 237.2473058693355L69.42890501728816 231.3252228253363"></path>
<path style="fill:#27274E;fill-opacity:1;" d="M129.65035579739515 177.38684686507295L140.12259934219156 176.9321664721353L149.28233319486077 178.4873838622621L167.59118379293668 186.87147458122817"></path>
<path style="fill:#27274E;fill-opacity:1;" d="M83.45277307174817 190.73964274052668L86.76098343884269 187.03288037491177L104.93093715666137 180.4082545070376L117.26207472817941 181.20946115774552"></path>
<path style="fill:#27274E;fill-opacity:1;" d="M70.01753176411155 221.9792021420492L71.11433408725921 204.56453783578866L83.45277307174817 190.73964274052668L90.2688089137425 188.8183354059638"></path>
<path style="fill:#27274E;fill-opacity:1;" d="M90.72387432279343 250.0828832802696L74.25416290402393 240.32661911274465L69.42890501728816 231.3252228253363L70.01753176411155 221.9792021420492L78.27146793352655 208.4636260457972"></path>
<path style="fill:#27274E;fill-opacity:1;" d="M99.01840631155949 254.996366168389L90.72387432279343 250.0828832802696L88.43022636656423 242.41690119524026"></path>
<path style="fill:#27274E;fill-opacity:1;" d="M147.45075644192184 183.17094868676486L154.66263742146796 183.63953538214588L167.59118379293668 186.87147458122817L217.78271516260315 209.8554598441446L217.91366838403752 209.97965077872567"></path>
<path style="fill:#27274E;fill-opacity:1;" d="M133.36170285894258 182.25552272809773L147.45075644192184 183.17094868676486L182.8088771316184 196.62349127938953"></path>
<path style="fill:#27274E;fill-opacity:1;" d="M143.44506104183483 281.3136566543672L99.01840631155949 254.996366168389L88.43022636656423 242.41690119524026L82.21517088004371 221.64453118626204"></path>
<path style="fill:#27274E;fill-opacity:1;" d="M169.83933016793856 296.9489920622208L143.44506104183483 281.3136566543672L126.08778389514012 264.39882069575077L170.13796176511931 296.9643304258543"></path>
<path style="fill:#27274E;fill-opacity:1;" d="M167.56645846851734 192.194469900142L182.8088771316184 196.62349127938953L217.91366838403752 209.97965077872567L213.58221061260662 217.86588613382537"></path>
<path d="M158.17648148036957 189.46600470374727L167.56645846851734 192.194469900142L213.58221061260662 217.86588613382537L209.44508492173458 225.39830330456195" style="fill:#27274E;fill-opacity:1;"></path>
<path style="fill:#27274E;fill-opacity:1;" d="M137.37486871938498 272.74316091052555L186.0869810190975 267.9261344749475L170.13796176511931 296.9643304258543"></path>
<path style="fill-opacity:1;fill:#27274E;" d="M137.37486871938498 272.74316091052555L126.08778389514012 264.39882069575077L102.9295925551312 241.83093724813887L186.30281244891822 267.53317267261383L186.0869810190975 267.9261344749475"></path>
<path style="fill:#27274E;fill-opacity:1;" d="M177.88736122176638 203.28064307911552L209.44508492173458 225.39830330456195L203.0368777448096 237.06565242078665"></path>
<path style="fill:#27274E;fill-opacity:1;" d="M184.313249918705 266.91983178679465L186.09616160840005 214.30806770146268L203.0368777448096 237.06565242078665L186.30281244891822 267.53317267261383"></path>
<path style="fill-opacity:1;fill:#27274E;" d="M185.32043688226963 237.1988516489913L184.313249918705 266.91983178679465L150.72578315415942 256.5655120280778"></path>
<path style="fill-opacity:1;fill:#27274E;" d="M158.53854110505543 252.1918006723239L150.72578315415942 256.5655120280778L137.0328486924162 252.34426417851677"></path>
<path style="fill:#6E70DC;fill-opacity:1;" d="M215.8529015086816 166.50035996954907L225.9531933478446 150.4583237658659L224.51659851148008 160.90197431486692"></path>
<path style="fill:#6E70DC;fill-opacity:1;" d="M217.7827151626032 209.8554598441446L235.48495494989598 81.16503050851084L264.3375506852153 89.87537848601806L217.94185398507804 209.9283335790299"></path>
<path style="fill:#6E70DC;fill-opacity:1;" d="M228.70610451773783 130.44541440336084L213.33172427076337 74.47716263653902L235.48495494989598 81.16503050851084"></path>
<path d="M223.08187319789857 109.97119759286184L190.07904657992205 67.45738126386644L213.33172427076337 74.47716263653902" style="fill:#6E70DC;fill-opacity:1;"></path>
<path style="fill:#6E71DC;fill-opacity:1;" d="M209.90039540171787 92.99098761089891L136.49583178994087 51.46943962522286L136.53049807072284 51.291539705473014L190.07904657992205 67.45738126386644"></path>
<path style="fill:#6E70DC;fill-opacity:1;" d="M191.7593722541996 82.72945445728321L131.59172499968037 76.63626412304893L136.49583178994087 51.46943962522286"></path>
<path style="fill:#6E71DC;fill-opacity:1;" d="M172.22261756740573 80.75096318744323L127.8146526716769 96.01938942187826L131.59172499968037 76.63626412304893"></path>
<path style="fill:#6E71DC;fill-opacity:1;" d="M154.7345909962222 86.76372788663431L123.86401932847932 116.29319263533395L127.8146526716769 96.01938942187826"></path>
<path style="fill:#6E71DC;fill-opacity:1;" d="M141.8415503955751 99.09665751353157L114.94308679596887 162.76256512025464L114.81981395458672 162.70611533495565L123.86401932847932 116.29319263533395"></path>
<path style="fill:#6E70DC;fill-opacity:1;" d="M134.94881478840125 115.4110565385497L133.44092654063317 171.233198800583L114.94308679596887 162.76256512025464"></path>
<path style="fill:#6E70DC;fill-opacity:1;" d="M134.46655190076783 133.26446680354712L149.28233319486074 178.4873838622621L133.44092654063317 171.233198800583"></path>
<path style="fill:#6E6FDC;fill-opacity:1;" d="M140.0808777462485 150.4013418026402L167.59118379293668 186.87147458122817L149.28233319486074 178.4873838622621"></path>
<path style="fill:#6E6FDC;fill-opacity:1;" d="M150.96822064759925 164.8345814963178L217.80844889427465 209.6683826710298L217.7827151626032 209.8554598441446L167.59118379293668 186.87147458122817"></path>
<path style="fill:#6E6FDC;fill-opacity:1;" d="M165.88839626157989 174.84244957989617L220.78451015592276 188.03323332876585L217.80844889427465 209.6683826710298"></path>
<path style="fill:#6E70DC;fill-opacity:1;" d="M183.17368845509816 178.99586837743732L222.86771577941047 172.88889965673633L220.78451015592276 188.03323332876585"></path>
<path d="M200.6849120486961 176.30174782691805L224.51659851148008 160.90197431486692L222.86771577941047 172.88889965673633" style="fill:#6E70DC;fill-opacity:1;"></path>
<path style="fill:#524E90;fill-opacity:1;" d="M119.57971066563509 51.511952438458266L127.84732154927082 51.40444789211645L130.52734286436092 69.46388144753068"></path>
<path style="fill-opacity:1;fill:#524E90;" d="M136.47445595412267 51.292268426551686L136.53049807072284 51.291539705473014L136.49583178994087 51.46943962522286"></path>
<path d="M39.50441434384362 52.83199599212149L39.52248077275273 52.55294436492318L39.66075914988707 52.55114631777123" style="fill:#524E90;fill-opacity:1;"></path>
<path style="fill:#524E90;fill-opacity:1;" d="M127.84732154927082 51.40444789211645L136.47445595412267 51.292268426551686L136.49583178994087 51.46943962522286L131.59172499968037 76.63626412304893"></path>
<path d="M38.880315028190566 62.47174994916509L39.50441434384362 52.83199599212149L39.66075914988707 52.55114631777123L72.38984813154765 52.12556679876906" style="fill:#524E90;fill-opacity:1;"></path>
<path style="fill:#524E90;fill-opacity:1;" d="M37.400566105891514 85.32775246574728L38.880315028190566 62.47174994916509L72.38984813154765 52.12556679876906L72.82990611183446 52.11984468216238"></path>
<path d="M36.99737210598555 91.55543267395686L37.400566105891514 85.32775246574728L43.56785678626541 79.54715310504606" style="fill:#524E90;fill-opacity:1;"></path>
<path style="fill:#524E90;fill-opacity:1;" d="M123.53729474673202 58.00159943989445L130.52734286436092 69.46388144753068L131.59172499968037 76.63626412304893L127.8146526716769 96.01938942187826"></path>
<path d="M106.72015943839652 51.67916643054154L119.57971066563509 51.511952438458266L123.53729474673202 58.00159943989445L126.93672129619829 88.21620548515634" style="fill:#524E90;fill-opacity:1;"></path>
<path style="fill:#524E90;fill-opacity:1;" d="M71.58482756122932 53.286856364708L72.82990611183446 52.11984468216238L106.72015943839652 51.67916643054154L116.41760044626409 69.2051821460944"></path>
<path d="M39.01615417494715 87.86588758673466L43.56785678626541 79.54715310504606L71.58482756122932 53.286856364708L97.27227198822777 62.40744120849561" style="fill:#524E90;fill-opacity:1;"></path>
<path style="fill:#524E90;fill-opacity:1;" d="M35.56826257094377 113.62926603660426L36.99737210598555 91.55543267395686L39.01615417494715 87.86588758673466L70.6084561389095 74.05976806307294"></path>
<path style="fill:#524E90;fill-opacity:1;" d="M35.13028829725796 120.39415766836018L35.56826257094377 113.62926603660426L41.580214908403136 106.84020719842624"></path>
<path d="M123.29647126658591 81.63724520318424L126.93672129619829 88.21620548515634L127.8146526716769 96.01938942187826L123.86401932847932 116.29319263533394" style="fill:#524E90;fill-opacity:1;"></path>
<path style="fill:#524E90;fill-opacity:1;" d="M111.7481614916073 67.54725100078853L116.41760044626409 69.2051821460944L123.29647126658591 81.63724520318424L123.68253765738368 105.21145405550843"></path>
<path style="fill-opacity:1;fill:#524E90;" d="M91.61675830325031 64.87895145145198L97.27227198822777 62.40744120849561L111.7481614916073 67.54725100078853L114.95955602595978 77.68222698533359"></path>
<path d="M51.36106904125171 95.79507735236915L70.6084561389095 74.05976806307294L91.61675830325031 64.87895145145198L96.52693427589871 67.57213059152146" style="fill-opacity:1;fill:#524E90;"></path>
<path style="fill:#524E90;fill-opacity:1;" d="M33.83649303968271 140.37794492947103L35.13028829725796 120.39415766836018L41.580214908403136 106.84020719842624L51.36106904125171 95.79507735236915L69.46489107952826 84.48248092806345"></path>
<path style="fill:#524E90;fill-opacity:1;" d="M33.23400181785287 149.68394318015146L33.83649303968271 140.37794492947103L39.821614102870726 130.98821265586858"></path>
<path style="fill:#524E90;fill-opacity:1;" d="M114.76606136124796 162.73801404997735L122.10877601112409 100.24475304147224L123.68253765738368 105.21145405550843L123.86401932847932 116.29319263533394L114.81981395458672 162.70611533495565"></path>
<path style="fill:#524E90;fill-opacity:1;" d="M118.09890500026857 134.37244663175227L118.89032427884493 90.08750494718174L122.10877601112409 100.24475304147224"></path>
<path style="fill:#524E90;fill-opacity:1;" d="M30.462972770495597 192.48488455979987L33.23400181785287 149.68394318015146L39.821614102870726 130.98821265586858L57.302491913599525 103.56341024713166"></path>
<path d="M29.210013894994475 213.51003837466575L29.097431652803394 213.57684871137872L30.462972770495597 192.48488455979987L36.89495986463895 171.17519670280876" style="fill:#524E90;fill-opacity:1;"></path>
<path d="M118.32250911016105 121.86037466803661L118.09890500026857 134.37244663175227L114.76606136124796 162.73801404997735L106.55420419551467 167.61122435032382" style="fill:#524E90;fill-opacity:1;"></path>
<path style="fill-opacity:1;fill:#524F90;" d="M118.46873003940037 113.67838378189745L118.32250911016105 121.86037466803661L106.55420419551467 167.61122435032382L98.79998906064839 172.21285347071517"></path>
<path style="fill:#524F90;fill-opacity:1;" d="M56.58750246106395 197.26325563293577L29.210013894994475 213.51003837466575L34.73225250911682 183.08912216698812"></path>
<path style="fill:#524F90;fill-opacity:1;" d="M56.965791994198696 197.03876506859936L56.58750246106395 197.26325563293577L34.73225250911682 183.08912216698812L36.89495986463895 171.17519670280876L46.8108018058135 138.32321899935638"></path>
<path style="fill:#524F90;fill-opacity:1;" d="M110.17019842994272 138.37493896457272L98.79998906064839 172.21285347071517L86.95775405187298 179.24046007165566"></path>
<path style="fill-opacity:1;fill:#524F90;" d="M102.06667896296359 152.6411894475402L86.95775405187298 179.24046007165566L56.965791994198696 197.03876506859936L56.76505938632134 195.87814113231008"></path>
<path style="fill:#524F90;fill-opacity:1;" d="M81.40429372574461 172.36186523226138L56.76505938632134 195.87814113231008L53.10263554074133 174.70222544543907"></path>
<path style="fill:#524F90;fill-opacity:1;" d="M59.625290570480104 174.16284495345175L53.10263554074133 174.70222544543907L51.444139838520385 165.11290246206744"></path>
<path style="fill:#3C3B6E;fill-opacity:1;" d="M134.94881478840125 115.41105653854964L126.39073380964007 113.93516026185486L126.03752256508866 134.5779801371388L134.46655190076783 133.26446680354712"></path>
<path style="fill:#27274E;fill-opacity:1;" d="M118.46873003940037 113.67838378189744L110.17019842994273 138.37493896457272L126.03752256508866 134.5779801371388L126.39073380964007 113.93516026185486"></path>
<path style="fill:#4F519E;fill-opacity:1;" d="M57.302491913599454 103.56341024713171L51.587142827511016 116.86300678308899L44.381720624813155 143.49909347719253L46.8108018058135 138.32321899935633"></path>
<path style="fill:#595BB3;fill-opacity:1;" d="M46.8108018058135 138.32321899935633L44.381720624813155 143.49909347719253L46.68096178615647 172.2179891370214L51.44413983852037 165.11290246206747"></path>
<path style="fill:#27284E;fill-opacity:1;" d="M118.89032427884493 90.08750494718177L118.46873003940037 113.67838378189744L126.39073380964007 113.93516026185486L134.11303731777716 94.90161146828976"></path>
<path style="fill:#31315D;fill-opacity:1;" d="M141.8415503955751 99.09665751353155L134.11303731777716 94.90161146828976L126.39073380964007 113.93516026185486L134.94881478840125 115.41105653854964"></path>
<path style="fill:#4A4984;fill-opacity:1;" d="M134.46655190076783 133.26446680354712L126.03752256508866 134.5779801371388L132.6011919569367 154.3151019763018L140.08087774624852 150.40134180264022"></path>
<path style="fill:#3B3A6D;fill-opacity:1;" d="M110.17019842994273 138.37493896457272L102.0666789629636 152.6411894475402L107.45082583630413 168.0494285423661L132.6011919569367 154.3151019763018L126.03752256508866 134.5779801371388"></path>
<path d="M81.40429372574461 172.36186523226138L84.62617404839071 181.18601924024293L107.45082583630413 168.0494285423661L102.0666789629636 152.6411894475402" style="fill:#3A3C74;fill-opacity:1;"></path>
<path style="fill:#2A2B55;fill-opacity:1;" d="M81.93676686473914 69.05371537257068L69.46489107952823 84.48248092806347L96.5269342758987 67.57213059152149L103.02073310073487 59.868823750935846"></path>
<path style="fill:#777AEE;fill-opacity:1;" d="M59.62529057048009 174.16284495345172L66.56060146130558 192.51469395101844L84.62617404839071 181.18601924024293L81.40429372574461 172.36186523226138"></path>
<path style="fill:#27284E;fill-opacity:1;" d="M103.02073310073487 59.868823750935846L96.5269342758987 67.57213059152149L114.95955602595981 77.68222698533361L126.476858240522 65.08913730264108"></path>
<path style="fill:#6265C4;fill-opacity:1;" d="M51.44413983852037 165.11290246206747L46.68096178615647 172.2179891370214L57.34009056824989 199.91419047863585L66.56060146130558 192.51469395101844L59.62529057048009 174.16284495345172"></path>
<path style="fill:#27284E;fill-opacity:1;" d="M126.476858240522 65.08913730264108L114.95955602595981 77.68222698533361L118.89032427884493 90.08750494718177L134.11303731777716 94.90161146828976L148.88604164798727 80.29949707840055"></path>
<path style="fill:#2A2B53;fill-opacity:1;" d="M154.73459099622215 86.76372788663434L148.88604164798727 80.29949707840055L134.11303731777716 94.90161146828976L141.8415503955751 99.09665751353155"></path>
<path style="fill:#5B5AA0;fill-opacity:1;" d="M140.08087774624852 150.40134180264022L132.6011919569367 154.3151019763018L145.13110437414613 170.97006607873323L150.96822064759925 164.8345814963178"></path>
<path style="fill:#504F8E;fill-opacity:1;" d="M107.45082583630413 168.0494285423661L117.26207472817944 181.2094611577455L133.36170285894258 182.25552272809773L145.13110437414613 170.97006607873323L132.6011919569367 154.3151019763018"></path>
<path style="fill:#7072D3;fill-opacity:1;" d="M84.62617404839071 181.18601924024293L90.26880891374246 188.8183354059638L117.26207472817944 181.2094611577455L107.45082583630413 168.0494285423661"></path>
<path style="fill:#27284E;fill-opacity:1;" d="M100.06758534848441 61.041591160210345L81.93676686473914 69.05371537257068L103.02073310073487 59.868823750935846L111.90295751073467 55.946283525321476"></path>
<path style="fill-opacity:1;fill:#BDC4FF;" d="M66.56060146130558 192.51469395101844L78.27146793352654 208.4636260457972L90.26880891374246 188.8183354059638L84.62617404839071 181.18601924024293"></path>
<path style="fill:#27284E;fill-opacity:1;" d="M111.90295751073467 55.946283525321476L103.02073310073487 59.868823750935846L126.476858240522 65.08913730264108L142.3622516934361 58.5891555797929"></path>
<path d="M57.34009056824989 199.91419047863585L74.97927143963956 224.02836632907344L82.2151708800437 221.64453118626204L78.27146793352654 208.4636260457972L66.56060146130558 192.51469395101844" style="fill:#676CCF;fill-opacity:1;"></path>
<path style="fill:#27284E;fill-opacity:1;" d="M161.1210849100316 62.225960429849465L142.3622516934361 58.5891555797929L126.476858240522 65.08913730264108L148.88604164798727 80.29949707840055L169.23375382180464 72.96045871899285"></path>
<path style="fill:#292951;fill-opacity:1;" d="M172.22261756740582 80.75096318744323L169.23375382180464 72.96045871899285L148.88604164798727 80.29949707840055L154.73459099622215 86.76372788663434"></path>
<path style="fill:#A7A9FF;fill-opacity:1;" d="M150.96822064759925 164.8345814963178L145.13110437414613 170.97006607873323L162.2738022444733 182.6419056108795L165.88839626157997 174.8424495798962"></path>
<path style="fill:#6A69B8;fill-opacity:1;" d="M133.36170285894258 182.25552272809773L158.17648148036957 189.46600470374727L162.2738022444733 182.6419056108795L145.13110437414613 170.97006607873323"></path>
<path style="fill:#7176DF;fill-opacity:1;" d="M82.2151708800437 221.64453118626204L74.97927143963956 224.02836632907344L98.02218776861204 242.22989396977525L102.92959255513125 241.8309372481389"></path>
<path style="fill:#27274E;fill-opacity:1;" d="M191.03617389461007 69.94141299428131L161.1210849100316 62.225960429849465L169.23375382180464 72.96045871899285L192.2454801123222 75.03924301167754"></path>
<path style="fill:#2D2E58;fill-opacity:1;" d="M191.75937225419946 82.72945445728321L192.2454801123222 75.03924301167754L169.23375382180464 72.96045871899285L172.22261756740582 80.75096318744323"></path>
<path style="fill:#FFFFFF;fill-opacity:1;" d="M165.88839626157997 174.8424495798962L162.2738022444733 182.6419056108795L182.22328147884636 187.69059989676208L183.1736884550981 178.99586837743735"></path>
<path style="fill:#8584E9;fill-opacity:1;" d="M158.17648148036957 189.46600470374727L177.88736122176638 203.28064307911555L182.22328147884636 187.69059989676208L162.2738022444733 182.6419056108795"></path>
<path d="M102.92959255513125 241.8309372481389L98.02218776861204 242.22989396977525L124.48511962616682 252.19818232317644L137.0328486924162 252.34426417851677" style="fill:#7D81EF;fill-opacity:1;"></path>
<path style="fill:#27274E;fill-opacity:1;" d="M216.88641777247076 79.30503615260533L191.03617389461007 69.94141299428131L192.2454801123222 75.03924301167754L213.785160254592 87.05857967126482"></path>
<path style="fill:#363666;fill-opacity:1;" d="M209.90039540171796 92.99098761089898L213.785160254592 87.05857967126482L192.2454801123222 75.03924301167754L191.75937225419946 82.72945445728321"></path>
<path style="fill:#B6B7FF;fill-opacity:1;" d="M183.1736884550981 178.99586837743735L182.22328147884636 187.69059989676208L202.61189662227565 184.87894493235086L200.68491204869605 176.30174782691805"></path>
<path style="fill-opacity:1;fill:#7A79D0;" d="M177.88736122176638 203.28064307911555L186.09616160840008 214.30806770146268L202.83960587950435 212.84111964860094L202.61189662227565 184.87894493235086L182.22328147884636 187.69059989676208"></path>
<path style="fill:#7B79D4;fill-opacity:1;" d="M185.32043688226963 237.1988516489913L195.21726512852717 236.7507213669121L202.83960587950435 212.84111964860094L186.09616160840008 214.30806770146268"></path>
<path style="fill:#8283EB;fill-opacity:1;" d="M158.53854110505537 252.19180067232392L178.2103519031216 251.83016119115942L195.21726512852717 236.7507213669121L185.32043688226963 237.1988516489913"></path>
<path style="fill:#31315E;fill-opacity:1;" d="M242.75106817267925 102.74075141897339L229.22516063798258 85.42611243368567L216.88641777247076 79.30503615260533L213.785160254592 87.05857967126482L229.45368456680472 107.19976017656208"></path>
<path d="M223.0818731978986 109.97119759286183L229.45368456680472 107.19976017656208L213.785160254592 87.05857967126482L209.90039540171796 92.99098761089898" style="fill:#43427A;fill-opacity:1;"></path>
<path d="M200.68491204869605 176.30174782691805L202.61189662227565 184.87894493235086L220.48770640885283 173.73420217900883L215.8529015086816 166.50035996954904" style="fill:#7675CB;fill-opacity:1;"></path>
<path d="M202.83960587950435 212.84111964860094L217.31129449818914 204.75958349291835L224.9230603262023 187.532523659152L220.48770640885283 173.73420217900883L202.61189662227565 184.87894493235086" style="fill:#7674C9;fill-opacity:1;"></path>
<path style="fill:#6F6DBD;fill-opacity:1;" d="M195.21726512852717 236.7507213669121L203.51912633112227 232.49887109220447L217.31129449818914 204.75958349291835L202.83960587950435 212.84111964860094"></path>
<path style="fill:#7575D1;fill-opacity:1;" d="M178.2103519031216 251.83016119115942L195.2425035209043 243.3731633841156L203.51912633112227 232.49887109220447L195.21726512852717 236.7507213669121"></path>
<path style="fill:#47457F;fill-opacity:1;" d="M244.90906671415087 135.44630967994505L248.26707604165392 123.72702897290912L242.75106817267925 102.74075141897339L229.45368456680472 107.19976017656208L236.03352350515445 131.49913197313253"></path>
<path style="fill:#524F91;fill-opacity:1;" d="M228.70610451773786 130.44541440336081L236.03352350515445 131.49913197313253L229.45368456680472 107.19976017656208L223.0818731978986 109.97119759286183"></path>
<path style="fill:#6B69B8;fill-opacity:1;" d="M215.8529015086816 166.50035996954904L220.48770640885283 173.73420217900883L232.58225962473233 155.08301738523423L225.9531933478446 150.4583237658659"></path>
<path style="fill-opacity:1;fill:#6C6AB9;" d="M224.9230603262023 187.532523659152L236.27422349583017 159.76270027668605L232.58225962473233 155.08301738523423L220.48770640885283 173.73420217900883"></path>
<path d="M236.27422349583017 159.76270027668605L244.90906671415087 135.44630967994505L236.03352350515445 131.49913197313253L232.58225962473233 155.08301738523423" style="fill:#5C58A0;fill-opacity:1;"></path>
<path style="fill:#605CA7;fill-opacity:1;" d="M225.95319334784463 150.45832376586588L232.58225962473233 155.08301738523423L236.03352350515445 131.49913197313253L228.70610451773783 130.44541440336081"></path>
<path style="fill-opacity:1;fill:#6065C1;" d="M163.53240587526315 234.4332838142202L177.05241069487937 212.16881201488624L191.76083732207064 213.79266061078147L175.63349530979968 238.90083726233723"></path>
<path style="fill-opacity:1;fill:#5E60B4;" d="M195.49288122461363 237.61235718875292L175.63349530979968 238.90083726233723L191.76083732207064 213.79266061078147L203.48072620398602 211.60571441219747"></path>
<path style="fill-opacity:1;fill:#434486;" d="M203.48072620398605 211.60571441219747L191.76083732207064 213.79266061078144L195.3721796258673 179.201098146554L220.03853035015385 170.44203480953956"></path>
<path style="fill-opacity:1;fill:#5A5BB4;" d="M177.0524106948794 212.1688120148862L179.62607985676675 181.91874976864878L195.3721796258673 179.201098146554L191.76083732207064 213.79266061078144"></path>
<path style="fill:#676CCF;fill-opacity:1;" d="M142.81054021518318 246.02405691717405L163.53240587526315 234.4332838142202L175.63349530979968 238.90083726233723L151.62480274336082 251.6640955705568"></path>
<path style="fill:#7275D8;fill-opacity:1;" d="M151.62480274336082 251.6640955705568L175.63349530979968 238.90083726233723L195.49288122461363 237.61235718875292L195.2425035209043 243.3731633841156L178.2103519031216 251.83016119115942"></path>
<path style="fill-opacity:1;fill:#373667;" d="M246.3937265370645 118.57611592423694L242.98989410247395 105.63997388229168L242.75106817267925 102.74075141897339L248.26707604165392 123.72702897290912"></path>
<path style="fill:#27274E;fill-opacity:1;" d="M231.32920929593644 145.5186528969432L223.92326679229365 118.64163058835095L242.98989410247395 105.63997388229168L246.3937265370645 118.57611592423694"></path>
<path style="fill:#3A3B74;fill-opacity:1;" d="M220.03853035015385 170.44203480953956L195.3721796258673 179.201098146554L184.02717605379223 141.5608739245659L223.92326679229365 118.64163058835095L231.32920929593644 145.5186528969432"></path>
<path style="fill:#5455A8;fill-opacity:1;" d="M179.62607985676675 181.91874976864878L169.4581141204211 149.2126970111579L184.02717605379223 141.5608739245659L195.3721796258673 179.201098146554"></path>
<path style="fill:#6D73DB;fill-opacity:1;" d="M118.94467227231621 246.7730973418105L142.81054021518318 246.02405691717405L151.62480274336082 251.6640955705568L124.48511962616682 252.19818232317644"></path>
<path style="fill-opacity:1;fill:#7D80ED;" d="M137.0328486924162 252.34426417851677L124.48511962616682 252.19818232317644L151.62480274336082 251.6640955705568L178.2103519031216 251.83016119115942L158.53854110505537 252.19180067232392"></path>
<path style="fill:#27274E;fill-opacity:1;" d="M242.98989410247395 105.63997388229168L234.66486530904785 94.9776728222064L229.22516063798258 85.42611243368567L242.75106817267925 102.74075141897339"></path>
<path style="fill:#27274E;fill-opacity:1;" d="M223.92326679229365 118.64163058835095L206.48823276432864 96.14908270178344L234.66486530904785 94.9776728222064L242.98989410247395 105.63997388229168"></path>
<path style="fill-opacity:1;fill:#343569;" d="M184.02717605379223 141.5608739245659L159.43310605967145 109.3721302324449L180.04162909253023 91.76035914204081L206.48823276432864 96.14908270178344L223.92326679229365 118.64163058835095"></path>
<path style="fill:#5052A1;fill-opacity:1;" d="M169.4581141204211 149.2126970111579L148.1161242361249 121.1362191898748L159.43310605967145 109.3721302324449L184.02717605379223 141.5608739245659"></path>
<path style="fill-opacity:1;fill:#7277E4;" d="M95.36351671907951 238.0143986473224L118.94467227231621 246.7730973418105L124.48511962616682 252.19818232317644L98.02218776861204 242.22989396977525"></path>
<path style="fill:#333466;fill-opacity:1;" d="M180.04162909253023 91.76035914204081L159.43310605967145 109.3721302324449L127.36610890595637 89.8056672266026L135.49607263869964 79.99286223075799"></path>
<path style="fill:#4F519F;fill-opacity:1;" d="M148.1161242361249 121.1362191898748L120.38644731916153 103.69745459242637L127.36610890595637 89.8056672266026L159.43310605967145 109.3721302324449"></path>
<path style="fill:#7379E7;fill-opacity:1;" d="M74.65784536510355 221.70540024313738L95.36351671907951 238.0143986473224L98.02218776861204 242.22989396977525L74.97927143963956 224.02836632907344"></path>
<path style="fill:#35366B;fill-opacity:1;" d="M135.49607263869964 79.99286223075799L127.36610890595637 89.8056672266026L95.16736641676185 85.86392326218227L106.64015863236713 67.15816302932423"></path>
<path style="fill:#5153A2;fill-opacity:1;" d="M120.38644731916153 103.69745459242637L92.35664884314147 99.61612347565745L95.16736641676185 85.86392326218227L127.36610890595637 89.8056672266026"></path>
<path style="fill:#7278E5;fill-opacity:1;" d="M58.75736232548127 199.97591543239798L74.65784536510355 221.70540024313738L74.97927143963956 224.02836632907344L57.34009056824989 199.91419047863585"></path>
<path style="fill:#3B3D77;fill-opacity:1;" d="M106.64015863236713 67.15816302932423L95.16736641676185 85.86392326218227L68.81573996199947 96.1790675297538L81.93676686473914 69.05371537257068L100.06758534848441 61.041591160210345"></path>
<path style="fill-opacity:1;fill:#5558AB;" d="M92.35664884314147 99.61612347565745L69.14696559130077 108.04321175470119L68.81573996199947 96.1790675297538L95.16736641676185 85.86392326218227"></path>
<path d="M49.183681885934135 175.04788331450467L58.75736232548127 199.97591543239798L57.34009056824989 199.91419047863585L46.68096178615647 172.2179891370214" style="fill:#6F72DE;fill-opacity:1;"></path>
<path style="fill:#444789;fill-opacity:1;" d="M68.81573996199947 96.1790675297538L51.587142827511016 116.86300678308899L57.302491913599454 103.56341024713171L69.46489107952823 84.48248092806347L81.93676686473914 69.05371537257068"></path>
<path style="fill:#5B5EB7;fill-opacity:1;" d="M69.14696559130077 108.04321175470119L53.75894919795765 125.88546676455856L51.587142827511016 116.86300678308899L68.81573996199947 96.1790675297538"></path>
<path style="fill:#696CD3;fill-opacity:1;" d="M47.20105847183993 149.3796811439851L49.183681885934135 175.04788331450467L46.68096178615647 172.2179891370214L44.381720624813155 143.49909347719253"></path>
<path style="fill:#6264C5;fill-opacity:1;" d="M53.75894919795765 125.88546676455856L47.20105847183993 149.3796811439851L44.381720624813155 143.49909347719253L51.587142827511016 116.86300678308899"></path>
<path style="fill:#313262;fill-opacity:1;" d="M217.91366838403752 209.97965077872567L217.94185398507804 209.9283335790299L264.3375506852153 89.87537848601806L261.8181400525946 92.32538082711869"></path>
<path style="fill:#313262;fill-opacity:1;" d="M228.82938160240093 180.72795451865173L261.8181400525946 92.32538082711869L259.3792860027093 94.69704587229084"></path>
<path style="fill:#313262;fill-opacity:1;" d="M214.0852408684699 174.1528701849342L244.66200300293696 109.00887632073814L233.5348048425201 119.8295266704408"></path>
<path style="fill:#313162;fill-opacity:1;" d="M214.0852408684699 174.1528701849342L177.9607858211393 275.0497943230933L244.80586472845226 108.86897790174135L244.66200300293696 109.00887632073814"></path>
<path style="fill:#313262;fill-opacity:1;" d="M187.96115063965743 250.18829640554208L177.9607858211393 275.0497943230933L170.07100795553544 297.0862324570322L170.13796176511931 296.9643304258543"></path>
<path style="fill:#313262;fill-opacity:1;" d="M244.90906671415087 135.44630967994507L259.3792860027093 94.69704587229084L255.50597207628454 98.46365226216992"></path>
<path style="fill:#313262;fill-opacity:1;" d="M243.78570261264863 111.40516120883939L248.26707604165392 123.72702897290912L255.50597207628454 98.46365226216992L244.80586472845226 108.86897790174135"></path>
<path style="fill:#313262;fill-opacity:1;" d="M246.39372653706454 118.57611592423693L243.78570261264863 111.40516120883939L226.81947271935263 153.5842113550698"></path>
<path style="fill:#313262;fill-opacity:1;" d="M231.32920929593644 145.51865289694314L226.81947271935263 153.5842113550698L220.03853035015385 170.44203480953956"></path>
<path style="fill:#313262;fill-opacity:1;" d="M213.58221061260662 217.86588613382537L217.91366838403752 209.97965077872567L223.83184820586726 194.1202382879844"></path>
<path style="fill:#313262;fill-opacity:1;" d="M209.44508492173458 225.39830330456195L213.58221061260662 217.86588613382537L222.23623748617428 197.81683828033846"></path>
<path style="fill:#313262;fill-opacity:1;" d="M172.85086231472877 289.8444637569025L170.13796176511931 296.9643304258543L186.08698101909752 267.9261344749475"></path>
<path style="fill:#313262;fill-opacity:1;" d="M179.04042361543384 273.60028141609837L172.85086231472877 289.8444637569025L186.08698101909752 267.9261344749475L186.30281244891822 267.5331726726139"></path>
<path style="fill:#313362;fill-opacity:1;" d="M179.8386189545205 271.505459182053L179.04042361543384 273.60028141609837L179.74311146831235 273.01324542644124"></path>
<path style="fill-opacity:1;fill:#313362;" d="M213.91697930535568 215.75559144474366L222.23623748617428 197.81683828033846L223.83184820586726 194.1202382879844L228.66848105251637 181.1591323921583"></path>
<path d="M203.0368777448096 237.06565242078665L209.44508492173458 225.39830330456195L213.91697930535568 215.75559144474366L228.6111612797391 181.2935635304778" style="fill:#313362;fill-opacity:1;"></path>
<path style="fill:#313362;fill-opacity:1;" d="M186.04139117229096 267.75156793476856L186.30281244891822 267.5331726726139L203.0368777448096 237.06565242078665L214.6182411904743 211.80915478790524"></path>
<path style="fill-opacity:1;fill:#313262;" d="M180.62402910355914 269.4441910156244L179.8386189545205 271.505459182053L179.74311146831235 273.01324542644124L186.04139117229096 267.75156793476856L202.0351350830873 236.442006907098"></path>
<path style="fill:#313262;fill-opacity:1;" d="M187.67001365555384 250.9523703077412L180.62402910355914 269.4441910156244L192.21870853833667 251.5726366105537"></path>
<path style="fill:#313262;fill-opacity:1;" d="M187.70061477953897 250.87205924631087L187.67001365555384 250.9523703077412L187.68529821670882 250.9544545315641"></path>
<path style="fill:#313262;fill-opacity:1;" d="M223.58494986248704 192.2546647305017L228.6111612797391 181.2935635304778L228.66848105251637 181.1591323921583L228.82938160240093 180.72795451865173L231.59383206928715 172.943046832601"></path>
<path style="fill:#313362;fill-opacity:1;" d="M211.49452219781986 217.92418770198032L214.6182411904743 211.80915478790524L223.58494986248704 192.2546647305017L231.59383206928715 172.943046832601L232.51252483563226 170.35593649602285"></path>
<path style="fill:#313262;fill-opacity:1;" d="M199.99527768688222 239.58615786357203L202.0351350830873 236.442006907098L211.49452219781986 217.92418770198032L217.3112944981891 204.75958349291838"></path>
<path d="M189.30422078504597 251.1752130440339L192.21870853833667 251.5726366105537L199.99527768688222 239.58615786357203L203.51912633112227 232.49887109220447" style="fill:#313362;fill-opacity:1;"></path>
<path style="fill:#313362;fill-opacity:1;" d="M195.79247517389288 230.71916081570538L187.96115063965743 250.18829640554208L187.70061477953897 250.87205924631087L187.68529821670882 250.9544545315641L189.30422078504597 251.1752130440339L195.2425035209043 243.37316338411557"></path>
<path d="M231.60041459256047 172.4202377485077L232.51252483563226 170.35593649602285L233.31638264706538 168.09221033066808" style="fill:#313362;fill-opacity:1;"></path>
<path style="fill:#313362;fill-opacity:1;" d="M224.92306032620235 187.53252365915193L231.60041459256047 172.4202377485077L233.31638264706538 168.09221033066808L236.27422349583017 159.76270027668605"></path>
<path style="fill-opacity:1;fill:#313362;" d="M203.48072620398608 211.6057144121974L195.79247517389288 230.71916081570538L195.49288122461363 237.61235718875292"></path>
<path d="M107.16180250685915 247.3074189409179L151.20287859452117 281.9967476447828L170.44628303785385 289.81506732653094L171.97129662491906 271.8905583732316" style="fill:#565398;fill-opacity:1;"></path>
<path style="fill:#565698;fill-opacity:1;" d="M214.0852408684699 174.15287018493416L233.5348048425201 119.8295266704408L221.508323832998 115.65917025951558"></path>
<path style="fill:#565698;fill-opacity:1;" d="M177.9607858211393 275.0497943230933L214.0852408684699 174.15287018493416L221.508323832998 115.65917025951558L193.83359384205733 106.06255695700719"></path>
<path style="fill:#565598;fill-opacity:1;" d="M169.83933016793856 296.9489920622208L170.07100795553544 297.0862324570322L177.9607858211393 275.0497943230933L193.83359384205733 106.06255695700719L186.3021081566015 103.45090525379791"></path>
<path d="M181.1309532755883 164.23096173971754L186.3021081566015 103.45090525379791L159.63855333799822 94.20493158221623" style="fill:#565598;fill-opacity:1;"></path>
<path style="fill:#565598;fill-opacity:1;" d="M179.62607985676675 181.9187497686487L181.1309532755883 164.23096173971754L159.63855333799822 94.20493158221623L151.47691292366838 91.37476460331209"></path>
<path style="fill:#565598;fill-opacity:1;" d="M163.6969518009624 130.68147024952998L151.47691292366838 91.37476460331209L127.39399459665624 83.02366399796264"></path>
<path style="fill:#565598;fill-opacity:1;" d="M169.4581141204211 149.2126970111579L163.6969518009624 130.68147024952998L127.39399459665624 83.02366399796264L116.19283308778651 79.139499072966"></path>
<path style="fill:#565598;fill-opacity:1;" d="M136.4662615369976 105.81022974529554L116.19283308778651 79.139499072966L64.78733174471539 61.313897227075685"></path>
<path style="fill:#565598;fill-opacity:1;" d="M39.50441434384362 52.83199599212149L148.11612423612493 121.13621918987484L136.4662615369976 105.81022974529554L64.78733174471539 61.313897227075685L39.52248077275273 52.55294436492318"></path>
<path style="fill:#565598;fill-opacity:1;" d="M57.58923618818983 64.20526052292523L39.50441434384362 52.83199599212149L38.880315028190566 62.47174994916509"></path>
<path style="fill:#565498;fill-opacity:1;" d="M105.7703159923264 94.50559583773082L57.58923618818983 64.20526052292523L38.880315028190566 62.47174994916509L37.400566105891514 85.32775246574728"></path>
<path style="fill:#565498;fill-opacity:1;" d="M120.38644731916149 103.69745459242637L105.7703159923264 94.50559583773082L37.400566105891514 85.32775246574728L36.99737210598555 91.55543267395686"></path>
<path style="fill:#565598;fill-opacity:1;" d="M77.95694715725972 97.51942803872599L36.99737210598555 91.55543267395686L35.56826257094379 113.62926603660424"></path>
<path style="fill:#565598;fill-opacity:1;" d="M92.3566488431415 99.61612347565745L77.95694715725972 97.51942803872599L35.56826257094379 113.62926603660424L35.13028829725796 120.39415766836017"></path>
<path style="fill:#565498;fill-opacity:1;" d="M57.37287495728127 112.31820767350483L35.13028829725796 120.39415766836017L33.83649303968271 140.37794492947103"></path>
<path style="fill:#565598;fill-opacity:1;" d="M69.14696559130076 108.0432117547012L57.37287495728127 112.31820767350483L33.83649303968271 140.37794492947103L33.23400181785287 149.68394318015146"></path>
<path style="fill:#565598;fill-opacity:1;" d="M45.94674498514766 134.9436413980569L33.23400181785287 149.68394318015146L30.462972770495597 192.48488455979984"></path>
<path style="fill:#565598;fill-opacity:1;" d="M53.75894919795769 125.88546676455847L45.94674498514766 134.9436413980569L30.462972770495597 192.48488455979984L29.097431652803394 213.57684871137872L29.255672904456134 213.6705870540897"></path>
<path style="fill:#565598;fill-opacity:1;" d="M33.12323666132252 199.8147032303421L29.255672904456134 213.6705870540897L34.843459240332024 216.9806583855378"></path>
<path style="fill:#565598;fill-opacity:1;" d="M43.831031142631446 161.453097405958L33.12323666132252 199.8147032303421L34.843459240332024 216.9806583855378L49.10805023048937 225.43066181322806"></path>
<path style="fill-opacity:1;fill:#565598;" d="M47.2010584718399 149.37968114398527L43.831031142631446 161.453097405958L49.10805023048937 225.43066181322806L53.26549580617004 227.89343339841946"></path>
<path style="fill:#565598;fill-opacity:1;" d="M50.22374658912834 188.5131691989691L53.26549580617004 227.89343339841946L69.0559231253434 237.2473058693355"></path>
<path style="fill:#565498;fill-opacity:1;" d="M49.183681885934064 175.0478833145046L50.22374658912834 188.5131691989691L69.0559231253434 237.2473058693355L74.25416290402393 240.32661911274465"></path>
<path style="fill:#565498;fill-opacity:1;" d="M63.911988018775816 213.39757449544499L74.25416290402393 240.32661911274465L90.72387432279346 250.0828832802696"></path>
<path style="fill-opacity:1;fill:#565498;" d="M58.75736232548128 199.975915432398L63.911988018775816 213.39757449544499L90.72387432279346 250.0828832802696L99.01840631155949 254.996366168389"></path>
<path style="fill:#565498;fill-opacity:1;" d="M83.46652920778813 233.74328370147336L99.01840631155949 254.996366168389L143.44506104183478 281.3136566543672"></path>
<path style="fill:#565498;fill-opacity:1;" d="M74.65784536510355 221.70540024313743L83.46652920778813 233.74328370147336L143.44506104183478 281.3136566543672L169.83933016793856 296.9489920622208L169.86110493940714 296.6930585482801"></path>
<path style="fill:#565398;fill-opacity:1;" d="M151.20287859452117 281.9967476447828L169.86110493940714 296.6930585482801L170.44628303785385 289.81506732653094"></path>
<path style="fill:#565398;fill-opacity:1;" d="M95.36351671907943 238.01439864732237L107.16180250685915 247.3074189409179L171.97129662491906 271.8905583732316L172.41845948525648 266.6347529419334"></path>
<path d="M132.71868540055758 251.88914988350325L172.41845948525648 266.6347529419334L173.74275363027542 251.06943440278843" style="fill:#565398;fill-opacity:1;"></path>
<path style="fill:#565398;fill-opacity:1;" d="M118.94467227231621 246.7730973418105L132.71868540055758 251.88914988350325L173.74275363027542 251.06943440278843L174.25598100413686 245.03712837228204"></path>
<path style="fill-opacity:1;fill:#565398;" d="M157.00524420049962 245.57855009017726L174.25598100413686 245.03712837228204L175.0383461436493 235.84146541761453"></path>
<path style="fill:#565498;fill-opacity:1;" d="M142.8105402151832 246.02405691717402L157.00524420049962 245.57855009017726L175.0383461436493 235.84146541761453L175.73906103260512 227.60549269754884"></path>
<path style="fill:#565498;fill-opacity:1;" d="M163.5324058752632 234.4332838142202L175.73906103260512 227.60549269754884L177.05241069487937 212.16881201488627"></path>
<path style="fill:#ABAAFF;fill-opacity:1;" d="M243.07173056103903 108.77350029472528L244.80586472845226 108.86897790174135L255.50597207628454 98.46365226216992L238.99334497901054 88.44406733395728"></path>
<path style="fill:#ABABFF;fill-opacity:1;" d="M261.8181400525946 92.32538082711869L264.3375506852153 89.87537848601806L235.48495494989598 81.16503050851084"></path>
<path style="fill:#ABABFF;fill-opacity:1;" d="M259.3792860027093 94.69704587229084L261.8181400525946 92.32538082711869L242.9372167243147 84.32339709971976"></path>
<path d="M221.508323832998 115.65917025951558L233.5348048425201 119.8295266704408L244.66200300293693 109.00887632073812" style="fill:#ABACFF;fill-opacity:1;"></path>
<path style="fill:#ABABFF;fill-opacity:1;" d="M193.83359384205735 106.06255695700719L221.508323832998 115.65917025951558L244.66200300293693 109.00887632073812L244.80586472845226 108.86897790174135"></path>
<path style="fill:#ABAAFF;fill-opacity:1;" d="M186.3021081566015 103.45090525379791L193.83359384205735 106.06255695700719L202.95537569991953 106.5647821711095"></path>
<path style="fill-opacity:1;fill:#ABAAFF;" d="M253.38775003623036 90.91685928676462L242.9372167243147 84.32339709971976L235.48495494989598 81.16503050851084L213.3317242707634 74.47716263653902"></path>
<path style="fill:#ABAAFF;fill-opacity:1;" d="M255.50597207628454 98.46365226216992L259.3792860027093 94.69704587229084L253.38775003623036 90.91685928676462L221.5008516362501 77.82991601681668"></path>
<path style="fill:#ABA9FF;fill-opacity:1;" d="M191.43894202989418 104.41140555108214L202.95537569991953 106.5647821711095L243.07173056103903 108.77350029472528L240.68828216129333 96.89278095529004"></path>
<path style="fill:#ABA9FF;fill-opacity:1;" d="M159.63855333799822 94.20493158221623L186.3021081566015 103.45090525379791L191.43894202989418 104.41140555108214L218.8490883798896 100.22684998198233"></path>
<path d="M151.47691292366832 91.37476460331209L159.63855333799822 94.20493158221623L170.07367207987147 95.26621963696816" style="fill:#ABAAFF;fill-opacity:1;"></path>
<path d="M227.50589079611262 81.47367297354091L221.5008516362501 77.82991601681668L213.3317242707634 74.47716263653902L190.07904657992202 67.45738126386644" style="fill:#ABAAFF;fill-opacity:1;"></path>
<path d="M239.40057827318134 90.47399358460862L238.99334497901054 88.44406733395728L227.50589079611262 81.47367297354091L202.0136893860274 71.92688539985171" style="fill:#ABAAFF;fill-opacity:1;"></path>
<path style="fill:#ABAAFF;fill-opacity:1;" d="M236.15010439301074 97.5855994762621L240.68828216129333 96.89278095529004L239.40057827318134 90.47399358460862L229.22516063798258 85.4261124336857"></path>
<path style="fill:#ABAAFF;fill-opacity:1;" d="M186.8017576444425 96.96752441630991L218.8490883798896 100.22684998198233L236.15010439301074 97.5855994762621L234.66486530904788 94.9776728222064"></path>
<path style="fill:#ABAAFF;fill-opacity:1;" d="M127.39399459665623 83.02366399796264L151.47691292366832 91.37476460331209L170.07367207987147 95.26621963696816L186.8017576444425 96.96752441630991L206.4882327643286 96.14908270178344"></path>
<path style="fill:#ABABFF;fill-opacity:1;" d="M116.19283308778655 79.13949907296602L127.39399459665623 83.02366399796264L141.0303378590996 85.28656859196313"></path>
<path d="M136.47445595412267 51.29226842655166L206.8774699546529 74.33973832980523L202.0136893860274 71.92688539985171L190.07904657992202 67.45738126386644L136.53049807072284 51.291539705473014" style="fill:#ABAAFF;fill-opacity:1;"></path>
<path style="fill-opacity:1;fill:#ABABFF;" d="M168.44474111628708 61.75821502747232L216.88641777247074 79.3050361526053L206.8774699546529 74.33973832980523"></path>
<path style="fill:#ABABFF;fill-opacity:1;" d="M64.78733174471537 61.31389722707564L116.19283308778655 79.13949907296602L141.0303378590996 85.28656859196313L180.04162909253034 91.76035914204084"></path>
<path style="fill:#ABAAFF;fill-opacity:1;" d="M39.66075914988704 52.55114631777127L39.52248077275273 52.55294436492318L64.78733174471537 61.31389722707564L92.79892823641566 68.71365606806862"></path>
<path style="fill:#ABABFF;fill-opacity:1;" d="M182.09458277458629 66.70253872758914L168.44474111628708 61.75821502747232L136.47445595412267 51.29226842655166L127.84732154927082 51.40444789211645"></path>
<path d="M191.0361738946101 69.94141299428131L182.09458277458629 66.70253872758914L127.84732154927082 51.40444789211645L119.57971066563509 51.511952438458266" style="fill-opacity:1;fill:#ABACFF;"></path>
<path style="fill:#ABABFF;fill-opacity:1;" d="M72.38984813154765 52.12556679876906L39.66075914988704 52.55114631777127L77.88213845131655 64.17656409652903"></path>
<path style="fill:#ABABFF;fill-opacity:1;" d="M72.82990611183446 52.11984468216238L72.38984813154765 52.12556679876906L77.88213845131655 64.17656409652903L92.79892823641566 68.71365606806862L135.4960726386996 79.99286223075798"></path>
<path style="fill:#ABABFF;fill-opacity:1;" d="M161.12108491003164 62.225960429849465L119.57971066563509 51.511952438458266L106.72015943839652 51.67916643054154"></path>
<path style="fill:#ABAAFF;fill-opacity:1;" d="M142.36225169343604 58.58915557979289L106.72015943839652 51.67916643054154L72.82990611183446 52.11984468216238L74.04820649173791 52.66172732395363"></path>
<path style="fill:#ABA9FF;fill-opacity:1;" d="M111.9029575107347 55.94628352532149L74.04820649173791 52.66172732395363L96.41948582478224 62.61215346286801"></path>
<path style="fill:#ABA9FF;fill-opacity:1;" d="M100.06758534848443 61.04159116021036L96.41948582478224 62.61215346286801L106.64015863236713 67.15816302932423"></path>
</g>
</svg>
