<?xml version="1.0" standalone="yes"?>
<!DOCTYPE svg PUBLIC "-//W3C//DTD SVG 1.1//EN" "http://www.w3.org/Graphics/SVG/1.1/DTD/svg11.dtd">
<svg height="300" xmlns="http://www.w3.org/2000/svg" version="1.1" id="seen-svg" width="300"><g><path style="fill-opacity:1;fill:#AF3A35;" d="M136.3607817353753 91.14034008067003L136.33083894631542 91.24948114672931L112.10315937230448 94.41689636928207L112.15749470930449 94.30014402698083"></path>
<path style="fill:#8B2F2C;fill-opacity:1;" d="M112.10315937230448 94.41689636928207L136.33083894631542 91.24948114672931L134.2828959299672 115.32497411768196L109.41492766217762 119.60043759764734"></path>
<path style="fill-opacity:1;fill:#3A1413;" d="M129.10804085963449 199.4224623457684L136.0689156507736 194.41464846016004L154.06607373697167 212.6534291082753"></path>
<path d="M109.41492766217762 119.60043759764734L134.2828959299672 115.32497411768196L135.27204712417713 141.16668607409318L113.03637413960742 145.99200754909506" style="fill:#612120;fill-opacity:1;"></path>
<path style="fill:#3A1413;fill-opacity:1;" d="M108.6803006340042 179.6533809320458L122.15225503266774 171.5303589588537L136.0689156507736 194.41464846016004L129.10804085963449 199.4224623457684"></path>
<path style="fill:#501B1A;fill-opacity:1;" d="M113.03637413960742 145.99200754909506L135.27204712417713 141.16668607409318L139.00969614681586 167.08610646463794L122.15225503266774 171.5303589588537"></path>
<path style="fill:#3A1313;fill-opacity:1;" d="M94.53766617168168 155.17695140313114L113.03637413960742 145.99200754909506L122.15225503266774 171.5303589588537L108.6803006340042 179.6533809320458"></path>
<path style="fill:#3C1414;fill-opacity:1;" d="M122.15225503266774 171.5303589588537L139.00969614681586 167.08610646463794L145.32186861211147 191.54881374247594L136.0689156507736 194.41464846016004"></path>
<path style="fill:#521B19;fill-opacity:1;" d="M88.34953915931762 128.0481306331479L109.41492766217762 119.60043759764734L113.03637413960742 145.99200754909506L94.53766617168168 155.17695140313114"></path>
<path style="fill:#3A1413;fill-opacity:1;" d="M136.0689156507736 194.41464846016004L145.32186861211147 191.54881374247594L154.06607373697167 212.65342910827528"></path>
<path style="fill:#7E2925;fill-opacity:1;" d="M91.72713789060533 100.9089382799367L112.10315937230448 94.41689636928207L109.41492766217762 119.60043759764734L88.34953915931762 128.0481306331479"></path>
<path style="fill:#B33B38;fill-opacity:1;" d="M162.21769957466157 91.15145784212683L162.2115470188761 91.25930454383504L136.33083894631542 91.24948114672931L136.3607817353753 91.14034008067003"></path>
<path style="fill:#A43530;fill-opacity:1;" d="M112.15749470930449 94.30014402698083L112.10315937230448 94.41689636928207L91.72713789060533 100.9089382799367L91.80606468116113 100.77743081862266"></path>
<path style="fill:#903130;fill-opacity:1;" d="M136.33083894631542 91.24948114672931L162.2115470188761 91.25930454383504L160.7472217988859 115.04105165611675L134.2828959299672 115.32497411768196"></path>
<path style="fill:#3A1313;fill-opacity:1;" d="M125.56657911271722 206.0500613468758L129.10804085963449 199.4224623457684L154.06607373697167 212.6534291082753"></path>
<path style="fill:#842D2C;fill-opacity:1;" d="M134.2828959299672 115.32497411768196L160.7472217988859 115.04105165611675L159.09646486235613 140.62679086014842L135.27204712417713 141.16668607409318"></path>
<path style="fill:#3A1313;fill-opacity:1;" d="M100.74087981683222 190.98477194921878L108.6803006340042 179.6533809320458L129.10804085963449 199.4224623457684L125.56657911271722 206.0500613468758"></path>
<path style="fill:#6E2524;fill-opacity:1;" d="M135.27204712417713 141.16668607409318L159.09646486235613 140.62679086014842L157.3654380849867 166.44943464119075L139.00969614681586 167.08610646463794"></path>
<path style="fill:#3D1414;fill-opacity:1;" d="M82.59291663066179 168.5384322186446L94.53766617168168 155.17695140313114L108.6803006340042 179.6533809320458L100.74087981683222 190.98477194921878"></path>
<path style="fill:#4F1B1A;fill-opacity:1;" d="M139.00969614681586 167.08610646463794L157.3654380849867 166.44943464119075L155.64883708251708 191.07242225684735L145.32186861211147 191.54881374247594"></path>
<path style="fill:#68211F;fill-opacity:1;" d="M74.19402408813352 140.68834181056135L88.34953915931762 128.0481306331479L94.53766617168168 155.17695140313114L82.59291663066179 168.5384322186446"></path>
<path style="fill:#3A1413;fill-opacity:1;" d="M145.32186861211147 191.54881374247594L155.64883708251708 191.07242225684735L154.06607373697167 212.65342910827528"></path>
<path style="fill:#8C2C28;fill-opacity:1;" d="M78.24845773775941 110.74068902752725L91.72713789060533 100.9089382799367L88.34953915931762 128.0481306331479L74.19402408813352 140.68834181056135"></path>
<path d="M187.9630665016337 94.22298251419889L187.98055657237873 94.33561785232496L162.2115470188761 91.25930454383504L162.21769957466157 91.15145784212683" style="fill-opacity:1;fill:#AE3B39;"></path>
<path style="fill:#A4332E;fill-opacity:1;" d="M91.80606468116113 100.77743081862266L91.72713789060533 100.9089382799367L78.24845773775941 110.74068902752725L78.34961016899878 110.58622169268243"></path>
<path style="fill:#A73837;fill-opacity:1;" d="M162.2115470188761 91.25930454383504L187.98055657237873 94.33561785232496L187.05561200775819 118.62550378293653L160.7472217988859 115.04105165611675"></path>
<path style="fill-opacity:1;fill:#3A1313;" d="M126.30210583392032 213.45161738549587L125.56657911271722 206.0500613468758L154.06607373697167 212.6534291082753"></path>
<path style="fill:#9C3434;fill-opacity:1;" d="M160.7472217988859 115.04105165611675L187.05561200775819 118.62550378293653L182.72030546487878 144.2752849689099L159.09646486235613 140.62679086014842"></path>
<path style="fill:#3A1313;fill-opacity:1;" d="M100.64462981528733 197.45044547339745L100.74087981683222 190.98477194921878L125.56657911271722 206.0500613468758L126.30210583392032 213.45161738549587L113.84414437652381 209.08610828547415"></path>
<path style="fill:#822B2B;fill-opacity:1;" d="M159.09646486235613 140.62679086014842L182.72030546487878 144.2752849689099L175.5069105986682 169.5852654997475L157.3654380849867 166.44943464119075"></path>
<path style="fill:#481717;fill-opacity:1;" d="M82.40722138194015 170.13113805029016L82.59291663066179 168.5384322186446L100.74087981683222 190.98477194921878L100.64462981528733 197.45044547339745"></path>
<path style="fill:#5C1E1F;fill-opacity:1;" d="M157.3654380849867 166.44943464119075L175.5069105986682 169.5852654997475L165.81600814126898 193.00888952255033L155.64883708251708 191.07242225684735"></path>
<path style="fill:#752523;fill-opacity:1;" d="M74.1772276647666 140.77569734355805L74.19402408813352 140.68834181056135L82.59291663066179 168.5384322186446L82.40722138194015 170.13113805029016"></path>
<path style="fill:#3A1313;fill-opacity:1;" d="M155.64883708251708 191.07242225684735L165.81600814126898 193.00888952255033L154.06607373697167 212.65342910827528"></path>
<path style="fill-opacity:1;fill:#99302C;" d="M78.0005274719113 111.94408699602161L78.24845773775941 110.74068902752725L74.19402408813352 140.68834181056135L74.1772276647666 140.77569734355805"></path>
<path style="fill:#A93839;fill-opacity:1;" d="M211.78457315052503 100.30477580658996L211.8259306083251 100.42867979799365L187.98055657237873 94.33561785232496L187.9630665016337 94.22298251419889"></path>
<path style="fill:#AF3A3A;fill-opacity:1;" d="M187.98055657237873 94.33561785232496L211.8259306083251 100.42867979799365L211.4055872278711 126.04796340399152L187.05561200775819 118.62550378293653"></path>
<path style="fill:#3A1313;fill-opacity:1;" d="M131.6162240666782 220.47668298471908L126.30210583392032 213.45161738549587L154.06607373697167 212.6534291082753"></path>
<path style="fill:#A33637;fill-opacity:1;" d="M187.05561200775819 118.62550378293653L211.4055872278711 126.04796340399152L204.31350524157824 152.03838127560834L182.72030546487878 144.2752849689099"></path>
<path style="fill:#3A1313;fill-opacity:1;" d="M113.84414437652381 209.08610828547415L126.30210583392032 213.45161738549587L131.6162240666782 220.47668298471908L129.50340533077448 220.23646468460208"></path>
<path style="fill:#882D2E;fill-opacity:1;" d="M182.72030546487878 144.2752849689099L204.31350524157824 152.03838127560834L191.70250011109957 176.33781106998276L175.5069105986682 169.5852654997475"></path>
<path d="M140.95542946274344 225.83235680995375L131.6162240666782 220.47668298471908L154.06607373697167 212.6534291082753" style="fill:#3A1313;fill-opacity:1;"></path>
<path style="fill:#612020;fill-opacity:1;" d="M175.5069105986682 169.5852654997475L191.70250011109957 176.33781106998276L174.59401200621807 197.1749748487691L165.81600814126898 193.00888952255033"></path>
<path d="M129.50340533077448 220.23646468460208L131.6162240666782 220.47668298471908L140.95542946274344 225.83235680995375L140.8850848798178 225.84857980079727" style="fill:#3A1313;fill-opacity:1;"></path>
<path style="fill:#3A1313;fill-opacity:1;" d="M165.81600814126898 193.00888952255033L174.59401200621807 197.1749748487691L154.06607373697167 212.65342910827528"></path>
<path style="fill:#3A1313;fill-opacity:1;" d="M152.8004206290331 228.406040222661L140.95542946274344 225.83235680995375L154.06607373697167 212.6534291082753"></path>
<path style="fill:#A13536;fill-opacity:1;" d="M213.71793153816662 101.1950790671589L213.7282753617823 101.3054611544663L211.8259306083251 100.42867979799365L211.78457315052503 100.30477580658996"></path>
<path style="fill:#3A1313;fill-opacity:1;" d="M140.8850848798178 225.84857980079727L140.95542946274344 225.83235680995375L152.8004206290331 228.406040222661L152.73783002470762 228.95126115787642"></path>
<path style="fill:#A53737;fill-opacity:1;" d="M211.8259306083251 100.42867979799365L213.7282753617823 101.3054611544663L211.5164856315485 126.1099961359203L211.4055872278711 126.04796340399152"></path>
<path style="fill:#3A1313;fill-opacity:1;" d="M164.9337829063626 227.6362670043553L152.8004206290331 228.406040222661L154.06607373697167 212.6534291082753"></path>
<path style="fill:#9A3333;fill-opacity:1;" d="M211.4055872278711 126.04796340399152L211.5164856315485 126.1099961359203L206.00369683300028 153.18234290808738L204.31350524157824 152.03838127560834"></path>
<path style="fill:#3A1313;fill-opacity:1;" d="M152.73783002470762 228.95126115787642L152.8004206290331 228.406040222661L164.9337829063626 227.6362670043553L170.65192417314444 229.96168726825766"></path>
<path style="fill:#802A2B;fill-opacity:1;" d="M204.31350524157824 152.03838127560834L206.00369683300028 153.18234290808738L197.6723029687462 181.18684500985586L191.70250011109957 176.33781106998276"></path>
<path style="fill-opacity:1;fill:#3A1313;" d="M175.05622830111946 223.72138675519093L164.9337829063626 227.6362670043553L154.06607373697167 212.6534291082753"></path>
<path style="fill:#5B1E1F;fill-opacity:1;" d="M191.70250011109957 176.33781106998276L197.6723029687462 181.18684500985586L192.32875488558923 194.80425268614692L180.7849686493726 203.15796061276558L174.59401200621807 197.1749748487691"></path>
<path style="fill:#3A1313;fill-opacity:1;" d="M170.65192417314444 229.96168726825766L164.9337829063626 227.6362670043553L175.05622830111946 223.72138675519093L177.16317185745942 223.79590575696272"></path>
<path style="fill:#3A1314;fill-opacity:1;" d="M174.59401200621807 197.1749748487691L180.7849686493726 203.15796061276558L154.06607373697167 212.6534291082753"></path>
<path style="fill:#3A1313;fill-opacity:1;" d="M181.4455936464632 217.52830333092217L175.05622830111946 223.72138675519093L154.06607373697167 212.6534291082753"></path>
<path style="fill:#4D191A;fill-opacity:1;" d="M186.03975463622726 209.1147061432444L183.3165812254728 210.2704539497122L180.7849686493726 203.15796061276558L192.32875488558923 194.80425268614692"></path>
<path style="fill:#3A1313;fill-opacity:1;" d="M177.16317185745942 223.79590575696272L175.05622830111946 223.72138675519093L181.4455936464632 217.52830333092217L181.59678621610317 217.49901370377768"></path>
<path style="fill:#3A1313;fill-opacity:1;" d="M180.7849686493726 203.15796061276558L183.3165812254728 210.2704539497122L154.0660737369717 212.6534291082753"></path>
<path style="fill:#3A1313;fill-opacity:1;" d="M181.59678621610317 217.49901370377768L181.4455936464632 217.52830333092214L183.3165812254728 210.2704539497122L186.03975463622726 209.1147061432444"></path>
<path style="fill-opacity:1;fill:#3A1313;" d="M183.3165812254728 210.2704539497122L181.4455936464632 217.52830333092214L154.0660737369717 212.6534291082753"></path>
<path d="M177.16317185745942 223.79590575696272L181.5967862161032 217.49901370377762L186.0397546362272 209.1147061432445L192.32875488558926 194.80425268614684L197.6723029687462 181.18684500985586L206.00369683300028 153.18234290808738L211.5164856315485 126.1099961359203L213.7282753617823 101.30546115446634L213.71793153816662 101.1950790671589L179.93144310619365 136.21167768046283L170.65192417314444 229.96168726825766" style="fill:#551C1C;fill-opacity:1;"></path>
<path style="fill:#D44440;fill-opacity:1;" d="M211.78457315052495 100.30477580658993L187.96306650163376 94.2229825141989L162.21769957466157 91.1514578421268L136.36078173537533 91.14034008067003L112.1574947093045 94.30014402698085L91.8060646811611 100.77743081862269L78.34961016899878 110.58622169268243L78.09862427312572 111.80777211150924L179.93144310619365 136.21167768046283L213.71793153816662 101.1950790671589"></path>
<path style="fill-opacity:1;fill:#752522;" d="M78.0005274719113 111.94408699602162L74.1772276647666 140.7756973435581L82.40722138194013 170.13113805029013L100.64462981528733 197.45044547339745L113.8441443765239 209.0861082854742L129.50340533077446 220.23646468460208L140.8850848798178 225.84857980079727L152.73783002470765 228.95126115787642L170.65192417314444 229.96168726825766L179.93144310619365 136.21167768046283L78.09862427312574 111.80777211150924"></path>
<path style="fill:#AF3631;fill-opacity:1;" d="M78.34961016899878 110.58622169268243L78.24845773775941 110.74068902752725L78.0005274719113 111.94408699602161L78.09862427312572 111.80777211150924"></path>
</g>
</svg>
