<?xml version="1.0" standalone="yes"?>
<!DOCTYPE svg PUBLIC "-//W3C//DTD SVG 1.1//EN" "http://www.w3.org/Graphics/SVG/1.1/DTD/svg11.dtd">
<svg id="seen-svg" width="300" height="300" xmlns="http://www.w3.org/2000/svg" version="1.1"><g><path style="fill:#3A1413;fill-opacity:1;" d="M138.1416715174742 213.41354316315199L135.05462055137195 206.77273434278604L163.3995629759326 210.54407917755987"></path>
<path style="fill:#3A1413;fill-opacity:1;" d="M114.38851023344097 205.65219218335847L109.97101038230241 193.45176380619262L135.05462055137195 206.77273434278604L138.1416715174742 213.41354316315199"></path>
<path style="fill:#A8372F;fill-opacity:1;" d="M108.14074016426954 82.019880551645L113.06959778025444 77.24778423440758L96.83043134268863 102.37600712591922L89.00569503040799 110.87337041824527"></path>
<path style="fill:#4D1A18;fill-opacity:1;" d="M96.16142970325154 186.326719431155L91.68491096204349 171.33073570532133L109.97101038230241 193.45176380619262L114.38851023344097 205.65219218335847"></path>
<path style="fill:#92302A;fill-opacity:1;" d="M89.00569503040799 110.87337041824527L96.83043134268863 102.37600712591922L92.3302251711293 130.81233717412516L83.76290026022448 142.50753292007715"></path>
<path style="fill:#6F2521;fill-opacity:1;" d="M83.76290026022448 142.50753292007715L92.3302251711293 130.81233717412516L98.67188759802758 158.5351161216035L91.68491096204349 171.33073570532133"></path>
<path style="fill:#441816;fill-opacity:1;" d="M91.68491096204349 171.33073570532133L98.67188759802758 158.5351161216035L114.0829192351911 182.49452398394888L109.97101038230241 193.45176380619262"></path>
<path style="fill:#3A1413;fill-opacity:1;" d="M109.97101038230241 193.45176380619262L114.0829192351911 182.49452398394888L136.4388351183888 200.4194555144315L135.05462055137195 206.77273434278604"></path>
<path style="fill:#3A1413;fill-opacity:1;" d="M135.05462055137195 206.77273434278604L136.4388351183888 200.4194555144315L163.3995629759326 210.54407917755987"></path>
<path style="fill:#3A1413;fill-opacity:1;" d="M145.60769539199427 219.22356629023258L138.1416715174742 213.41354316315199L163.3995629759326 210.54407917755987"></path>
<path style="fill:#B83D35;fill-opacity:1;" d="M140.15915113220728 60.18691316814879L146.43048833593187 58.83162464496492L125.46642893658887 73.88774159516055L113.06959778025444 77.24778423440758"></path>
<path d="M128.18214233812097 216.9819725994064L114.38851023344097 205.65219218335847L138.1416715174742 213.41354316315199L145.60769539199427 219.22356629023258" style="fill:#3A1413;fill-opacity:1;"></path>
<path style="fill:#9C342D;fill-opacity:1;" d="M113.06959778025444 77.24778423440758L125.46642893658887 73.88774159516055L113.20123648801595 96.39825439116949L96.83043134268863 102.37600712591922"></path>
<path style="fill:#7D2A24;fill-opacity:1;" d="M96.83043134268863 102.37600712591922L113.20123648801595 96.39825439116949L109.5466455931147 122.47336933395044L92.3302251711293 130.81233717412516"></path>
<path style="fill:#5A1E1B;fill-opacity:1;" d="M92.3302251711293 130.81233717412516L109.5466455931147 122.47336933395044L113.71280860571449 149.12916110081022L98.67188759802758 158.5351161216035"></path>
<path style="fill:#3A1413;fill-opacity:1;" d="M98.67188759802758 158.5351161216035L113.71280860571449 149.12916110081022L124.74849387509322 174.05951159442182L114.0829192351911 182.49452398394888"></path>
<path style="fill:#3A1413;fill-opacity:1;" d="M114.0829192351911 182.49452398394888L124.74849387509322 174.05951159442182L141.68535204109364 195.2360462953115L136.4388351183888 200.4194555144315"></path>
<path style="fill:#3A1413;fill-opacity:1;" d="M136.4388351183888 200.4194555144315L141.68535204109364 195.2360462953115L163.3995629759326 210.54407917755987"></path>
<path style="fill:#D0463E;fill-opacity:1;" d="M174.49921156104958 55.64376442707366L156.16138177418088 58.1355137774659L146.43048833593187 58.83162464496492"></path>
<path style="fill:#3A1413;fill-opacity:1;" d="M156.4185670928137 223.06142035226983L145.60769539199427 219.22356629023258L163.3995629759326 210.54407917755987"></path>
<path style="fill:#BF4039;fill-opacity:1;" d="M146.43048833593187 58.83162464496492L156.16138177418088 58.1355137774659L142.74801584579365 72.07075824661221L125.46642893658887 73.88774159516055"></path>
<path style="fill:#3A1413;fill-opacity:1;" d="M149.85210540875707 224.80759589522768L128.18214233812097 216.9819725994064L145.60769539199427 219.22356629023258L156.4185670928137 223.06142035226983"></path>
<path style="fill:#A73932;fill-opacity:1;" d="M125.46642893658887 73.88774159516055L142.74801584579365 72.07075824661221L134.7764109076535 93.0284224488105L113.20123648801595 96.39825439116949"></path>
<path style="fill:#802D28;fill-opacity:1;" d="M113.20123648801595 96.39825439116949L134.7764109076535 93.0284224488105L131.94186031987377 117.61337843636319L109.5466455931147 122.47336933395044"></path>
<path style="fill:#501C1A;fill-opacity:1;" d="M109.5466455931147 122.47336933395044L131.94186031987377 117.61337843636319L133.75429449276018 143.4495707864886L113.71280860571449 149.12916110081022"></path>
<path style="fill-opacity:1;fill:#3C1614;" d="M113.71280860571449 149.12916110081022L133.75429449276018 143.4495707864886L139.80476691610076 168.74739159409276L124.74849387509322 174.05951159442182"></path>
<path style="fill:#3A1513;fill-opacity:1;" d="M124.74849387509322 174.05951159442182L139.80476691610076 168.74739159409276L149.79461945173307 191.80629881518294L141.68535204109364 195.2360462953115"></path>
<path style="fill:#3A1513;fill-opacity:1;" d="M141.68535204109364 195.2360462953115L149.79461945173307 191.80629881518294L163.3995629759326 210.54407917755987"></path>
<path style="fill:#D24A3F;fill-opacity:1;" d="M174.49921156104958 55.64376442707366L167.97796757577524 58.13197755566901L156.16138177418088 58.1355137774659"></path>
<path style="fill:#3A1413;fill-opacity:1;" d="M168.65173782836558 224.09711663157276L156.4185670928137 223.06142035226983L163.3995629759326 210.54407917755987"></path>
<path style="fill:#C2453B;fill-opacity:1;" d="M156.16138177418088 58.1355137774659L167.97796757577524 58.13197755566901L162.75283136071414 71.77836276203017L142.74801584579365 72.07075824661221"></path>
<path style="fill:#3A1413;fill-opacity:1;" d="M175.0675908974293 226.95349542573322L149.85210540875707 224.80759589522768L156.4185670928137 223.06142035226983L168.65173782836558 224.09711663157276"></path>
<path style="fill:#AD3D36;fill-opacity:1;" d="M142.74801584579365 72.07075824661221L162.75283136071414 71.77836276203017L159.10720328503356 92.15590879615256L134.7764109076535 93.0284224488105"></path>
<path style="fill-opacity:1;fill:#87312C;" d="M134.7764109076535 93.0284224488105L159.10720328503356 92.15590879615256L157.03164023337496 116.08929019675841L131.94186031987377 117.61337843636319"></path>
<path style="fill:#732926;fill-opacity:1;" d="M131.94186031987377 117.61337843636319L157.03164023337496 116.08929019675841L156.4463011594713 141.47160064853676L133.75429449276018 143.4495707864886"></path>
<path d="M133.75429449276018 143.4495707864886L156.4463011594713 141.47160064853676L157.30214446824908 166.75923036760088L139.80476691610076 168.74739159409276" style="fill:#5C211E;fill-opacity:1;"></path>
<path style="fill:#411715;fill-opacity:1;" d="M139.80476691610076 168.74739159409276L157.30214446824908 166.75923036760088L159.60722701731203 190.44556904446705L149.79461945173307 191.80629881518294"></path>
<path d="M149.79461945173307 191.80629881518294L159.60722701731203 190.44556904446705L163.3995629759326 210.54407917755987" style="fill:#3A1513;fill-opacity:1;"></path>
<path style="fill-opacity:1;fill:#D54A41;" d="M174.49921156104958 55.64376442707366L180.50350499936295 58.79706236020846L167.97796757577524 58.13197755566901"></path>
<path style="fill:#3A1413;fill-opacity:1;" d="M179.95800902689996 222.11258358930237L168.65173782836558 224.09711663157276L163.3995629759326 210.54407917755987"></path>
<path style="fill:#C1433C;fill-opacity:1;" d="M167.97796757577524 58.13197755566901L180.50350499936295 58.79706236020846L183.67815622998185 72.94494967255096L162.75283136071414 71.77836276203017"></path>
<path style="fill:#3A1313;fill-opacity:1;" d="M197.95304675893726 222.8396426746247L175.0675908974293 226.95349542573322L168.65173782836558 224.09711663157276L179.95800902689996 222.11258358930237"></path>
<path style="fill:#AC3D38;fill-opacity:1;" d="M162.75283136071414 71.77836276203017L183.67815622998185 72.94494967255096L184.35399447502695 93.66244023769035L159.10720328503356 92.15590879615256"></path>
<path style="fill:#9E3734;fill-opacity:1;" d="M159.10720328503356 92.15590879615256L184.35399447502695 93.66244023769035L182.98424293217562 117.75697139184842L157.03164023337496 116.08929019675841"></path>
<path style="fill:#903230;fill-opacity:1;" d="M157.03164023337496 116.08929019675841L182.98424293217562 117.75697139184842L179.94844903257734 143.09573059769758L156.4463011594713 141.47160064853676"></path>
<path style="fill:#752927;fill-opacity:1;" d="M156.4463011594713 141.47160064853676L179.94844903257734 143.09573059769758L175.52122615954931 168.10589707253777L157.30214446824908 166.75923036760088"></path>
<path style="fill:#511D1B;fill-opacity:1;" d="M157.30214446824908 166.75923036760088L175.52122615954931 168.10589707253777L169.91924431621808 191.2539932157899L159.60722701731203 190.44556904446705"></path>
<path d="M159.60722701731203 190.44556904446705L169.91924431621808 191.2539932157899L163.3995629759326 210.54407917755987" style="fill:#3A1413;fill-opacity:1;"></path>
<path style="fill:#DB4C43;fill-opacity:1;" d="M174.49921156104958 55.64376442707366L192.3570414149221 60.06179687251566L180.50350499936295 58.79706236020846"></path>
<path style="fill:#3A1313;fill-opacity:1;" d="M188.25633859257454 217.5787233513297L179.95800902689996 222.11258358930237L163.39956297593264 210.54407917755987"></path>
<path style="fill:#BC423C;fill-opacity:1;" d="M180.50350499936295 58.79706236020846L192.3570414149221 60.06179687251566L203.82158804490345 75.49204525087707L183.67815622998185 72.94494967255096"></path>
<path style="fill-opacity:1;fill:#3A1313;" d="M213.60601785745894 213.78809011763306L197.95304675893726 222.8396426746247L179.95800902689996 222.11258358930237L188.25633859257454 217.5787233513297"></path>
<path style="fill:#AA3D38;fill-opacity:1;" d="M183.67815622998185 72.94494967255096L203.82158804490345 75.49204525087707L208.84411935716466 97.48116784256841L184.35399447502695 93.66244023769035"></path>
<path style="fill:#AD3E39;fill-opacity:1;" d="M184.35399447502695 93.66244023769035L208.84411935716466 97.48116784256841L208.14466750496786 122.55585771148557L182.98424293217562 117.75697139184842"></path>
<path style="fill-opacity:1;fill:#9F3935;" d="M182.98424293217562 117.75697139184842L208.14466750496786 122.55585771148557L202.55989199300015 148.25114738495154L179.94844903257734 143.09573059769758"></path>
<path style="fill:#822E2B;fill-opacity:1;" d="M179.94844903257734 143.09573059769758L202.55989199300015 148.25114738495154L192.80896698821869 172.6984762096255L175.52122615954931 168.10589707253777"></path>
<path style="fill:#5A201E;fill-opacity:1;" d="M175.52122615954931 168.10589707253777L192.80896698821869 172.6984762096255L179.5162682781074 194.14845284224208L169.91924431621808 191.2539932157899"></path>
<path style="fill:#3A1513;fill-opacity:1;" d="M169.91924431621808 191.2539932157899L179.5162682781074 194.14845284224208L163.3995629759326 210.54407917755987"></path>
<path style="fill:#E85348;fill-opacity:1;" d="M174.49921156104958 55.64376442707366L202.11812237166475 61.80815849085687L192.3570414149221 60.06179687251566"></path>
<path style="fill-opacity:1;fill:#3A1314;" d="M192.2859473178425 211.4594486920342L188.25633859257454 217.5787233513297L163.39956297593264 210.54407917755987"></path>
<path style="fill:#B5413A;fill-opacity:1;" d="M192.3570414149221 60.06179687251566L202.11812237166475 61.80815849085687L221.27516267882794 79.30604170058425L203.82158804490345 75.49204525087707"></path>
<path style="fill:#3A1313;fill-opacity:1;" d="M219.85009789011858 202.21168002521958L213.60601785745894 213.78809011763306L188.25633859257454 217.5787233513297L192.2859473178425 211.4594486920342"></path>
<path style="fill:#A93D38;fill-opacity:1;" d="M203.82158804490345 75.49204525087707L221.27516267882794 79.30604170058425L230.59997297486962 103.56127602624309L208.84411935716466 97.48116784256841"></path>
<path style="fill-opacity:1;fill:#3A1314;" d="M242.1438513313105 182.72560503360722L235.3681663412579 197.26297463477488L213.60601785745894 213.78809011763306L219.85009789011858 202.21168002521958"></path>
<path d="M208.84411935716466 97.48116784256841L230.59997297486962 103.56127602624309L230.5358785998349 130.46761530104172L208.14466750496786 122.55585771148557" style="fill:#AB3D39;fill-opacity:1;"></path>
<path style="fill:#481818;fill-opacity:1;" d="M254.7903674778693 154.52684195126983L248.29716908731905 168.34706677876633L235.3681663412579 197.26297463477488L242.1438513313105 182.72560503360722"></path>
<path style="fill:#9D3934;fill-opacity:1;" d="M208.14466750496786 122.55585771148557L230.5358785998349 130.46761530104172L222.31462726073642 156.8556785684355L202.55989199300015 148.25114738495154"></path>
<path style="fill:#812F2B;fill-opacity:1;" d="M202.55989199300015 148.25114738495154L222.31462726073642 156.8556785684355L207.37178183892937 180.32047224837234L192.80896698821869 172.6984762096255"></path>
<path style="fill:#59201D;fill-opacity:1;" d="M192.80896698821869 172.6984762096255L207.37178183892937 180.32047224837234L187.1845979495309 198.85691982664713L179.5162682781074 194.14845284224208"></path>
<path style="fill:#3A1513;fill-opacity:1;" d="M179.5162682781074 194.14845284224208L187.1845979495309 198.85691982664713L163.3995629759326 210.54407917755987"></path>
<path style="fill:#3A1314;fill-opacity:1;" d="M191.76225221480567 204.8814544157393L192.2859473178425 211.4594486920342L163.39956297593264 210.54407917755987"></path>
<path style="fill:#C5463F;fill-opacity:1;" d="M202.11812237166475 61.80815849085687L208.34136078332955 63.8533344167175L233.6765149491655 84.16267344714332L221.27516267882794 79.30604170058425"></path>
<path style="fill:#3E1415;fill-opacity:1;" d="M217.13810879486854 190.48686273408987L219.85009789011858 202.21168002521958L192.2859473178425 211.4594486920342L191.76225221480567 204.8814544157393"></path>
<path style="fill:#9A3833;fill-opacity:1;" d="M221.27516267882794 79.30604170058425L233.6765149491655 84.16267344714332L246.88957833554787 111.73369689245982L230.59997297486962 103.56127602624309"></path>
<path style="fill:#571D1E;fill-opacity:1;" d="M236.62176855993755 168.62823537461435L242.1438513313105 182.72560503360722L219.85009789011858 202.21168002521958L217.13810879486854 190.48686273408987"></path>
<path d="M230.59997297486962 103.56127602624309L246.88957833554787 111.73369689245982L247.3756158551691 141.34043088656964L230.5358785998349 130.46761530104172" style="fill-opacity:1;fill:#9A3733;"></path>
<path style="fill:#6E2425;fill-opacity:1;" d="M247.3756158551691 141.34043088656964L254.7903674778693 154.52684195126983L242.1438513313105 182.72560503360722L236.62176855993755 168.62823537461435"></path>
<path style="fill:#8C322E;fill-opacity:1;" d="M230.5358785998349 130.46761530104172L247.3756158551691 141.34043088656964L236.62176855993755 168.62823537461435L222.31462726073642 156.8556785684355"></path>
<path style="fill:#842C2D;fill-opacity:1;" d="M246.88957833554787 111.73369689245982L253.98577104553348 121.44786332888177L254.7903674778693 154.52684195126983L247.3756158551691 141.34043088656964"></path>
<path style="fill:#722826;fill-opacity:1;" d="M222.31462726073642 156.8556785684355L236.62176855993755 168.62823537461435L217.13810879486854 190.48686273408987L207.37178183892937 180.32047224837234"></path>
<path style="fill-opacity:1;fill:#C64242;" d="M233.6765149491655 84.16267344714332L238.20095059022 89.60328157928683L253.98577104553348 121.44786332888177L246.88957833554787 111.73369689245982"></path>
<path style="fill-opacity:1;fill:#4F1C1A;" d="M207.37178183892937 180.32047224837234L217.13810879486854 190.48686273408987L191.76225221480567 204.8814544157393L187.1845979495309 198.85691982664713"></path>
<path style="fill:#3A1413;fill-opacity:1;" d="M187.1845979495309 198.85691982664713L191.76225221480567 204.8814544157393L163.39956297593264 210.54407917755987"></path>
<path style="fill:#FF5552;fill-opacity:1;" d="M174.49921156104958 55.64376442707366L209.70705512058856 65.93387731993899L208.34136078332955 63.8533344167175"></path>
<path style="fill:#FF6968;fill-opacity:1;" d="M208.34136078332955 63.8533344167175L209.70705512058856 65.93387731993899L238.20095059022 89.60328157928683L233.6765149491655 84.16267344714332"></path>
<path d="M174.49921156104958 55.64376442707366L208.34136078332955 63.8533344167175L202.11812237166475 61.80815849085687" style="fill-opacity:1;fill:#FB594E;"></path>
<path d="M174.49921156104958 55.64376442707366L205.36869186852311 67.71093195649686L209.70705512058856 65.93387731993899" style="fill:#FA5050;fill-opacity:1;"></path>
<path style="fill-opacity:1;fill:#FF5F60;" d="M209.70705512058856 65.93387731993899L205.36869186852311 67.71093195649686L232.13113931920867 94.8091510439934L238.20095059022 89.60328157928683"></path>
<path style="fill-opacity:1;fill:#B83D3E;" d="M238.20095059022 89.60328157928683L232.13113931920867 94.8091510439934L247.6715991223563 131.4051555231587L253.98577104553348 121.44786332888177"></path>
<path style="fill:#652122;fill-opacity:1;" d="M253.98577104553348 121.44786332888177L247.6715991223563 131.4051555231587L248.29716908731905 168.34706677876633L254.7903674778693 154.52684195126983"></path>
<path style="fill:#DC4744;fill-opacity:1;" d="M174.49921156104958 55.64376442707366L195.44584809640875 68.82243499679024L205.36869186852311 67.71093195649686"></path>
<path d="M205.36869186852311 67.71093195649686L195.44584809640875 68.82243499679024L214.30155084071737 98.61453997263814L232.13113931920867 94.8091510439934" style="fill:#9B312F;fill-opacity:1;"></path>
<path style="fill:#5A1D1C;fill-opacity:1;" d="M232.13113931920867 94.8091510439934L214.30155084071737 98.61453997263814L225.29415232334242 139.3572182393365L247.6715991223563 131.4051555231587"></path>
<path style="fill:#3A1314;fill-opacity:1;" d="M247.6715991223563 131.4051555231587L225.29415232334242 139.3572182393365L224.9625351766888 179.72995067954352L248.29716908731905 168.34706677876633"></path>
<path style="fill-opacity:1;fill:#3A1313;" d="M248.29716908731905 168.34706677876633L224.9625351766888 179.72995067954352L214.42616361774833 209.09181355074213L235.3681663412579 197.26297463477488"></path>
<path style="fill:#3A1313;fill-opacity:1;" d="M235.3681663412579 197.26297463477488L214.42616361774833 209.09181355074213L197.95304675893726 222.8396426746247L213.60601785745894 213.78809011763306"></path>
<path style="fill:#C43E3A;fill-opacity:1;" d="M174.49921156104958 55.64376442707366L181.40273708521187 68.98988137548497L195.44584809640875 68.82243499679024"></path>
<path style="fill:#8C2C28;fill-opacity:1;" d="M195.44584809640875 68.82243499679024L181.40273708521187 68.98988137548497L186.95648324343568 99.8510928037029L214.30155084071737 98.61453997263814"></path>
<path style="fill:#752522;fill-opacity:1;" d="M214.30155084071737 98.61453997263814L186.95648324343568 99.8510928037029L189.16354932879537 142.66427550923453L225.29415232334242 139.3572182393365"></path>
<path d="M225.29415232334242 139.3572182393365L189.16354932879537 142.66427550923453L187.11915279532198 184.90754488801778L224.9625351766888 179.72995067954352" style="fill:#561C1A;fill-opacity:1;"></path>
<path style="fill:#3A1313;fill-opacity:1;" d="M224.9625351766888 179.72995067954352L187.11915279532198 184.90754488801778L181.77215694486574 214.57087963641237L214.42616361774833 209.09181355074213"></path>
<path style="fill:#3A1313;fill-opacity:1;" d="M214.42616361774833 209.09181355074213L181.77215694486574 214.57087963641237L175.0675908974293 226.95349542573322L197.95304675893726 222.8396426746247"></path>
<path style="fill-opacity:1;fill:#B93D36;" d="M174.49921156104958 55.64376442707366L165.92466148198196 68.13822308409392L181.40273708521187 68.98988137548497"></path>
<path style="fill:#B83C35;fill-opacity:1;" d="M181.40273708521187 68.98988137548497L165.92466148198196 68.13822308409392L156.2435264968028 97.98325565721653L186.95648324343568 99.8510928037029"></path>
<path style="fill:#A73731;fill-opacity:1;" d="M186.95648324343568 99.8510928037029L156.2435264968028 97.98325565721653L148.14550965077126 139.83800254630046L189.16354932879537 142.66427550923453"></path>
<path style="fill:#742622;fill-opacity:1;" d="M189.16354932879537 142.66427550923453L148.14550965077126 139.83800254630046L144.2049557397916 181.60582729976701L187.11915279532198 184.90754488801778"></path>
<path style="fill:#511C19;fill-opacity:1;" d="M187.11915279532198 184.90754488801778L144.2049557397916 181.60582729976701L145.168787991888 211.54581233946567L181.77215694486574 214.57087963641237"></path>
<path style="fill:#3A1413;fill-opacity:1;" d="M181.77215694486574 214.57087963641237L145.168787991888 211.54581233946567L149.85210540875707 224.80759589522768L175.0675908974293 226.95349542573322"></path>
<path style="fill:#B73E35;fill-opacity:1;" d="M174.49921156104958 55.64376442707366L152.14433301280357 66.44753790019358L165.92466148198196 68.13822308409392"></path>
<path style="fill:#FA564A;fill-opacity:1;" d="M165.92466148198196 68.13822308409392L152.14433301280357 66.44753790019358L129.8407134586742 93.52416137171387L156.2435264968028 97.98325565721653"></path>
<path d="M156.2435264968028 97.98325565721653L129.8407134586742 93.52416137171387L113.77598317307073 131.79492063515323L148.14550965077126 139.83800254630046" style="fill:#FF8073;fill-opacity:1;"></path>
<path style="fill:#8F3029;fill-opacity:1;" d="M148.14550965077126 139.83800254630046L113.77598317307073 131.79492063515323L108.53243471849945 170.9493557131741L144.2049557397916 181.60582729976701"></path>
<path style="fill:#69241F;fill-opacity:1;" d="M144.2049557397916 181.60582729976701L108.53243471849945 170.9493557131741L114.42373577457013 200.9813879262611L145.168787991888 211.54581233946567"></path>
<path style="fill-opacity:1;fill:#3F1614;" d="M145.168787991888 211.54581233946567L114.42373577457013 200.9813879262611L128.18214233812097 216.9819725994064L149.85210540875707 224.80759589522768"></path>
<path style="fill:#B93E35;fill-opacity:1;" d="M174.49921156104958 55.64376442707366L142.606369868679 64.28832644998145L152.14433301280357 66.44753790019358"></path>
<path style="fill:#C44238;fill-opacity:1;" d="M152.14433301280357 66.44753790019358L142.606369868679 64.28832644998145L113.2693994795851 87.7544853026011L129.8407134586742 93.52416137171387"></path>
<path style="fill:#D1473D;fill-opacity:1;" d="M129.8407134586742 93.52416137171387L113.2693994795851 87.7544853026011L93.67220721610198 121.23541429363976L113.77598317307073 131.79492063515323"></path>
<path style="fill:#9B342C;fill-opacity:1;" d="M113.77598317307073 131.79492063515323L93.67220721610198 121.23541429363976L88.05947852118891 156.6573499719543L108.53243471849945 170.9493557131741"></path>
<path style="fill:#772823;fill-opacity:1;" d="M108.53243471849945 170.9493557131741L88.05947852118891 156.6573499719543L96.16142970325154 186.326719431155L114.42373577457013 200.9813879262611"></path>
<path style="fill:#4B1A17;fill-opacity:1;" d="M114.42373577457013 200.9813879262611L96.16142970325154 186.326719431155L114.38851023344097 205.65219218335847L128.18214233812097 216.9819725994064"></path>
<path d="M174.49921156104958 55.64376442707366L146.43048833593187 58.83162464496492L140.15915113220728 60.18691316814879" style="fill:#CB443C;fill-opacity:1;"></path>
<path d="M174.49921156104958 55.64376442707366L138.60347546000105 62.08342500987699L142.606369868679 64.28832644998145" style="fill:#BE3F37;fill-opacity:1;"></path>
<path style="fill:#B43B32;fill-opacity:1;" d="M142.606369868679 64.28832644998145L138.60347546000105 62.08342500987699L108.14074016426954 82.019880551645L113.2693994795851 87.7544853026011"></path>
<path style="fill:#B13B32;fill-opacity:1;" d="M113.2693994795851 87.7544853026011L108.14074016426954 82.019880551645L89.00569503040799 110.87337041824527L93.67220721610198 121.23541429363976"></path>
<path style="fill:#9C342C;fill-opacity:1;" d="M93.67220721610198 121.23541429363976L89.00569503040799 110.87337041824527L83.76290026022448 142.50753292007715L88.05947852118891 156.6573499719543"></path>
<path style="fill:#792923;fill-opacity:1;" d="M88.05947852118891 156.6573499719543L83.76290026022448 142.50753292007715L91.68491096204349 171.33073570532133L96.16142970325154 186.326719431155"></path>
<path style="fill:#AE3A31;fill-opacity:1;" d="M138.60347546000105 62.08342500987699L140.15915113220728 60.18691316814879L113.06959778025444 77.24778423440758L108.14074016426954 82.019880551645"></path>
<path style="fill-opacity:1;fill:#C5433A;" d="M174.49921156104958 55.64376442707366L140.15915113220728 60.18691316814879L138.60347546000105 62.08342500987699"></path>
</g>
</svg>
