<?xml version="1.0" standalone="yes"?>
<!DOCTYPE svg PUBLIC "-//W3C//DTD SVG 1.1//EN" "http://www.w3.org/Graphics/SVG/1.1/DTD/svg11.dtd">
<svg height="300" xmlns="http://www.w3.org/2000/svg" version="1.1" id="seen-svg" width="300"><g><path d="M183.91278380794282 169.4181096569903L165.8498764182085 163.31974766899205L163.25992185793368 161.3091102397232L157.51898621820942 132.47046666464277" style="fill:#3E36A4;fill-opacity:1;"></path>
<path style="fill:#3F36A4;fill-opacity:1;" d="M189.70189827158634 179.05843609452683L197.13974665587293 176.28401404260597L196.66095480158714 180.22103968578492"></path>
<path style="fill:#3E36A4;fill-opacity:1;" d="M189.70189827158634 179.05843609452683L143.09470231684944 171.27207983174193L197.8077085287713 170.79147485521827L197.13974665587293 176.28401404260597"></path>
<path style="fill:#3E36A4;fill-opacity:1;" d="M146.7833093038822 171.23967870818566L143.09470231684944 171.27207983174193L110.08897675069487 165.75803135263217L109.91852385185922 161.40849421096328"></path>
<path style="fill:#3E36A4;fill-opacity:1;" d="M121.9913269479832 164.62809669016664L109.91852385185922 161.40849421096328L109.7207290496731 156.36125920108972"></path>
<path style="fill:#3E36A4;fill-opacity:1;" d="M160.93417147026608 171.11537600120366L146.7833093038822 171.23967870818566L121.9913269479832 164.62809669016664L109.7207290496731 156.36125920108972L109.66717281383791 154.9946362892801"></path>
<path style="fill-opacity:1;fill:#3E36A4;" d="M106.72529980580296 79.92530040864007L106.7186913824278 79.7566697598541L106.82485012214525 79.7674671518951"></path>
<path style="fill:#3E36A4;fill-opacity:1;" d="M106.7293435909981 80.028487822989L106.72529980580296 79.92530040864007L106.75112536116762 79.88435496858303"></path>
<path d="M115.86949681530757 156.94493674487683L109.66717281383791 154.9946362892801L108.51700170757091 125.64510935159726" style="fill:#3D36A4;fill-opacity:1;"></path>
<path d="M132.4739780867643 162.16616146338492L115.86949681530757 156.94493674487683L108.54754569718219 125.7751361776918" style="fill:#3E36A4;fill-opacity:1;"></path>
<path style="fill:#3D36A4;fill-opacity:1;" d="M150.93951885566815 167.9725902416783L132.4739780867643 162.16616146338492L121.24520935293991 145.08771030667486"></path>
<path style="fill:#3D36A4;fill-opacity:1;" d="M174.39027539695832 170.9971761258991L160.93417147026608 171.11537600120366L150.93951885566815 167.9725902416783L139.48031321654565 159.14118282411437"></path>
<path style="fill:#3D36A4;fill-opacity:1;" d="M107.042204018496 88.01191350161447L106.7293435909981 80.028487822989L106.75112536116762 79.88435496858303L106.82485012214525 79.7674671518951L118.61542670199822 80.9666852102567"></path>
<path style="fill:#3D36A4;fill-opacity:1;" d="M108.35131649142056 121.41723170097195L107.042204018496 88.01191350161447L118.61542670199822 80.9666852102567L135.39156718713974 82.67298434525995"></path>
<path style="fill:#3D36A4;fill-opacity:1;" d="M122.51693878777316 146.06780972347707L121.24520935293991 145.08771030667486L108.54754569718219 125.7751361776918L108.51700170757091 125.64510935159726L108.35131649142056 121.41723170097195L135.3087391578502 82.79166333573573"></path>
<path style="fill:#3D36A4;fill-opacity:1;" d="M140.9722454436871 159.64786737450987L139.48031321654565 159.14118282411437L122.51693878777316 146.06780972347707L130.53011393604407 106.42969553755749"></path>
<path style="fill:#3D36A4;fill-opacity:1;" d="M157.730515764445 165.33924966950076L140.9722454436871 159.64786737450987L135.03655140688824 129.39668877263867"></path>
<path style="fill:#3D36A4;fill-opacity:1;" d="M175.72427813912807 170.9854581012287L174.39027539695832 170.9971761258991L157.730515764445 165.33924966950076L147.4233683870209 149.01485317142314"></path>
<path style="fill:#3D36A4;fill-opacity:1;" d="M188.2297895335593 170.87560833375554L175.72427813912807 170.9854581012287L165.8498764182085 163.31974766899205"></path>
<path style="fill:#3E36A4;fill-opacity:1;" d="M134.8240028406885 85.18946859197841L135.3087391578502 82.79166333573573L135.39156718713974 82.67298434525995L139.2593001021911 83.06637097272774"></path>
<path style="fill:#3E36A4;fill-opacity:1;" d="M132.35711325017823 115.74097105390382L130.53011393604407 106.42969553755749L134.8240028406885 85.18946859197841L139.2593001021911 83.06637097272774L159.7238218649831 85.14781490275647"></path>
<path style="fill:#3D36A4;fill-opacity:1;" d="M143.38299602546095 142.61573632417165L135.03655140688824 129.39668877263867L132.35711325017823 115.74097105390382L159.61770875738344 85.26643840681659"></path>
<path style="fill:#3D36A4;fill-opacity:1;" d="M163.25992185793368 161.3091102397232L147.4233683870209 149.01485317142314L143.38299602546095 142.61573632417165L152.86833347265247 109.108679433907"></path>
<path style="fill-opacity:1;fill:#3E36A4;" d="M188.2297895335593 170.87560833375554L183.91278380794282 169.4181096569903L171.96789271496056 152.6969246821669L197.8609726310427 170.35349301691758L197.8077085287713 170.79147485521827"></path>
<path style="fill:#3E36A4;fill-opacity:1;" d="M194.11420343437902 167.79855993943758L198.0251389728856 169.00358054076122L197.8609726310427 170.35349301691758"></path>
<path style="fill-opacity:1;fill:#3F36A4;" d="M153.33852801690804 111.47062419756313L152.86833347265247 109.108679433907L159.61770875738344 85.26643840681659L159.7238218649831 85.14781490275647L187.6765401964093 87.99088236229198"></path>
<path style="fill:#3F36A4;fill-opacity:1;" d="M163.29269469393415 140.5528549142953L157.51898621820942 132.47046666464277L153.33852801690804 111.47062419756313L187.50840384860294 88.10585110360941"></path>
<path style="fill:#3F36A4;fill-opacity:1;" d="M191.69118568383348 166.1462969167506L171.96789271496056 152.6969246821669L163.29269469393415 140.5528549142953L176.5023406922519 111.94306489796577"></path>
<path style="fill:#3E36A4;fill-opacity:1;" d="M194.11420343437902 167.79855993943758L191.69118568383348 166.1462969167506L183.2399424081124 135.9870122328264L200.03929105788234 152.44154353676254L198.0251389728856 169.00358054076122"></path>
<path style="fill:#3F36A4;fill-opacity:1;" d="M177.33430961401396 110.14116527440612L187.50840384860294 88.10585110360941L187.6765401964093 87.99088236229198L207.63048800251985 90.02039587951737L205.74839226882082 105.49655550955964"></path>
<path style="fill:#3F36A4;fill-opacity:1;" d="M192.5713365734415 145.126873581253L183.2399424081124 135.9870122328264L176.5023406922519 111.94306489796577L177.33430961401396 110.14116527440612L205.74839226882082 105.49655550955964L201.68940057732127 138.87296789385488"></path>
<path style="fill:#3F36A4;fill-opacity:1;" d="M192.5713365734415 145.126873581253L201.68940057732127 138.87296789385488L200.03929105788234 152.44154353676254"></path>
<path style="fill:#29266B;fill-opacity:1;" d="M72.16783833151868 198.48589972407007L64.28690114328306 199.15110817786152L58.29994617817255 153.274787724345"></path>
<path style="fill:#28266B;fill-opacity:1;" d="M68.1662938092172 221.22589768690437L67.31474200785848 222.35258515488945L67.29511442858727 222.2021846388306"></path>
<path style="fill:#28266B;fill-opacity:1;" d="M84.78352165429959 199.2396575828571L68.1662938092172 221.22589768690437L67.29511442858727 222.2021846388306L66.6409156623895 217.18924694123916"></path>
<path style="fill:#28276B;fill-opacity:1;" d="M95.93950846476908 184.47918087162554L84.78352165429959 199.2396575828571L66.6409156623895 217.18924694123916L65.8954633943152 211.47705980566326"></path>
<path style="fill:#28266B;fill-opacity:1;" d="M69.5646594635081 208.17988357559776L65.8954633943152 211.47705980566326L64.9158935381818 203.97089667457794"></path>
<path style="fill:#29266B;fill-opacity:1;" d="M81.20089759924475 197.72344378196965L69.5646594635081 208.17988357559776L64.9158935381818 203.97089667457794L64.28690114328306 199.15110817786152"></path>
<path style="fill-opacity:1;fill:#28266B;" d="M106.85330509089238 170.03914578841525L95.93950846476908 184.47918087162554L81.20089759924475 197.72344378196965L73.98621973423077 198.33241510004504"></path>
<path style="fill-opacity:1;fill:#29266B;" d="M54.15428012638685 121.50773662853408L53.21095465183424 114.27930380838791L56.434798926376814 112.19931308331095"></path>
<path style="fill:#29266B;fill-opacity:1;" d="M56.24522454503217 137.53004458963863L54.15428012638685 121.50773662853408L56.383484509373105 112.40876381331532"></path>
<path style="fill:#29266B;fill-opacity:1;" d="M84.39337020941277 189.37353395905882L73.98621973423077 198.33241510004504L72.16783833151868 198.48589972407007L63.670614831205 170.78385826662455"></path>
<path style="fill:#2A266B;fill-opacity:1;" d="M96.45491830324275 178.99048280527774L84.39337020941277 189.37353395905882L75.6961395309378 181.5715455272906"></path>
<path style="fill:#29266B;fill-opacity:1;" d="M109.91852385185923 161.4084942109633L110.08897675069487 165.75803135263217L106.85330509089238 170.03914578841525L96.45491830324275 178.99048280527774L88.93046656896603 179.92604274779407"></path>
<path style="fill:#2A266B;fill-opacity:1;" d="M57.533595095604085 147.40245896144427L56.24522454503217 137.53004458963863L56.383484509373105 112.40876381331532L56.434798926376814 112.19931308331095L74.10506685485184 100.79864038609517"></path>
<path style="fill:#2A266B;fill-opacity:1;" d="M68.6950544696072 175.29111136639003L63.670614831205 170.78385826662455L58.29994617817255 153.274787724345L57.533595095604085 147.40245896144427L74.03150830204017 101.0055085206643"></path>
<path style="fill:#2A266B;fill-opacity:1;" d="M87.60201191857378 180.09121743430242L75.6961395309378 181.5715455272906L68.6950544696072 175.29111136639003L71.6937301332443 133.5483292854794"></path>
<path style="fill:#29266B;fill-opacity:1;" d="M102.72658867904839 167.7538651445949L88.93046656896603 179.92604274779407L87.60201191857378 180.09121743430242L79.12093615257405 155.27811906923324"></path>
<path style="fill:#29266B;fill-opacity:1;" d="M109.7207290496731 156.36125920108972L109.91852385185923 161.4084942109633L102.72658867904839 167.7538651445949L92.51378864013367 162.35633165717923"></path>
<path style="fill:#29266B;fill-opacity:1;" d="M109.66717281383791 154.99463628928012L109.7207290496731 156.36125920108972L107.40889642387125 157.16672512171033"></path>
<path style="fill:#29266B;fill-opacity:1;" d="M106.72529980580296 79.92530040864006L71.87535439286717 131.02004588958602L74.03150830204017 101.0055085206643L74.10506685485184 100.79864038609517L106.7186913824278 79.7566697598541"></path>
<path style="fill-opacity:1;fill:#2A266B;" d="M106.72529980580296 79.92530040864006L106.7293435909981 80.02848782298899L85.07313204273545 158.42389461740683L79.12093615257405 155.27811906923324L71.6937301332443 133.5483292854794L71.87535439286717 131.02004588958602"></path>
<path style="fill:#2A266B;fill-opacity:1;" d="M97.97271493228817 111.72745161992758L108.51700170757091 125.64510935159721L109.66717281383791 154.99463628928012L107.40889642387125 157.16672512171033L92.51378864013367 162.35633165717923L85.07313204273545 158.42389461740683"></path>
<path style="fill:#2A266B;fill-opacity:1;" d="M104.24464040555014 89.02310428914578L106.7293435909981 80.02848782298899L107.042204018496 88.01191350161449"></path>
<path style="fill:#2A266B;fill-opacity:1;" d="M105.76335828434924 122.01050916514365L97.97271493228817 111.72745161992758L104.24464040555014 89.02310428914578L107.042204018496 88.01191350161449L108.35131649142056 121.41723170097195"></path>
<path style="fill-opacity:1;fill:#29266B;" d="M105.76335828434924 122.01050916514365L108.35131649142056 121.41723170097195L108.51700170757091 125.64510935159721"></path>
<path style="fill:#16133A;fill-opacity:1;" d="M143.0947023168495 171.27207983174196L189.70189827158632 179.05843609452683L147.8396618864346 239.85347598713977L88.27707641472952 226.90843602188767"></path>
<path style="fill:#15133A;fill-opacity:1;" d="M184.49605737062743 232.39485969703782L181.07293457795032 247.07623234938933L176.85434831140822 246.1593855170235"></path>
<path style="fill:#15133A;fill-opacity:1;" d="M189.70189827158632 179.05843609452683L196.66095480158714 180.22103968578492L184.49605737062743 232.39485969703782L176.85434831140822 246.1593855170235L147.8396618864346 239.85347598713977"></path>
<path style="fill:#15133A;fill-opacity:1;" d="M68.1662938092172 221.2258976869044L116.29384144940423 198.47322575670725L88.27707641472952 226.90843602188767L67.31474200785848 222.35258515488945"></path>
<path style="fill:#15133A;fill-opacity:1;" d="M68.1662938092172 221.2258976869044L84.78352165429959 199.2396575828571L121.91245325751551 192.77069700421436L116.29384144940423 198.47322575670725"></path>
<path style="fill-opacity:1;fill:#16133A;" d="M84.78352165429959 199.2396575828571L95.93950846476908 184.47918087162554L128.14607012101675 186.44397776996817L121.91245325751551 192.77069700421436"></path>
<path d="M95.93950846476908 184.47918087162554L106.85330509089238 170.03914578841525L135.71067483877925 178.766391672632L128.14607012101675 186.44397776996817" style="fill:#16133A;fill-opacity:1;"></path>
<path style="fill:#16133A;fill-opacity:1;" d="M106.85330509089238 170.03914578841525L110.08897675069487 165.75803135263217L143.0947023168495 171.27207983174196L135.71067483877925 178.766391672632"></path>
<path style="fill:#16133A;fill-opacity:1;" d="M107.11427244914216 149.99869683778604L127.51429815455145 142.90459155746018L124.98929885526388 116.95510647305483L102.01033220011853 123.4224317506005"></path>
<path style="fill:#16133A;fill-opacity:1;" d="M102.01033220011853 123.4224317506005L124.98929885526388 116.95510647305483L127.1528064056592 92.47813747237802L104.83513930896194 97.43574668379814"></path>
<path style="fill:#211C51;fill-opacity:1;" d="M118.97652955560507 174.866169151836L134.19344709693368 168.50008334207794L127.51429815455145 142.90459155746018L107.11427244914216 149.99869683778604"></path>
<path style="fill:#16133A;fill-opacity:1;" d="M104.90063100037018 97.31205820219783L104.83513930896194 97.43574668379814L127.1528064056592 92.47813747237802L127.19399431587158 92.3655767760749"></path>
<path d="M136.48093252991498 196.09571944355827L144.6312476159853 192.09402454788457L134.19344709693368 168.50008334207794L118.97652955560507 174.866169151836" style="fill:#352D7E;fill-opacity:1;"></path>
<path style="fill:#564AD4;fill-opacity:1;" d="M158.4367714116441 211.73017628010606L136.48093252991498 196.09571944355827L131.2248422644447 201.96155741311136"></path>
<path style="fill:#4B40B4;fill-opacity:1;" d="M158.4367714116441 211.73017628010606L144.6312476159853 192.09402454788457L136.48093252991498 196.09571944355827"></path>
<path style="fill:#6053F4;fill-opacity:1;" d="M131.2248422644447 201.96155741311136L136.48093252991498 196.09571944355827L118.97652955560507 174.866169151836L108.23120881694848 184.63107425683216"></path>
<path d="M127.19399431587158 92.3655767760749L127.1528064056592 92.47813747237802L152.23061042332904 90.66144862643027L152.2478964581318 90.55343140174341" style="fill:#15133A;fill-opacity:1;"></path>
<path style="fill:#3F37A6;fill-opacity:1;" d="M108.23120881694848 184.63107425683216L118.97652955560507 174.866169151836L107.11427244914216 149.99869683778604L91.82805204605138 161.27739069034246"></path>
<path style="fill:#15133A;fill-opacity:1;" d="M124.98929885526388 116.95510647305483L150.6813813952926 114.45535531782829L152.23061042332904 90.66144862643027L127.1528064056592 92.47813747237802"></path>
<path style="fill-opacity:1;fill:#262164;" d="M91.82805204605138 161.27739069034246L107.11427244914216 149.99869683778604L102.01033220011853 123.4224317506005L84.32559222559743 133.95940304182"></path>
<path d="M127.51429815455145 142.90459155746018L150.6004505890318 140.03876034267077L150.6813813952926 114.45535531782829L124.98929885526388 116.95510647305483" style="fill:#1E1A4B;fill-opacity:1;"></path>
<path style="fill:#1C194B;fill-opacity:1;" d="M84.32559222559743 133.95940304182L102.01033220011853 123.4224317506005L104.83513930896194 97.43574668379814L87.8284675369913 105.60829998031863"></path>
<path style="fill:#2A2465;fill-opacity:1;" d="M134.19344709693368 168.50008334207794L151.88755827117438 165.82123280804262L150.6004505890318 140.03876034267077L127.51429815455145 142.90459155746018"></path>
<path style="fill:#16133A;fill-opacity:1;" d="M87.91736991327971 105.46593094204029L87.8284675369913 105.60829998031863L104.83513930896194 97.43574668379814L104.90063100037018 97.31205820219783"></path>
<path d="M144.6312476159853 192.09402454788457L154.50314688089142 190.34026147811753L151.88755827117438 165.82123280804262L134.19344709693368 168.50008334207794" style="fill-opacity:1;fill:#342C79;"></path>
<path style="fill:#6152EE;fill-opacity:1;" d="M158.4367714116441 211.73017628010606L131.2248422644447 201.96155741311136L129.86546369590127 209.01253001673615"></path>
<path style="fill-opacity:1;fill:#4439A0;" d="M158.4367714116441 211.73017628010606L154.50314688089142 190.34026147811753L144.6312476159853 192.09402454788457"></path>
<path style="fill:#8170FF;fill-opacity:1;" d="M129.86546369590127 209.01253001673615L131.2248422644447 201.96155741311136L108.23120881694848 184.63107425683216L104.14722101764559 197.04037264814602"></path>
<path style="fill:#16133A;fill-opacity:1;" d="M152.2478964581318 90.55343140174341L152.23061042332904 90.66144862643027L178.15669299816966 91.87889280162052L178.15033768483116 91.76935823152019"></path>
<path style="fill:#5045D0;fill-opacity:1;" d="M104.14722101764559 197.04037264814602L108.23120881694848 184.63107425683216L91.82805204605138 161.27739069034246L84.78035395676334 176.24250724919852"></path>
<path style="fill:#1B1846;fill-opacity:1;" d="M150.6813813952926 114.45535531782829L177.18006871903987 115.79106242180501L178.15669299816966 91.87889280162052L152.23061042332904 90.66144862643027"></path>
<path style="fill-opacity:1;fill:#332C85;" d="M84.78035395676334 176.24250724919852L91.82805204605138 161.27739069034246L84.32559222559743 133.95940304182L75.52000467614104 148.30421394798685"></path>
<path style="fill:#292362;fill-opacity:1;" d="M150.6004505890318 140.03876034267077L174.46366321086288 141.3298429226602L177.18006871903987 115.79106242180501L150.6813813952926 114.45535531782829"></path>
<path style="fill:#2B2571;fill-opacity:1;" d="M75.52000467614104 148.30421394798685L84.32559222559743 133.95940304182L87.8284675369913 105.60829998031863L79.6116938780886 116.77839224428371"></path>
<path style="fill:#382F84;fill-opacity:1;" d="M151.88755827117438 165.82123280804262L170.2922053985362 166.88534937025997L174.46366321086288 141.3298429226602L150.6004505890318 140.03876034267077"></path>
<path style="fill-opacity:1;fill:#231F5D;" d="M79.71890147088016 116.60903632013625L79.6116938780886 116.77839224428371L87.8284675369913 105.60829998031863L87.91736991327971 105.46593094204029"></path>
<path style="fill:#473DAA;fill-opacity:1;" d="M154.50314688089142 190.34026147811753L164.87514397347005 190.97644392607816L170.2922053985362 166.88534937025997L151.88755827117438 165.82123280804262"></path>
<path style="fill:#6153EF;fill-opacity:1;" d="M158.4367714116441 211.73017628010606L129.86546369590127 209.01253001673615L133.00121122484637 216.2520761422135"></path>
<path style="fill-opacity:1;fill:#413797;" d="M158.4367714116441 211.73017628010606L164.87514397347005 190.97644392607816L154.50314688089142 190.34026147811753"></path>
<path style="fill:#5247D2;fill-opacity:1;" d="M121.32811561275922 213.52927891519917L133.00121122484637 216.2520761422135L129.86546369590127 209.01253001673615L104.14722101764559 197.04037264814602L106.33367349562222 203.5590856908707"></path>
<path d="M178.15033768483116 91.76935823152019L178.15669299816966 91.87889280162052L203.2035634999153 96.08236310612298L203.1733179170338 95.96515566225835" style="fill-opacity:1;fill:#15133A;"></path>
<path style="fill-opacity:1;fill:#3A339A;" d="M106.33367349562222 203.5590856908707L104.14722101764559 197.04037264814602L84.78035395676334 176.24250724919852L85.22404280690179 177.88608007015895"></path>
<path style="fill:#241F59;fill-opacity:1;" d="M177.18006871903987 115.79106242180501L202.7714083344051 120.91863815670824L203.2035634999153 96.08236310612298L178.15669299816966 91.87889280162052"></path>
<path style="fill:#3A339B;fill-opacity:1;" d="M85.22404280690179 177.88608007015895L84.78035395676334 176.24250724919852L75.52000467614104 148.30421394798685L75.54365818592186 148.39543282375652"></path>
<path style="fill:#322A75;fill-opacity:1;" d="M174.46366321086288 141.3298429226602L197.34672080086278 146.72442391444153L202.7714083344051 120.91863815670824L177.18006871903987 115.79106242180501"></path>
<path style="fill:#7261FF;fill-opacity:1;" d="M170.2922053985362 166.88534937025997L187.71399148280463 171.62321829553525L197.34672080086278 146.72442391444153L174.46366321086288 141.3298429226602"></path>
<path style="fill:#7261FF;fill-opacity:1;" d="M164.87514397347005 190.97644392607816L174.51694401968172 193.9373058526176L187.71399148280463 171.62321829553525L170.2922053985362 166.88534937025997"></path>
<path style="fill:#5A4EE0;fill-opacity:1;" d="M158.4367714116441 211.73017628010606L133.00121122484637 216.2520761422135L140.51933501095004 222.4490128595272"></path>
<path d="M158.4367714116441 211.73017628010606L174.51694401968172 193.9373058526176L164.87514397347005 190.97644392607816" style="fill:#413696;fill-opacity:1;"></path>
<path style="fill:#453CB1;fill-opacity:1;" d="M138.81683386832708 222.48747347282406L140.51933501095004 222.4490128595272L133.00121122484637 216.2520761422135L121.32811561275922 213.52927891519917"></path>
<path style="fill:#1A1643;fill-opacity:1;" d="M203.1733179170338 95.96515566225835L203.2035634999153 96.08236310612298L205.3770395623415 96.78616472749016L205.38239284275085 96.6798176303978"></path>
<path d="M158.4367714116441 211.73017628010606L140.51933501095004 222.4490128595272L151.36677307441406 226.3809390801681" style="fill:#5649D1;fill-opacity:1;"></path>
<path style="fill:#2A2465;fill-opacity:1;" d="M202.7714083344051 120.91863815670824L202.89829955219756 120.96864684375592L205.3770395623415 96.78616472749016L203.2035634999153 96.08236310612298"></path>
<path style="fill:#483EB4;fill-opacity:1;" d="M151.32980342967167 226.40545941392986L151.36677307441406 226.3809390801681L140.51933501095004 222.4490128595272L138.81683386832708 222.48747347282406"></path>
<path style="fill:#382F81;fill-opacity:1;" d="M197.34672080086278 146.72442391444153L199.30854075869905 147.6542689865596L202.89829955219756 120.96864684375592L202.7714083344051 120.91863815670824"></path>
<path style="fill:#5346C7;fill-opacity:1;" d="M158.4367714116441 211.7301762801061L151.36677307441406 226.3809390801681L163.61593659997402 227.19637798038912"></path>
<path style="fill:#4F43B9;fill-opacity:1;" d="M187.71399148280463 171.62321829553525L194.82622600406245 175.61008676449356L199.30854075869905 147.6542689865596L197.34672080086278 146.72442391444153"></path>
<path style="fill:#4B3FB6;fill-opacity:1;" d="M164.18822845228402 227.70976544338285L163.61593659997402 227.19637798038912L151.36677307441406 226.3809390801681L151.32980342967167 226.40545941392986"></path>
<path style="fill:#5346C2;fill-opacity:1;" d="M174.51694401968172 193.9373058526176L182.20553152305035 198.9457265113403L192.26435766395673 189.38657736163174L194.82622600406245 175.61008676449356L187.71399148280463 171.62321829553525"></path>
<path style="fill:#5244C0;fill-opacity:1;" d="M158.43677141164412 211.7301762801061L163.61593659997402 227.19637798038912L174.92815397430257 224.72366122607917"></path>
<path style="fill:#433798;fill-opacity:1;" d="M158.43677141164412 211.73017628010606L182.20553152305035 198.9457265113403L174.51694401968172 193.9373058526176"></path>
<path style="fill:#4C3EB2;fill-opacity:1;" d="M183.29669696551218 226.0333230954553L174.92815397430257 224.72366122607917L163.61593659997402 227.19637798038912L164.18822845228402 227.70976544338285"></path>
<path style="fill:#44389A;fill-opacity:1;" d="M192.26435766395673 189.38657736163174L182.20553152305035 198.9457265113403L186.7792831866046 205.47410897468598L189.36585580732563 203.98958429169187"></path>
<path style="fill:#5041B8;fill-opacity:1;" d="M158.43677141164412 211.7301762801061L174.92815397430257 224.72366122607917L183.2366040122326 219.53148848286813"></path>
<path style="fill:#44399E;fill-opacity:1;" d="M158.43677141164412 211.73017628010606L186.7792831866046 205.47410897468598L182.20553152305035 198.9457265113403"></path>
<path style="fill-opacity:1;fill:#4A3DAA;" d="M185.6711043032789 219.28898150554113L183.2366040122326 219.53148848286813L174.92815397430257 224.72366122607917L183.29669696551218 226.0333230954553"></path>
<path style="fill:#413795;fill-opacity:1;" d="M189.36585580732563 203.98958429169187L186.7792831866046 205.47410897468598L187.28474217807818 212.7023762098403L187.4408814845041 212.6526938129512"></path>
<path style="fill:#4D3FAF;fill-opacity:1;" d="M158.43677141164412 211.73017628010606L183.2366040122326 219.53148848286813L187.28474217807818 212.7023762098403"></path>
<path style="fill:#473CA6;fill-opacity:1;" d="M158.43677141164412 211.73017628010606L187.28474217807818 212.7023762098403L186.7792831866046 205.47410897468598"></path>
<path style="fill:#46399D;fill-opacity:1;" d="M187.4408814845041 212.6526938129512L187.28474217807818 212.7023762098403L183.2366040122326 219.53148848286813L185.6711043032789 219.28898150554113"></path>
<path style="fill:#2C2777;fill-opacity:1;" d="M80.17042326108316 117.88066948431505L80.05494255664532 118.03127349209225L79.6116938780886 116.77839224428371L79.71890147088016 116.60903632013625"></path>
<path style="fill:#352F8F;fill-opacity:1;" d="M75.54365818592186 148.39543282375652L75.52000467614104 148.30421394798685L79.6116938780886 116.77839224428371L80.05494255664532 118.03127349209225"></path>
<path d="M184.49605737062743 232.39485969703782L196.66095480158714 180.22103968578492L197.13974665587293 176.28401404260597L182.91875293958418 229.60971321930717L181.57321034515164 242.3422474461273" style="fill:#25246D;fill-opacity:1;"></path>
<path style="fill:#25246D;fill-opacity:1;" d="M184.49605737062743 232.39485969703782L181.57321034515164 242.3422474461273L181.07293457795032 247.07623234938933"></path>
<path style="fill:#26246D;fill-opacity:1;" d="M187.5444881040563 212.26419104463713L197.13974665587293 176.28401404260597L197.8077085287713 170.79147485521827"></path>
<path style="fill:#26246D;fill-opacity:1;" d="M185.6711043032789 219.28898150554113L183.29669696551218 226.0333230954553L182.91875293958418 229.60971321930717"></path>
<path style="fill:#26246D;fill-opacity:1;" d="M197.66331628467037 171.37495044199704L197.8077085287713 170.79147485521827L197.8609726310427 170.35349301691758"></path>
<path style="fill:#26246D;fill-opacity:1;" d="M196.13159919938315 177.56447627617158L197.66331628467037 171.37495044199704L197.8609726310427 170.35349301691758L198.0251389728856 169.00358054076122"></path>
<path style="fill:#26246D;fill-opacity:1;" d="M195.8518581013797 178.69488395367563L196.13159919938315 177.56447627617158L198.0251389728856 169.00358054076122L200.03929105788234 152.44154353676254"></path>
<path style="fill:#26246D;fill-opacity:1;" d="M193.96479707059308 186.32032151842503L195.8518581013797 178.69488395367563L199.0439553526831 158.68185529079915"></path>
<path style="fill:#26246D;fill-opacity:1;" d="M193.20427984310984 189.3935006792878L193.96479707059308 186.32032151842503L194.53291330453732 183.22889170404"></path>
<path style="fill:#26246D;fill-opacity:1;" d="M205.7483922688208 105.49655550955964L207.63048800251985 90.02039587951737L206.5893997129484 93.10436052844774"></path>
<path style="fill:#26246D;fill-opacity:1;" d="M201.68940057732127 138.8729678938549L205.7483922688208 105.49655550955964L206.58197961093236 93.21369529308544"></path>
<path style="fill:#27246D;fill-opacity:1;" d="M197.03649230847924 169.60555494120757L199.0439553526831 158.68185529079915L200.03929105788234 152.44154353676254L201.68940057732127 138.8729678938549L204.01776418540493 117.14385775278969"></path>
<path style="fill-opacity:1;fill:#27246D;" d="M193.7551738457912 186.83745628334813L194.53291330453732 183.22889170404L197.03649230847924 169.60555494120757L200.6109915899375 142.74450408829904"></path>
<path style="fill:#26246D;fill-opacity:1;" d="M191.91139788127947 194.61791606262005L193.20427984310984 189.3935006792878L193.7551738457912 186.83745628334813L196.62074922965797 168.40760836038808"></path>
<path style="fill:#27246D;fill-opacity:1;" d="M191.4419797330657 196.51479100336974L191.91139788127947 194.61791606262005L192.26383941278385 192.6563718276679"></path>
<path style="fill:#27246D;fill-opacity:1;" d="M204.3790065327735 113.77261679783882L206.58197961093236 93.21369529308544L206.5893997129484 93.10436052844774L205.4923791279284 96.35401066594306"></path>
<path style="fill:#27246D;fill-opacity:1;" d="M200.60017079695433 142.81409764015885L200.6109915899375 142.74450408829904L204.01776418540493 117.14385775278969L204.3790065327735 113.77261679783882L205.48526643778376 96.46528801254419"></path>
<path style="fill-opacity:1;fill:#27246D;" d="M196.6093137813249 168.47125335039857L196.62074922965797 168.40760836038808L200.60017079695433 142.81409764015885L202.90509645001092 120.94542440345921"></path>
<path style="fill:#27246D;fill-opacity:1;" d="M192.9309194835596 188.9436792244544L196.6093137813249 168.47125335039857L199.42522243254106 147.21442160594486"></path>
<path d="M190.51251477500773 200.27067218085296L191.4419797330657 196.51479100336974L192.26383941278385 192.6563718276679L192.9309194835596 188.9436792244544L195.30520663564843 173.68765544358484" style="fill:#27246D;fill-opacity:1;"></path>
<path style="fill:#27246D;fill-opacity:1;" d="M190.184827809286 201.5948246365113L190.51251477500773 200.27067218085296L190.7553287508536 198.9238866641453"></path>
<path style="fill:#27246D;fill-opacity:1;" d="M205.30901494421312 98.13752690461678L205.48526643778376 96.46528801254419L205.4923791279284 96.35401066594306L205.38239284275085 96.67981763039782"></path>
<path style="fill:#27246D;fill-opacity:1;" d="M202.8855742803573 121.0927940546141L202.90509645001092 120.94542440345921L205.30901494421312 98.13752690461678L205.3770395623415 96.78616472749019"></path>
<path style="fill:#28246D;fill-opacity:1;" d="M199.00119979861105 149.93898648478518L199.42522243254106 147.21442160594486L202.8855742803573 121.0927940546141L202.89829955219756 120.96864684375592"></path>
<path d="M193.76259406801492 182.243869132449L195.30520663564843 173.68765544358484L199.00119979861105 149.93898648478518L199.30854075869905 147.6542689865596" style="fill:#28246D;fill-opacity:1;"></path>
<path d="M189.41755848731307 204.69528838124415L190.184827809286 201.5948246365113L190.7553287508536 198.9238866641453L193.76259406801492 182.243869132449L194.82622600406245 175.61008676449356" style="fill:#28246D;fill-opacity:1;"></path>
<path style="fill:#28246D;fill-opacity:1;" d="M189.1756675905371 205.67274692696893L189.41755848731307 204.69528838124415L189.59198047404777 203.7573311792416"></path>
<path d="M188.44867223310857 208.61046733849318L189.1756675905371 205.67274692696893L189.59198047404777 203.7573311792416L192.26435766395676 189.38657736163165" style="fill:#28246D;fill-opacity:1;"></path>
<path style="fill:#28246D;fill-opacity:1;" d="M188.2860697438861 209.26752882681296L188.44867223310857 208.61046733849318L188.5652207266061 208.0232817707701"></path>
<path style="fill:#28246D;fill-opacity:1;" d="M187.44088148450413 212.65269381295116L187.5444881040563 212.26419104463713L188.2860697438861 209.26752882681296L188.5652207266061 208.0232817707701L189.3658558073256 203.98958429169193"></path>
<path style="fill:#5043BD;fill-opacity:1;" d="M159.7238218649831 85.14781490275647L139.2593001021911 83.06637097272774L131.0820977967195 84.74201365627037L104.9006310003702 97.31205820219783"></path>
<path d="M56.4347989263768 112.19931308331095L53.21095465183424 114.27930380838791L61.509171828445815 115.3878165518841" style="fill:#5043BD;fill-opacity:1;"></path>
<path style="fill:#4F43BD;fill-opacity:1;" d="M74.10506685485186 100.79864038609519L56.4347989263768 112.19931308331095L61.509171828445815 115.3878165518841L80.17042326108316 117.88066948431505"></path>
<path style="fill:#4F43BD;fill-opacity:1;" d="M106.82485012214525 79.7674671518951L106.7186913824278 79.7566697598541L74.10506685485186 100.79864038609519L79.71890147088016 116.60903632013625"></path>
<path style="fill:#5043BD;fill-opacity:1;" d="M118.61542670199822 80.9666852102567L106.82485012214525 79.7674671518951L100.06621966504153 88.95358916044347"></path>
<path style="fill:#5043BD;fill-opacity:1;" d="M135.39156718713974 82.67298434525995L118.61542670199822 80.9666852102567L100.06621966504153 88.95358916044347L87.91736991327969 105.4659309420403"></path>
<path style="fill:#5143BD;fill-opacity:1;" d="M139.2593001021911 83.06637097272774L135.39156718713974 82.67298434525995L131.0820977967195 84.74201365627037"></path>
<path style="fill:#5143BD;fill-opacity:1;" d="M187.6765401964093 87.99088236229198L159.7238218649831 85.14781490275647L127.19399431587159 92.3655767760749"></path>
<path d="M187.6765401964093 87.99088236229198L152.2478964581318 90.55343140174341L206.5893997129484 93.10436052844774L207.63048800251985 90.02039587951737" style="fill:#5043BD;fill-opacity:1;"></path>
<path d="M178.15033768483121 91.76935823152019L205.4923791279284 96.35401066594306L206.5893997129484 93.10436052844774" style="fill:#5043BD;fill-opacity:1;"></path>
<path style="fill:#5043BD;fill-opacity:1;" d="M203.17331791703373 95.96515566225833L205.38239284275085 96.67981763039782L205.4923791279284 96.35401066594306"></path>
<path style="fill:#28215F;fill-opacity:1;" d="M66.6409156623895 217.18924694123916L67.29511442858727 222.2021846388306L153.15997592507404 228.67730659130137L159.30891409188246 228.1378420952069"></path>
<path style="fill:#28215F;fill-opacity:1;" d="M176.85434831140822 246.1593855170235L181.07293457795032 247.07623234938933L181.57321034515164 242.3422474461273"></path>
<path style="fill:#28215F;fill-opacity:1;" d="M147.8396618864346 239.85347598713977L176.85434831140822 246.1593855170235L181.57321034515164 242.3422474461273L182.91875293958418 229.60971321930717"></path>
<path d="M88.27707641472952 226.90843602188767L147.8396618864346 239.85347598713977L176.07838629983198 231.60723057220696" style="fill:#29215F;fill-opacity:1;"></path>
<path style="fill:#29215F;fill-opacity:1;" d="M161.9088037973013 230.84892802375617L176.07838629983198 231.60723057220696L182.91875293958418 229.60971321930717L183.29669696551218 226.0333230954553"></path>
<path style="fill-opacity:1;fill:#29215F;" d="M67.29511442858727 222.2021846388306L67.31474200785848 222.35258515488945L88.27707641472952 226.90843602188767L161.9088037973013 230.84892802375617L166.9388658564185 229.71638114543407"></path>
<path style="fill:#29215F;fill-opacity:1;" d="M153.15997592507404 228.67730659130137L166.9388658564185 229.71638114543407L183.29669696551218 226.0333230954553"></path>
<path style="fill:#29215F;fill-opacity:1;" d="M104.08059609303454 221.61269312197163L159.30891409188246 228.1378420952069L164.18822845228405 227.70976544338285"></path>
<path style="fill:#29215F;fill-opacity:1;" d="M65.8954633943152 211.47705980566326L66.6409156623895 217.18924694123916L104.08059609303454 221.61269312197163L150.5559184574849 226.3269596883763"></path>
<path style="fill:#29215F;fill-opacity:1;" d="M64.9158935381818 203.97089667457794L65.8954633943152 211.47705980566326L91.58102883850094 215.9824463523388"></path>
<path style="fill:#29215F;fill-opacity:1;" d="M64.28690114328306 199.15110817786152L64.9158935381818 203.97089667457794L91.58102883850094 215.9824463523388L150.5559184574849 226.3269596883763L151.32980342967164 226.40545941392986"></path>
<path style="fill-opacity:1;fill:#29215F;" d="M54.15428012638685 121.50773662853409L61.5091718284458 115.3878165518841L53.21095465183424 114.27930380838791"></path>
<path style="fill:#29215F;fill-opacity:1;" d="M61.33975201196708 115.52878881609297L54.15428012638685 121.50773662853409L56.24522454503219 137.53004458963866"></path>
<path style="fill-opacity:1;fill:#29215F;" d="M58.29994617817256 153.27478772434506L64.28690114328306 199.15110817786152L82.14452844321265 204.74258127780192"></path>
<path d="M68.29231509276117 174.84300706614704L82.14452844321265 204.74258127780192L112.88372538380617 214.3674541637859" style="fill:#29215F;fill-opacity:1;"></path>
<path style="fill:#29215F;fill-opacity:1;" d="M99.08249484944758 202.13447021963108L112.88372538380617 214.3674541637859L138.81683386832705 222.48747347282404"></path>
<path style="fill:#29215F;fill-opacity:1;" d="M61.33975201196708 115.52878881609297L56.24522454503219 137.53004458963866L57.533595095604085 147.40245896144427L80.17042326108317 117.88066948431505L61.5091718284458 115.3878165518841"></path>
<path style="fill:#29215F;fill-opacity:1;" d="M80.0549425566453 118.03127349209225L57.533595095604085 147.40245896144427L58.29994617817256 153.27478772434506L68.29231509276117 174.84300706614704L71.22770869587823 177.44484917923327"></path>
<path style="fill:#29215F;fill-opacity:1;" d="M75.54365818592186 148.39543282375655L71.22770869587823 177.44484917923327L90.76308466355184 194.76040230767654"></path>
<path style="fill:#29215F;fill-opacity:1;" d="M85.22404280690178 177.88608007015893L90.76308466355184 194.76040230767654L99.08249484944758 202.13447021963108L109.58623541344176 207.51477026106608"></path>
<path style="fill-opacity:1;fill:#29215F;" d="M106.33367349562222 203.5590856908707L109.58623541344176 207.51477026106608L121.3281156127593 213.52927891519923"></path>
</g>
</svg>
