<?xml version="1.0" standalone="yes"?>
<!DOCTYPE svg PUBLIC "-//W3C//DTD SVG 1.1//EN" "http://www.w3.org/Graphics/SVG/1.1/DTD/svg11.dtd">
<svg version="1.1" id="seen-svg" width="300" height="300" xmlns="http://www.w3.org/2000/svg"><g><path style="fill:#36A338;fill-opacity:1;" d="M200.8273557200369 120.28231507782543L223.49801637956062 131.7901383188665L213.0377185735875 156.1512071878514L195.14578560098215 145.88410297846943"></path>
<path style="fill-opacity:1;fill:#39AD3C;" d="M206.36823078757303 97.91864846855148L226.7389364288224 107.0968908496715L223.49801637956062 131.7901383188665L200.8273557200369 120.28231507782543"></path>
<path style="fill-opacity:1;fill:#2D8930;" d="M195.14578560098215 145.88410297846943L213.0377185735875 156.1512071878514L197.04331818487526 178.186079156518L189.57530649468058 173.36104595517745"></path>
<path style="fill:#37A639;fill-opacity:1;" d="M211.35539612738057 81.05822725222437L220.92635893273894 84.96077216606271L226.7389364288224 107.0968908496715L206.36823078757303 97.91864846855148"></path>
<path style="fill:#216323;fill-opacity:1;" d="M189.57530649468058 173.36104595517745L197.04331818487526 178.186079156518L187.0047554027364 187.25915933782466"></path>
<path d="M213.091900030471 77.49499548382742L220.92635893273894 84.96077216606271L211.35539612738057 81.05822725222437" style="fill:#3EB73D;fill-opacity:1;"></path>
<path style="fill:#4BDF4D;fill-opacity:1;" d="M214.49762757347258 76.59031033544423L234.7279962053169 94.49691448257983L220.92635893273894 84.96077216606271L213.091900030471 77.49499548382742"></path>
<path d="M191.4303081364602 229.8893774092216L180.91222251042868 232.59610652996042L181.12863686803522 226.79434185257116" style="fill:#133A14;fill-opacity:1;"></path>
<path style="fill:#339A36;fill-opacity:1;" d="M220.92635893273894 84.96077216606271L234.7279962053169 94.49691448257983L244.06598544359713 120.44113422758323L226.7389364288224 107.0968908496715"></path>
<path style="fill:#349D36;fill-opacity:1;" d="M226.7389364288224 107.0968908496715L244.06598544359713 120.44113422758323L240.87963279579964 147.27163624518292L223.49801637956062 131.7901383188665"></path>
<path style="fill:#319332;fill-opacity:1;" d="M223.49801637956062 131.7901383188665L240.87963279579964 147.27163624518292L227.60933716963768 171.41138755478485L213.0377185735875 156.1512071878514"></path>
<path style="fill:#297C2B;fill-opacity:1;" d="M213.0377185735875 156.1512071878514L227.60933716963768 171.41138755478485L207.04112574459472 190.60389575407316L197.04331818487526 178.186079156518"></path>
<path d="M205.37677719995202 218.7744881398463L191.4303081364602 229.8893774092216L181.12863686803522 226.79434185257116L181.9087614186471 218.54348482830153" style="fill:#133A13;fill-opacity:1;"></path>
<path style="fill:#1E5A1F;fill-opacity:1;" d="M197.04331818487526 178.186079156518L207.04112574459472 190.60389575407316L184.3753146169077 202.13967909531746L187.0047554027364 187.25915933782466"></path>
<path style="fill:#133A13;fill-opacity:1;" d="M228.82517454875722 207.79589831965214L210.44724810131208 222.9990527788235L191.4303081364602 229.8893774092216L205.37677719995202 218.7744881398463"></path>
<path style="fill:#3BB33F;fill-opacity:1;" d="M234.7279962053169 94.49691448257983L240.97575833073358 105.09260223735848L252.7016506206033 136.01989968410214L244.06598544359713 120.44113422758323"></path>
<path d="M244.06598544359713 120.44113422758323L252.7016506206033 136.01989968410214L249.3813468038278 165.67501209930552L240.87963279579964 147.27163624518292" style="fill:#2B822D;fill-opacity:1;"></path>
<path style="fill-opacity:1;fill:#133A13;" d="M210.39572277545716 204.7883698405622L205.37677719995202 218.7744881398463L181.9087614186471 218.54348482830153L182.9084863044813 211.20565934808081"></path>
<path style="fill-opacity:1;fill:#277529;" d="M240.87963279579964 147.27163624518292L249.3813468038278 165.67501209930552L233.91351155930164 189.38270377563177L227.60933716963768 171.41138755478485"></path>
<path style="fill-opacity:1;fill:#164115;" d="M233.91351155930164 189.3827037756318L228.82517454875722 207.79589831965214L205.37677719995202 218.7744881398463L210.39572277545716 204.7883698405622"></path>
<path style="fill:#206222;fill-opacity:1;" d="M227.60933716963768 171.41138755478485L233.91351155930164 189.38270377563177L210.39572277545716 204.7883698405622L207.04112574459472 190.60389575407316"></path>
<path d="M249.3813468038278 165.67501209930552L244.97425986219156 184.79829499309722L228.82517454875722 207.79589831965214L233.91351155930164 189.3827037756318" style="fill:#1A4F1A;fill-opacity:1;"></path>
<path style="fill:#184919;fill-opacity:1;" d="M207.04112574459472 190.60389575407316L210.39572277545716 204.7883698405622L182.9084863044813 211.20565934808081L184.3753146169077 202.13967909531746"></path>
<path style="fill:#216521;fill-opacity:1;" d="M252.7016506206033 136.01989968410214L248.70566381924087 151.88980879815398L244.97425986219156 184.79829499309722L249.3813468038278 165.67501209930552"></path>
<path style="fill:#133A13;fill-opacity:1;" d="M248.70566381924087 151.88980879815398L229.17179886407573 164.764822176448L224.6752950365224 200.77002872218262L244.97425986219156 184.79829499309722"></path>
<path style="fill:#133A13;fill-opacity:1;" d="M244.97425986219156 184.79829499309722L224.6752950365224 200.77002872218262L210.44724810131208 222.9990527788235L228.82517454875722 207.79589831965214"></path>
<path style="fill:#70FF74;fill-opacity:1;" d="M214.71708978351108 79.61745344674496L240.97575833073358 105.09260223735848L234.7279962053169 94.49691448257983L214.49762757347258 76.59031033544423"></path>
<path style="fill:#153E15;fill-opacity:1;" d="M229.17179886407573 164.764822176448L198.86562989336218 169.99665545083374L189.84367263240713 208.64612189983617L224.6752950365224 200.77002872218262"></path>
<path style="fill-opacity:1;fill:#133A13;" d="M224.6752950365224 200.77002872218262L189.84367263240713 208.64612189983617L183.5739252886346 229.8349108116958L210.44724810131208 222.9990527788235"></path>
<path d="M210.44724810131208 222.9990527788235L183.5739252886346 229.8349108116958L180.91222251042868 232.59610652996042L191.4303081364602 229.8893774092216" style="fill:#133A14;fill-opacity:1;"></path>
<path style="fill:#256B23;fill-opacity:1;" d="M196.51400731605605 135.72915280249148L203.84207396348535 104.1176237779026L206.84579586565906 93.330647651483"></path>
<path style="fill:#256B23;fill-opacity:1;" d="M177.64196903494278 240.9102401859625L176.63542207106312 244.98528125384274L179.0117096059805 229.64828335122576"></path>
<path style="fill:#256B23;fill-opacity:1;" d="M187.61673620604316 174.10985503484298L188.4554376976797 170.49189714479886L180.36150632226912 229.9000970638065L177.64196903494278 240.9102401859625L179.0117096059805 229.64828335122576"></path>
<path style="fill:#256B23;fill-opacity:1;" d="M188.4554376976797 170.49189714479886L189.62846092974354 165.43175512768022L182.9671301334429 210.77522274646196"></path>
<path style="fill:#256B23;fill-opacity:1;" d="M181.12863686803522 226.7943418525712L180.36150632226912 229.9000970638065L181.9087614186471 218.54348482830153"></path>
<path style="fill-opacity:1;fill:#256B23;" d="M189.62846092974354 165.43175512768022L189.72214768026643 165.0276128653534L189.53364422032385 166.07716946375842"></path>
<path style="fill-opacity:1;fill:#266B23;" d="M189.72214768026643 165.0276128653534L190.01103965466092 163.78140189690575L188.52977629336326 172.91046662788514L189.53364422032385 166.07716946375842"></path>
<path style="fill:#256B23;fill-opacity:1;" d="M190.01103965466092 163.78140189690575L193.57251647833155 148.41804162761017L188.34682164111993 174.15583314748625L188.52977629336326 172.91046662788514"></path>
<path style="fill:#256B23;fill-opacity:1;" d="M187.11574308772558 182.53574584496326L188.34682164111993 174.15583314748625L192.32357289342633 154.56938620660782"></path>
<path style="fill:#266B23;fill-opacity:1;" d="M186.62111241585944 185.9026811524657L187.11574308772558 182.53574584496326L187.69430370984682 179.42884046700297"></path>
<path d="M203.84207396348535 104.1176237779026L207.28538528378797 89.26400126334391L206.87262095145383 93.23431331379078" style="fill-opacity:1;fill:#256B23;"></path>
<path style="fill:#246B23;fill-opacity:1;" d="M193.57251647833155 148.41804162761017L196.51400731605605 135.72915280249148L201.39920254530904 115.6818033918104L190.25571960625626 165.6738828714275L192.32357289342633 154.56938620660782"></path>
<path style="fill-opacity:1;fill:#246B23;" d="M187.0656412341054 183.22113801514757L187.69430370984682 179.42884046700297L190.25571960625626 165.6738828714275L195.9216930909187 140.25509788976143"></path>
<path style="fill-opacity:1;fill:#246B23;" d="M185.78222647564846 191.61295116141525L186.62111241585944 185.9026811524657L187.0656412341054 183.22113801514757L190.74134861735078 165.38806821483956"></path>
<path style="fill-opacity:1;fill:#256B23;" d="M185.47826235792564 193.68202527748977L185.78222647564846 191.61295116141525L186.15088807052584 189.66339095775425"></path>
<path style="fill:#246B23;fill-opacity:1;" d="M202.16225930319385 112.55045147492146L206.84579586565906 93.330647651483L206.87262095145383 93.23431331379078L206.43852592217726 97.40980182082757"></path>
<path d="M201.39920254530904 115.6818033918104L202.16225930319385 112.55045147492146L206.41108257460644 97.50696837940018L195.9075461694501 140.32373312420899L195.9216930909187 140.25509788976143" style="fill:#246B23;fill-opacity:1;"></path>
<path style="fill:#246B23;fill-opacity:1;" d="M190.7292195855623 165.45220909095013L190.74134861735078 165.38806821483956L195.9075461694501 140.32373312420899L200.83082379312205 120.25441440573812"></path>
<path style="fill:#246B23;fill-opacity:1;" d="M186.84975736904497 185.9676228308719L190.7292195855623 165.45220909095013L195.21520570196438 145.38047837533617"></path>
<path style="fill:#246B23;fill-opacity:1;" d="M184.87737016254079 197.7722794079323L185.47826235792564 193.68202527748977L186.15088807052584 189.66339095775425L186.84975736904497 185.9676228308719L189.8860663657823 171.23618143552295"></path>
<path style="fill:#246B23;fill-opacity:1;" d="M184.66582899015512 199.21223346417517L184.87737016254079 197.7722794079323L185.12937083351835 196.43717857074324"></path>
<path style="fill:#246B23;fill-opacity:1;" d="M206.41108257460644 97.50696837940018L206.43852592217726 97.40980182082757L206.39505167753458 97.82797341141256L206.02754529806188 99.07042517216294"></path>
<path style="fill:#246B23;fill-opacity:1;" d="M200.79909555741432 120.39637663805058L200.83082379312205 120.25441440573812L206.02754529806188 99.07042517216294L206.36823078757303 97.91864846855154"></path>
<path style="fill:#246B23;fill-opacity:1;" d="M194.66317076265312 148.0588192047403L195.21520570196438 145.38047837533617L200.79909555741432 120.39637663805058L200.8273557200369 120.28231507782544"></path>
<path style="fill:#236B23;fill-opacity:1;" d="M188.26591966870993 179.81972688101524L189.8860663657823 171.23618143552295L194.66317076265312 148.0588192047403L195.14578560098215 145.88410297846943"></path>
<path style="fill:#246B23;fill-opacity:1;" d="M184.17113423880787 202.57960495867488L184.66582899015512 199.21223346417517L185.12937083351835 196.43717857074324L188.26591966870993 179.81972688101524L189.57530649468058 173.36104595517745"></path>
<path style="fill:#246B23;fill-opacity:1;" d="M184.01535639439498 203.63997980866435L184.17113423880787 202.57960495867488L184.34406314085973 201.64463599603272"></path>
<path style="fill:#246B23;fill-opacity:1;" d="M183.5476912530106 206.82336160477234L184.01535639439498 203.63997980866435L184.34406314085973 201.64463599603272L187.0047554027364 187.25915933782463"></path>
<path style="fill:#246B23;fill-opacity:1;" d="M183.44319821353994 207.53464241284405L183.5476912530106 206.82336160477234L183.65274188716165 206.22885951693416"></path>
<path style="fill:#246B23;fill-opacity:1;" d="M182.9084863044813 211.2056593480808L182.9671301334429 210.77522274646196L183.44319821353994 207.53464241284405L183.65274188716165 206.22885951693416L184.37531461690767 202.1396790953175"></path>
<path d="M101.17253669136997 155.78144812395232L101.2958317235236 151.58377283717425L138.5734393808798 163.08716889652564L134.8153027444259 162.9145849832235" style="fill:#36A33E;fill-opacity:1;"></path>
<path style="fill-opacity:1;fill:#36A33F;" d="M188.4554376976797 170.49189714479886L187.61673620604316 174.10985503484298L180.8790232251953 172.68128555470327"></path>
<path style="fill:#36A33F;fill-opacity:1;" d="M189.62846092974354 165.43175512768022L188.4554376976797 170.49189714479886L180.8790232251953 172.68128555470327L134.8153027444259 162.9145849832235"></path>
<path style="fill:#36A33E;fill-opacity:1;" d="M101.2958317235236 151.58377283717425L101.43935019076818 146.69757496994788L113.63201902689329 155.39056349062434"></path>
<path style="fill:#36A33E;fill-opacity:1;" d="M101.43935019076818 146.69757496994788L101.47829292724879 145.37173921104758L152.90581070873841 163.74535058866206L138.5734393808798 163.08716889652564L113.63201902689329 155.39056349062434"></path>
<path style="fill:#36A33E;fill-opacity:1;" d="M103.67309224179377 70.64808910792709L103.6781487558078 70.47593615461511L103.79135829920465 70.49646549545604"></path>
<path style="fill:#36A33E;fill-opacity:1;" d="M103.669998377551 70.75342212293666L103.67309224179377 70.64808910792709L103.7037726958323 70.60875507265595"></path>
<path d="M101.47829292724879 145.37173921104758L102.32323508337302 116.6050261848527L107.8235812222343 147.638732957593" style="fill:#36A33E;fill-opacity:1;"></path>
<path style="fill:#36A33F;fill-opacity:1;" d="M124.64132648949277 153.6472421977481L107.8235812222343 147.638732957593L102.34637160089285 116.73556558770585"></path>
<path style="fill:#36A33F;fill-opacity:1;" d="M143.05942044197596 160.2275111898697L124.64132648949277 153.6472421977481L114.28788401249554 136.50601350178837"></path>
<path style="fill:#36A33F;fill-opacity:1;" d="M166.4103842025344 164.36551754013155L152.90581070873841 163.74535058866206L143.05942044197596 160.2275111898697L132.07384413469686 151.17014563644906"></path>
<path style="fill:#36A33F;fill-opacity:1;" d="M103.43128867677811 78.88047958945133L103.669998377551 70.75342212293666L103.7037726958323 70.60875507265595L103.79135829920465 70.49646549545604L116.30790655523202 72.7662077591374"></path>
<path style="fill-opacity:1;fill:#36A33F;" d="M102.44632296121279 112.4144036278465L103.43128867677811 78.88047958945133L116.30790655523202 72.7662077591374L133.9239278482368 75.96068496074044"></path>
<path style="fill-opacity:1;fill:#36A33F;" d="M102.32323508337302 116.6050261848527L102.44632296121279 112.4144036278465L133.82720521282363 76.07269792210607L115.54062527208112 137.53887106105915L114.28788401249554 136.50601350178837L102.34637160089285 116.73556558770585"></path>
<path d="M133.56306506095143 151.7424462797245L132.07384413469686 151.17014563644906L115.54062527208112 137.53887106105915L126.92779021907911 99.26350986929457" style="fill:#36A33E;fill-opacity:1;"></path>
<path d="M150.1562014127867 158.1191110449688L133.56306506095143 151.7424462797245L129.82471020360882 122.17548914328952" style="fill:#36A33E;fill-opacity:1;"></path>
<path style="fill:#36A33E;fill-opacity:1;" d="M167.74266235585895 164.42669939687337L166.4103842025344 164.36551754013155L150.1562014127867 158.1191110449688L141.01777159458487 141.96347037990026"></path>
<path d="M180.1752419171624 164.99763745493036L167.74266235585895 164.42669939687337L158.51717389922177 156.67234553080718" style="fill:#36A33E;fill-opacity:1;"></path>
<path style="fill:#36A33E;fill-opacity:1;" d="M133.82720521282363 76.07269792210607L133.9239278482368 75.96068496074044L137.9535245062201 76.69140925094636L133.12358018086604 78.43777319475714"></path>
<path style="fill-opacity:1;fill:#36A33E;" d="M137.9535245062201 76.69140925094636L159.07941011034896 80.5223628359572L128.1084721468956 108.60162069174558L126.92779021907911 99.26350986929457L133.12358018086604 78.43777319475714"></path>
<path style="fill:#36A33E;fill-opacity:1;" d="M137.3923723440085 135.55420218778033L129.82471020360882 122.17548914328952L128.1084721468956 108.60162069174558L158.95927449843344 80.63128168202572"></path>
<path style="fill:#36A33E;fill-opacity:1;" d="M156.08001343004545 154.6238247619383L141.01777159458487 141.96347037990026L137.3923723440085 135.55420218778033L149.92649063755206 103.63444024344496"></path>
<path style="fill:#36A33E;fill-opacity:1;" d="M176.0303905931236 163.40436989172355L158.51717389922177 156.67234553080718L156.08001343004545 154.6238247619383L152.7108575677171 126.70629043890598"></path>
<path d="M189.72214768026643 165.0276128653534L189.62846092974354 165.43175512768022L180.1752419171624 164.99763745493036L176.0303905931236 163.40436989172355L165.59447440130674 146.98131025528107" style="fill:#36A33E;fill-opacity:1;"></path>
<path style="fill:#36A33E;fill-opacity:1;" d="M190.01103965466092 163.78140189690575L189.72214768026643 165.0276128653534L186.2726698953848 162.44757461496062"></path>
<path style="fill:#36A33E;fill-opacity:1;" d="M159.07941011034896 80.5223628359572L187.41561423497933 85.66083062902501L150.2102808051323 105.9859852795612L149.92649063755206 103.63444024344496L158.95927449843344 80.63128168202572"></path>
<path style="fill:#36A33F;fill-opacity:1;" d="M157.89378152659415 134.86268683987836L152.7108575677171 126.70629043890598L150.2102808051323 105.9859852795612L187.23420523155787 85.75993378735289"></path>
<path style="fill:#36A33E;fill-opacity:1;" d="M184.03445257442786 160.77349909951016L165.59447440130674 146.98131025528107L157.89378152659415 134.86268683987836L173.8381833618437 108.17888589142643"></path>
<path d="M193.57251647833155 148.41804162761017L190.01103965466092 163.78140189690575L186.2726698953848 162.44757461496062L184.03445257442786 160.77349909951016L178.41658358134563 131.79528750225455" style="fill:#36A33E;fill-opacity:1;"></path>
<path style="fill-opacity:1;fill:#36A33E;" d="M187.41561423497933 85.66083062902501L207.28538528378797 89.26400126334391L203.84207396348535 104.1176237779026L174.84725844421664 106.49014529655793L187.23420523155787 85.75993378735289"></path>
<path style="fill:#36A33E;fill-opacity:1;" d="M203.84207396348535 104.1176237779026L196.51400731605605 135.72915280249148L186.8752084157782 141.07255481513383L178.41658358134563 131.79528750225455L173.8381833618437 108.17888589142643L174.84725844421664 106.49014529655793"></path>
<path style="fill:#36A33E;fill-opacity:1;" d="M196.51400731605605 135.72915280249148L193.57251647833155 148.41804162761017L186.8752084157782 141.07255481513383"></path>
<path style="fill:#2F7F27;fill-opacity:1;" d="M71.33468672613753 128.34812686025987L74.74747275822052 97.64612614158536L74.82122438902401 97.42258274055573L103.6781487558078 70.47593615461511L103.67309224179377 70.64808910792709"></path>
<path style="fill:#2C7F27;fill-opacity:1;" d="M63.731035506272974 216.75738204521974L62.97565282181918 217.98757216032277L62.96668218406613 217.84935520823842"></path>
<path style="fill-opacity:1;fill:#2C7F27;" d="M78.51245539023935 192.68487283541288L63.731035506272974 216.75738204521974L62.96668218406613 217.84935520823842L62.66714040279399 213.23410340906622"></path>
<path d="M88.4797622523673 176.45246159758514L78.51245539023935 192.68487283541288L62.66714040279399 213.23410340906622L62.324520573161536 207.95511769152188" style="fill-opacity:1;fill:#2D7F27;"></path>
<path style="fill:#2D7F27;fill-opacity:1;" d="M65.51683345758141 204.11013945826485L62.324520573161536 207.95511769152188L61.872185852141854 200.98567714754097"></path>
<path style="fill:#2D7F27;fill-opacity:1;" d="M75.64431229564235 191.9121071537993L65.51683345758141 204.11013945826485L61.872185852141854 200.98567714754097L61.58046455998861 196.49092114806348"></path>
<path style="fill:#2D7F27;fill-opacity:1;" d="M98.26493681966751 160.51666471609533L88.4797622523673 176.45246159758514L75.64431229564235 191.9121071537993L69.6591778782931 193.8607074047986"></path>
<path style="fill:#2E7F27;fill-opacity:1;" d="M57.76076856465038 137.63816698499664L56.73941403017878 121.90143625984192L59.085222138271604 112.28817410436417"></path>
<path style="fill-opacity:1;fill:#2E7F27;" d="M68.14745399118975 194.35288441210395L61.58046455998861 196.49092114806348L58.75291105618962 152.92480713137303"></path>
<path d="M78.71473723169214 183.30517702126124L69.6591778782931 193.8607074047986L68.14745399118975 194.35288441210395L62.43207268033528 169.1491826170129" style="fill:#2F7F27;fill-opacity:1;"></path>
<path style="fill:#2F7F27;fill-opacity:1;" d="M89.21246640928155 171.06859450130906L78.71473723169214 183.30517702126124L71.92653325110255 177.4035767480974"></path>
<path style="fill:#2F7F27;fill-opacity:1;" d="M101.17253669136997 155.78144812395232L98.26493681966751 160.51666471609533L89.21246640928155 171.06859450130906L82.96547785248912 173.35800296083704L101.29583172352362 151.58377283717422"></path>
<path style="fill:#2E7F27;fill-opacity:1;" d="M58.38419350919001 147.2437154487731L57.76076856465038 137.63816698499664L59.085222138271604 112.28817410436417L59.139353266135785 112.06634149958504L74.82122438902401 97.42258274055573"></path>
<path style="fill:#2E7F27;fill-opacity:1;" d="M66.4144485186434 172.61142246755418L62.43207268033528 169.1491826170129L58.75291105618962 152.92480713137303L58.38419350919001 147.2437154487731L74.74747275822052 97.64612614158536"></path>
<path style="fill:#2F7F27;fill-opacity:1;" d="M81.8603638520567 173.76300727905078L71.92653325110255 177.4035767480974L66.4144485186434 172.61142246755418L71.05008770551561 130.908427814825"></path>
<path style="fill:#2F7F27;fill-opacity:1;" d="M82.96547785248912 173.35800296083704L81.8603638520567 173.76300727905078L76.14919851169647 151.12255058820935L95.0130413858518 159.04696332404018"></path>
<path style="fill:#2F7F27;fill-opacity:1;" d="M101.43935019076818 146.69757496994788L101.29583172352362 151.58377283717422L95.0130413858518 159.04696332404018L86.89944862445608 155.6385667295245"></path>
<path style="fill:#2F7F27;fill-opacity:1;" d="M101.47829292724879 145.37173921104755L101.43935019076818 146.69757496994788L99.49031371597547 147.89609195995362"></path>
<path style="fill:#2F7F27;fill-opacity:1;" d="M76.14919851169647 151.12255058820935L71.05008770551561 130.908427814825L71.33468672613753 128.34812686025987L103.67309224179377 70.64808910792709L103.669998377551 70.7534221229367L80.94250517448218 153.13614562389333"></path>
<path d="M102.32323508337302 116.60502618485273L101.47829292724879 145.37173921104755L99.49031371597547 147.89609195995362L86.89944862445608 155.6385667295245L80.94250517448218 153.13614562389333L94.37187554182225 104.45730120056157" style="fill:#307F27;fill-opacity:1;"></path>
<path style="fill:#2F7F27;fill-opacity:1;" d="M103.669998377551 70.7534221229367L103.43128867677812 78.88047958945131L101.01643752192541 80.3720619046636"></path>
<path style="fill-opacity:1;fill:#2F7F27;" d="M103.43128867677812 78.88047958945131L102.44632296121279 112.4144036278465L100.25802718795663 113.4498956165761L94.37187554182225 104.45730120056157L101.01643752192541 80.3720619046636"></path>
<path d="M102.44632296121279 112.4144036278465L102.32323508337302 116.60502618485273L100.25802718795663 113.4498956165761" style="fill:#2F7F27;fill-opacity:1;"></path>
<path style="fill:#4BDF55;fill-opacity:1;" d="M204.6702667638823 69.4696763070513L212.01639280053166 74.39408298616976L214.49762757347258 76.59031033544423L213.091900030471 77.49499548382742"></path>
<path style="fill:#44C643;fill-opacity:1;" d="M133.9239278482368 75.96068496074044L116.30790655523202 72.7662077591374L99.01564664018669 82.62600516823119L90.47156553664034 104.32659727101836"></path>
<path style="fill:#369A33;fill-opacity:1;" d="M109.59670007322865 80.83328118196542L121.26555530288134 73.91177510240013L106.07783637258771 94.13874817668297L90.47156553664037 104.32659727101834"></path>
<path style="fill:#44C643;fill-opacity:1;" d="M137.9535245062201 76.69140925094636L133.9239278482368 75.96068496074044L130.0016531788953 78.52116483821011"></path>
<path style="fill:#41BA40;fill-opacity:1;" d="M146.2961331438975 62.83216228997556L155.93143420964492 60.956314432028364L138.6427961295968 70.23085807593506L121.26555530288134 73.91177510240013"></path>
<path style="fill:#44C643;fill-opacity:1;" d="M159.079410110349 80.52236283595721L137.9535245062201 76.69140925094636L130.0016531788953 78.52116483821011L106.07783637258774 94.13874817668297"></path>
<path style="fill:#3AA83A;fill-opacity:1;" d="M121.26555530288134 73.91177510240013L138.6427961295968 70.23085807593506L127.79891891336163 88.55848689319262L106.07783637258771 94.13874817668297"></path>
<path style="fill:#133A14;fill-opacity:1;" d="M115.42457683799347 186.2249750990694L110.28727660442253 192.4007352621812L63.731035506272974 216.75738204521974L78.51245539023934 192.6848728354129"></path>
<path style="fill:#133A14;fill-opacity:1;" d="M179.0117096059805 229.64828335122576L176.63542207106312 244.98528125384274L172.60137249540554 244.02706976325265"></path>
<path style="fill:#133A14;fill-opacity:1;" d="M180.87902322519534 172.68128555470327L187.61673620604316 174.10985503484298L179.0117096059805 229.64828335122576L172.60137249540554 244.02706976325265L144.49049118639775 237.34986637848414"></path>
<path style="fill:#133A14;fill-opacity:1;" d="M134.81530274442585 162.91458498322348L180.87902322519534 172.68128555470327L144.49049118639775 237.34986637848414L84.7086671823588 223.14983496717818"></path>
<path style="fill:#133A14;fill-opacity:1;" d="M110.28727660442253 192.4007352621812L84.7086671823588 223.14983496717818L62.97565282181918 217.98757216032277L63.731035506272974 216.75738204521974"></path>
<path style="fill:#133A14;fill-opacity:1;" d="M121.12719347233936 179.36962481104237L115.42457683799347 186.2249750990694L78.51245539023934 192.6848728354129L88.47976225236727 176.45246159758517"></path>
<path d="M128.0516548661888 171.04544462245022L121.12719347233936 179.36962481104237L88.47976225236727 176.45246159758517L98.26493681966751 160.51666471609536" style="fill:#133A14;fill-opacity:1;"></path>
<path style="fill:#133A14;fill-opacity:1;" d="M101.17253669136997 155.78144812395232L134.81530274442585 162.91458498322348L128.0516548661888 171.04544462245022L98.26493681966751 160.51666471609536"></path>
<path style="fill:#44C643;fill-opacity:1;" d="M206.39505167753458 97.82797341141256L206.43852592217726 97.40980182082757L204.1183307065253 96.80270217719405"></path>
<path d="M187.41561423497933 85.66083062902501L159.079410110349 80.52236283595721L127.79891891336165 88.55848689319262" style="fill-opacity:1;fill:#44C643;"></path>
<path style="fill:#44C642;fill-opacity:1;" d="M206.87262095145383 93.23431331379078L207.28538528378797 89.26400126334391L187.41561423497933 85.66083062902501L152.75844201236015 87.34533480436451"></path>
<path style="fill:#44C643;fill-opacity:1;" d="M206.43852592217726 97.40980182082757L206.87262095145383 93.23431331379078L178.80897874084417 90.18028590148322"></path>
<path style="fill:#3FBA43;fill-opacity:1;" d="M181.21136763159666 62.3112519537394L193.90554666147335 65.29739414472954L202.2845862295526 77.3596188936855L181.08780187932268 72.17883007205289"></path>
<path d="M159.26306854173706 69.72151068756344L181.08780187932268 72.17883007205289L178.8089787408441 90.18028590148322L152.75844201236018 87.34533480436451" style="fill:#3DB442;fill-opacity:1;"></path>
<path style="fill:#39AD41;fill-opacity:1;" d="M181.08780187932268 72.17883007205289L202.2845862295526 77.3596188936855L204.1183307065254 96.80270217719408L178.8089787408441 90.18028590148322"></path>
<path d="M168.06459862579683 60.80418811963514L181.21136763159666 62.3112519537394L181.08780187932268 72.17883007205289L159.26306854173706 69.72151068756344" style="fill:#41BF44;fill-opacity:1;"></path>
<path style="fill:#3EB744;fill-opacity:1;" d="M193.90554666147335 65.29739414472954L204.6702667638823 69.4696763070513L213.091900030471 77.49499548382742L211.35539612738057 81.05822725222437L202.2845862295526 77.3596188936855"></path>
<path style="fill-opacity:1;fill:#3DB340;" d="M138.6427961295968 70.23085807593506L159.26306854173706 69.72151068756344L152.75844201236018 87.34533480436451L127.79891891336163 88.55848689319262"></path>
<path style="fill:#37A640;fill-opacity:1;" d="M202.2845862295526 77.3596188936855L211.35539612738057 81.05822725222437L206.39505167753458 97.82797341141256L204.1183307065254 96.80270217719408"></path>
<path d="M155.93143420964492 60.956314432028364L168.06459862579683 60.80418811963514L159.26306854173706 69.72151068756344L138.6427961295968 70.23085807593506" style="fill:#42BF43;fill-opacity:1;"></path>
<path style="fill:#4EE250;fill-opacity:1;" d="M178.34998447226192 65.46535050514913L181.21136763159666 62.3112519537394L168.06459862579683 60.80418811963514"></path>
<path style="fill:#58FF5F;fill-opacity:1;" d="M178.34998447226192 65.46535050514913L204.6702667638823 69.4696763070513L193.90554666147335 65.29739414472954"></path>
<path style="fill:#53F156;fill-opacity:1;" d="M178.34998447226192 65.46535050514913L193.90554666147335 65.29739414472954L181.21136763159666 62.3112519537394"></path>
<path style="fill:#49D54B;fill-opacity:1;" d="M178.34998447226192 65.46535050514913L168.06459862579683 60.80418811963514L155.93143420964492 60.956314432028364"></path>
<path style="fill:#3DAD3A;fill-opacity:1;" d="M178.34998447226192 65.46535050514913L140.62973249115456 66.33762361165357L140.21364278764463 71.14444726664064"></path>
<path style="fill:#45C745;fill-opacity:1;" d="M178.34998447226192 65.46535050514913L155.93143420964492 60.956314432028364L146.2961331438975 62.83216228997556"></path>
<path style="fill-opacity:1;fill:#3CAB39;" d="M140.62973249115456 66.33762361165357L146.2961331438975 62.83216228997556L121.26555530288134 73.91177510240013L109.59670007322865 80.83328118196542"></path>
<path style="fill:#44C642;fill-opacity:1;" d="M116.30790655523202 72.7662077591374L103.79135829920465 70.49646549545604L99.01564664018669 82.62600516823119"></path>
<path style="fill-opacity:1;fill:#3BA836;" d="M140.21364278764463 71.14444726664064L140.62973249115456 66.33762361165357L109.59670007322865 80.83328118196542L106.47166068122178 90.68428932261023"></path>
<path style="fill:#41B93E;fill-opacity:1;" d="M178.34998447226192 65.46535050514913L146.2961331438975 62.83216228997556L140.62973249115456 66.33762361165357"></path>
<path style="fill:#3AA536;fill-opacity:1;" d="M106.47166068122178 90.68428932261023L109.59670007322865 80.83328118196542L90.47156553664037 104.32659727101834L84.73487011533626 118.89688117246394"></path>
<path style="fill:#44C642;fill-opacity:1;" d="M103.6781487558078 70.47593615461511L74.82122438902401 97.42258274055573L84.73487011533629 118.89688117246394L103.79135829920465 70.49646549545604"></path>
<path style="fill:#1F5B21;fill-opacity:1;" d="M172.60137249540554 244.02706976325265L176.63542207106312 244.98528125384274L177.64196903494278 240.9102401859625"></path>
<path style="fill:#1F5B21;fill-opacity:1;" d="M144.49049118639775 237.34986637848414L172.60137249540554 244.02706976325265L177.64196903494278 240.9102401859625L180.36150632226912 229.9000970638065"></path>
<path style="fill:#1F5B21;fill-opacity:1;" d="M84.7086671823588 223.14983496717818L144.49049118639775 237.34986637848414L173.41468310526795 231.34282820036563"></path>
<path style="fill:#1F5B21;fill-opacity:1;" d="M159.46464020047569 230.05438563046187L173.41468310526795 231.34282820036563L180.36150632226912 229.9000970638065L181.12863686803522 226.7943418525712"></path>
<path style="fill:#1F5B20;fill-opacity:1;" d="M62.97565282181918 217.98757216032277L84.7086671823588 223.14983496717818L159.46464020047569 230.05438563046187L164.5816037433537 229.284374195562L62.96668218406613 217.84935520823842"></path>
<path style="fill:#1F5B20;fill-opacity:1;" d="M164.5816037433537 229.284374195562L181.12863686803522 226.7943418525712L150.9579170117677 227.75126159691538"></path>
<path style="fill:#1F5B20;fill-opacity:1;" d="M62.66714040279399 213.23410340906622L62.96668218406613 217.84935520823842L150.9579170117677 227.75126159691538L157.15887357893834 227.55458688046133"></path>
<path style="fill:#1F5B20;fill-opacity:1;" d="M101.6326085936319 219.13942786895177L157.15887357893834 227.55458688046133L162.06292336415677 227.39904594245655"></path>
<path style="fill:#1F5B20;fill-opacity:1;" d="M62.324520573161536 207.95511769152185L62.66714040279399 213.23410340906622L101.6326085936319 219.13942786895177L148.5885782200201 225.55737185712752"></path>
<path style="fill:#1F5B21;fill-opacity:1;" d="M61.872185852141854 200.98567714754097L62.324520573161536 207.95511769152185L89.10466082032607 213.41962803429868"></path>
<path style="fill:#1F5B21;fill-opacity:1;" d="M61.58046455998861 196.49092114806348L61.872185852141854 200.98567714754097L89.10466082032607 213.41962803429868L148.5885782200201 225.55737185712752L149.35706401994398 225.6624085299694"></path>
<path style="fill:#1F5B21;fill-opacity:1;" d="M58.75291105618962 152.924807131373L61.58046455998861 196.49092114806348L80.13553918107345 202.65747497345103"></path>
<path style="fill-opacity:1;fill:#1F5B20;" d="M67.84034706736348 174.06077012153062L80.13553918107345 202.65747497345103L111.40298845972836 213.04883221112556"></path>
<path style="fill:#1F5B20;fill-opacity:1;" d="M98.17440290365303 201.2094005666482L111.40298845972836 213.04883221112556L137.14143764486815 221.60269337974682"></path>
<path d="M85.3860863254177 120.74389506607375L58.38419350919001 147.2437154487731L58.75291105618962 152.924807131373L67.84034706736348 174.06077012153062L70.7824441587229 176.6939131175759" style="fill:#1F5B20;fill-opacity:1;"></path>
<path style="fill-opacity:1;fill:#1F5B20;" d="M77.86585414880365 149.55568881110446L70.7824441587229 176.6939131175759L90.09160442277742 193.97538906143"></path>
<path d="M85.69765451734696 178.0108933584822L90.09160442277742 193.97538906143L98.17440290365303 201.2094005666482L108.62441409994855 206.67838581639853" style="fill:#1F5B21;fill-opacity:1;"></path>
<path style="fill:#1F5B21;fill-opacity:1;" d="M105.60946072502027 202.90850491258706L108.62441409994855 206.67838581639853L120.17828700810298 212.72507412373605"></path>
<path style="fill:#133A16;fill-opacity:1;" d="M145.83891030854574 233.43506410589612L123.81768206878047 224.4668837077846L137.1414376448682 221.60269337974682L149.35706401994392 225.66240852996938"></path>
<path style="fill:#133A16;fill-opacity:1;" d="M170.19985708735294 235.35283170539276L145.83891030854574 233.43506410589612L149.35706401994392 225.66240852996938L162.0629233641568 227.39904594245655"></path>
<path style="fill-opacity:1;fill:#17441A;" d="M112.92790980181061 215.0075664354943L92.12758748413121 196.11751096225618L108.72415331787758 210.77762469360357L123.81768206878047 224.4668837077846"></path>
<path style="fill:#133A16;fill-opacity:1;" d="M123.81768206878047 224.4668837077846L108.72415331787758 210.77762469360357L120.17828700810293 212.725074123736L137.1414376448682 221.60269337974682"></path>
<path style="fill:#133A17;fill-opacity:1;" d="M180.91222251042868 232.59610652996042L170.19985708735294 235.35283170539276L162.0629233641568 227.39904594245655L181.12863686803522 226.79434185257116"></path>
<path style="fill:#1A4D1C;fill-opacity:1;" d="M92.12758748413121 196.11751096225618L85.69765451734696 178.0108933584822L105.60946072502027 202.90850491258706L108.72415331787758 210.77762469360357"></path>
<path style="fill:#133A16;fill-opacity:1;" d="M108.72415331787758 210.77762469360357L105.60946072502027 202.90850491258706L120.17828700810293 212.725074123736"></path>
<path style="fill-opacity:1;fill:#153E18;" d="M198.86562989336218 169.99665545083374L195.17969127369665 170.63296868251751L189.62390195356573 208.6958162357528L189.84367263240713 208.64612189983617"></path>
<path style="fill-opacity:1;fill:#133A16;" d="M189.84367263240713 208.64612189983617L189.62390195356573 208.6958162357528L180.32787578771166 230.6606194042156L183.5739252886346 229.8349108116958"></path>
<path style="fill:#133A16;fill-opacity:1;" d="M183.5739252886346 229.8349108116958L180.32787578771166 230.6606194042156L170.19985708735294 235.35283170539276L180.91222251042868 232.59610652996042"></path>
<path style="fill-opacity:1;fill:#29752A;" d="M85.46924105922909 170.35780128871465L77.86585414880363 149.55568881110443L85.69765451734696 178.0108933584822L92.12758748413121 196.11751096225618"></path>
<path style="fill:#349434;fill-opacity:1;" d="M92.72732791867816 136.68265446070103L85.38608632541768 120.74389506607375L77.86585414880363 149.55568881110443L85.46924105922909 170.35780128871465"></path>
<path style="fill:#1F5C22;fill-opacity:1;" d="M195.17969127369665 170.63296868251751L153.99395553141397 166.82192564682632L147.38741830034536 205.12457881166358L189.62390195356573 208.6958162357528"></path>
<path style="fill:#143C17;fill-opacity:1;" d="M189.62390195356573 208.6958162357528L147.38741830034536 205.12457881166358L144.78286514846775 227.8221239152178L180.32787578771166 230.6606194042156"></path>
<path style="fill:#133A17;fill-opacity:1;" d="M180.32787578771166 230.6606194042156L144.78286514846775 227.8221239152178L145.83891030854574 233.43506410589612L170.19985708735294 235.35283170539276"></path>
<path style="fill:#256B26;fill-opacity:1;" d="M109.58823697663897 190.7779009208277L85.46924105922909 170.35780128871465L92.12758748413121 196.11751096225618L112.92790980181061 215.0075664354943"></path>
<path style="fill:#308A30;fill-opacity:1;" d="M116.82743155051188 154.15806187038982L92.72732791867816 136.68265446070103L85.46924105922909 170.35780128871465L109.58823697663897 190.7779009208277"></path>
<path style="fill-opacity:1;fill:#29762A;" d="M153.99395553141397 166.82192564682632L116.82743155051188 154.15806187038982L109.58823697663897 190.7779009208277L147.38741830034536 205.12457881166358"></path>
<path style="fill:#1E5720;fill-opacity:1;" d="M147.38741830034536 205.12457881166358L109.58823697663897 190.7779009208277L112.92790980181061 215.0075664354943L144.78286514846775 227.8221239152178"></path>
<path style="fill:#133A16;fill-opacity:1;" d="M144.78286514846775 227.8221239152178L112.92790980181061 215.0075664354943L123.81768206878047 224.4668837077846L145.83891030854574 233.43506410589612"></path>
<path style="fill:#3CA938;fill-opacity:1;" d="M114.43498276282813 102.40901889135213L106.47166068122178 90.68428932261023L84.73487011533626 118.89688117246394L92.85363682113847 136.4832287132783"></path>
<path style="fill:#3CA93B;fill-opacity:1;" d="M85.38608632541768 120.74389506607375L92.72732791867816 136.68265446070103L92.85363682113847 136.4832287132783L85.52473150585368 120.60782785021274"></path>
<path d="M74.82122438902401 97.42258274055573L59.139353266135785 112.06634149958502L65.34474058520286 116.56046761796313L85.5247315058537 120.60782785021276" style="fill:#44C642;fill-opacity:1;"></path>
<path d="M65.14664447327763 116.68341764375305L56.73941403017878 121.90143625984192L57.76076856465038 137.63816698499662" style="fill:#1F5B21;fill-opacity:1;"></path>
<path style="fill:#1F5B20;fill-opacity:1;" d="M85.52473150585368 120.60782785021274L65.34474058520289 116.56046761796313L65.14664447327763 116.68341764375305L57.76076856465038 137.63816698499662L58.38419350919001 147.2437154487731"></path>
<path style="fill:#40B63D;fill-opacity:1;" d="M145.76821019249562 76.62020399478007L140.21364278764463 71.14444726664064L106.47166068122178 90.68428932261023L114.43498276282813 102.40901889135213"></path>
<path style="fill:#5CFF64;fill-opacity:1;" d="M178.34998447226192 65.46535050514913L212.01639280053166 74.39408298616976L204.6702667638823 69.4696763070513"></path>
<path style="fill-opacity:1;fill:#70FF80;" d="M212.01639280053166 74.39408298616976L214.55532522465586 79.46051570260637L214.71708978351108 79.61745344674496L214.49762757347258 76.59031033544423"></path>
<path style="fill:#58FF61;fill-opacity:1;" d="M178.34998447226192 65.46535050514913L214.55532522465586 79.46051570260637L212.01639280053166 74.39408298616976"></path>
<path style="fill:#3AA437;fill-opacity:1;" d="M178.34998447226192 65.46535050514913L140.21364278764463 71.14444726664064L145.76821019249562 76.62020399478007"></path>
<path style="fill:#184616;fill-opacity:1;" d="M236.93219105193333 115.25987693726752L221.03000213579685 122.8770690602527L229.17179886407573 164.764822176448L248.70566381924087 151.88980879815398"></path>
<path style="fill:#57FC57;fill-opacity:1;" d="M134.25051198441957 113.94103044394663L114.43498276282813 102.40901889135213L92.85363682113847 136.4832287132783L116.9304154305683 153.9203481115423"></path>
<path style="fill:#57FC5C;fill-opacity:1;" d="M92.85363682113847 136.4832287132783L92.72732791867816 136.68265446070103L116.82743155051188 154.15806187038982L116.9304154305683 153.9203481115423"></path>
<path d="M56.73941403017878 121.90143625984192L56.27470616760988 114.74135398450085L59.139353266135785 112.06634149958504" style="fill-opacity:1;fill:#2E7F27;"></path>
<path style="fill:#1F5B21;fill-opacity:1;" d="M65.34474058520289 116.56046761796313L56.27470616760988 114.74135398450085L56.73941403017878 121.90143625984192"></path>
<path d="M59.139353266135785 112.06634149958502L56.27470616760988 114.74135398450085L65.34474058520286 116.56046761796313" style="fill:#44C641;fill-opacity:1;"></path>
<path style="fill:#339A33;fill-opacity:1;" d="M240.97575833073358 105.09260223735848L236.93219105193333 115.25987693726752L248.70566381924087 151.88980879815398L252.7016506206033 136.01989968410214"></path>
<path style="fill:#66FF67;fill-opacity:1;" d="M156.9604374936287 81.83953237397944L145.76821019249562 76.62020399478007L114.43498276282813 102.40901889135213L134.25051198441957 113.94103044394663"></path>
<path d="M178.34998447226192 65.46535050514913L211.29698065338988 83.88522682269185L214.55532522465586 79.46051570260639" style="fill:#4BDC4B;fill-opacity:1;"></path>
<path style="fill:#389E35;fill-opacity:1;" d="M178.34998447226192 65.46535050514913L145.76821019249562 76.62020399478007L156.9604374936287 81.83953237397944"></path>
<path style="fill:#50EE53;fill-opacity:1;" d="M214.55532522465586 79.46051570260639L211.29698065338988 83.88522682269185L213.941246016776 87.12151391753248L214.71708978351108 79.61745344674497"></path>
<path style="fill:#50EE4D;fill-opacity:1;" d="M213.941246016776 87.12151391753248L236.93219105193333 115.25987693726752L240.97575833073358 105.09260223735848L214.71708978351108 79.61745344674497"></path>
<path style="fill:#44C343;fill-opacity:1;" d="M163.16071423536033 122.49826258724815L134.25051198441957 113.94103044394663L116.9304154305683 153.9203481115423L154.0485898993722 166.55775426465493"></path>
<path style="fill:#44C347;fill-opacity:1;" d="M116.9304154305683 153.9203481115423L116.82743155051188 154.15806187038982L153.99395553141397 166.82192564682632L154.0485898993722 166.55775426465493"></path>
<path d="M178.34998447226192 65.46535050514913L202.11849344520658 86.80918775619492L211.29698065338988 83.88522682269185" style="fill:#3FB63D;fill-opacity:1;"></path>
<path style="fill:#5CFF5D;fill-opacity:1;" d="M172.07155088363677 85.75588195823556L156.9604374936287 81.83953237397944L134.25051198441957 113.94103044394663L163.16071423536033 122.49826258724815"></path>
<path style="fill:#369B34;fill-opacity:1;" d="M178.34998447226192 65.46535050514913L156.9604374936287 81.83953237397944L172.07155088363677 85.75588195823556"></path>
<path style="fill:#2A7A2A;fill-opacity:1;" d="M211.29698065338988 83.88522682269185L202.11849344520658 86.80918775619492L211.3544725033517 104.42397470133656L213.941246016776 87.1215139175325"></path>
<path style="fill:#2A7A26;fill-opacity:1;" d="M211.3544725033517 104.42397470133656L221.03000213579685 122.8770690602527L236.93219105193333 115.25987693726752L213.941246016776 87.1215139175325"></path>
<path style="fill:#38A137;fill-opacity:1;" d="M178.34998447226192 65.46535050514913L188.20264922527747 87.52362166635926L202.11849344520658 86.80918775619492"></path>
<path style="fill:#297729;fill-opacity:1;" d="M194.65960259057243 125.70567121921462L163.16071423536033 122.49826258724815L154.0485898993722 166.55775426465493L195.17659764870123 170.36572923870756"></path>
<path style="fill:#29772B;fill-opacity:1;" d="M154.0485898993722 166.55775426465493L153.99395553141397 166.82192564682632L195.17969127369665 170.63296868251751L195.17659764870123 170.36572923870756"></path>
<path style="fill:#339231;fill-opacity:1;" d="M188.20264922527747 87.52362166635926L172.07155088363677 85.75588195823556L163.16071423536033 122.49826258724815L194.65960259057243 125.70567121921462"></path>
<path style="fill:#297728;fill-opacity:1;" d="M202.11849344520658 86.80918775619492L188.20264922527747 87.52362166635926L194.65960259057243 125.70567121921462L208.02360745994127 124.27219073815304L211.3544725033517 104.42397470133656"></path>
<path style="fill-opacity:1;fill:#297725;" d="M208.02360745994127 124.27219073815304L221.03000213579685 122.8770690602527L211.3544725033517 104.42397470133656"></path>
<path d="M178.34998447226192 65.46535050514913L172.07155088363677 85.75588195823556L188.20264922527747 87.52362166635926" style="fill:#369A34;fill-opacity:1;"></path>
<path style="fill:#205D20;fill-opacity:1;" d="M208.02360745994127 124.27219073815304L194.65960259057243 125.70567121921462L195.17659764870123 170.36572923870756L198.92087972278168 169.72080099964003"></path>
<path style="fill:#205D1E;fill-opacity:1;" d="M221.03000213579685 122.8770690602527L208.02360745994127 124.27219073815304L198.86562989336218 169.99665545083374L229.17179886407573 164.764822176448"></path>
<path style="fill:#205D22;fill-opacity:1;" d="M195.17659764870123 170.36572923870756L195.17969127369665 170.63296868251751L198.86562989336218 169.99665545083374L198.92087972278168 169.72080099964003"></path>
</g>
</svg>
